STARTFONT 2.1
FONT -FontForge-Inknut Antiqua-Book-R-Normal--16-120-96-96-P-128-ISO10646-1
SIZE 12 96 96
FONTBOUNDINGBOX 57 39 -20 -14
COMMENT "Generated by fontforge, http://fontforge.sourceforge.net"
COMMENT "Copyright (c) 2014 by Claus Eggers Srensen (es@forthehearts.net)."
STARTPROPERTIES 39
FOUNDRY "FontForge"
FAMILY_NAME "Inknut Antiqua"
WEIGHT_NAME "Book"
SLANT "R"
SETWIDTH_NAME "Normal"
ADD_STYLE_NAME ""
PIXEL_SIZE 16
POINT_SIZE 120
RESOLUTION_X 96
RESOLUTION_Y 96
SPACING "P"
AVERAGE_WIDTH 128
CHARSET_REGISTRY "ISO10646"
CHARSET_ENCODING "1"
FONTNAME_REGISTRY ""
CHARSET_COLLECTIONS "ISO8859-2 ISO8859-9 ISO8859-4 ISO10646-1"
FONT_NAME "InknutAntiqua-Regular"
FACE_NAME "Inknut Antiqua Regular"
COPYRIGHT "Copyright (c) 2014 by Claus Eggers Srensen (es@forthehearts.net)."
FONT_VERSION "1.003"
FONT_ASCENT 13
FONT_DESCENT 3
UNDERLINE_POSITION -3
UNDERLINE_THICKNESS 1
X_HEIGHT 8
CAP_HEIGHT 12
RAW_ASCENT 800
RAW_DESCENT 200
NORM_SPACE 4
RELATIVE_WEIGHT 40
RELATIVE_SETWIDTH 50
SUPERSCRIPT_X 0
SUPERSCRIPT_Y 5
SUPERSCRIPT_SIZE 9
SUBSCRIPT_X 0
SUBSCRIPT_Y 1
SUBSCRIPT_SIZE 9
AVG_LOWERCASE_WIDTH 99
AVG_UPPERCASE_WIDTH 134
ENDPROPERTIES
CHARS 1273
STARTCHAR space
ENCODING 32
SWIDTH 279 0
DWIDTH 4 0
BBX 1 1 0 0
BITMAP
00
ENDCHAR
STARTCHAR exclam
ENCODING 33
SWIDTH 349 0
DWIDTH 6 0
BBX 3 13 1 0
BITMAP
20
E0
E0
60
60
60
40
40
40
00
00
60
60
ENDCHAR
STARTCHAR quotedbl
ENCODING 34
SWIDTH 490 0
DWIDTH 8 0
BBX 6 6 1 7
BITMAP
04
DC
CC
CC
48
48
ENDCHAR
STARTCHAR numbersign
ENCODING 35
SWIDTH 780 0
DWIDTH 12 0
BBX 9 8 1 0
BITMAP
0480
0080
7900
1000
1200
FF80
0400
4800
ENDCHAR
STARTCHAR dollar
ENCODING 36
SWIDTH 700 0
DWIDTH 11 0
BBX 9 19 1 -3
BITMAP
0800
0800
0800
1E00
2B80
4980
C880
E800
7800
3C00
0F00
0B80
8980
C980
E900
FE00
0800
0800
0800
ENDCHAR
STARTCHAR percent
ENCODING 37
SWIDTH 1077 0
DWIDTH 17 0
BBX 15 17 1 -2
BITMAP
0002
3C04
4608
8310
C300
C220
7C40
0080
0100
0100
0218
044E
0886
0082
10C2
20E4
4078
ENDCHAR
STARTCHAR ampersand
ENCODING 38
SWIDTH 1255 0
DWIDTH 20 0
BBX 18 13 1 0
BITMAP
000080
000180
0000C0
000040
1E7840
27FF80
460F00
C60800
CC1800
D85800
E09800
731880
3E0F00
ENDCHAR
STARTCHAR quotesingle
ENCODING 39
SWIDTH 270 0
DWIDTH 4 0
BBX 2 5 1 7
BITMAP
C0
C0
C0
40
40
ENDCHAR
STARTCHAR parenleft
ENCODING 40
SWIDTH 517 0
DWIDTH 8 0
BBX 6 18 1 -3
BITMAP
04
08
10
20
60
60
40
C0
C0
C0
C0
E0
60
60
70
30
18
0C
ENDCHAR
STARTCHAR parenright
ENCODING 41
SWIDTH 517 0
DWIDTH 8 0
BBX 6 18 1 -3
BITMAP
C0
60
30
18
18
1C
0C
0C
0C
0C
0C
0C
08
18
10
30
60
C0
ENDCHAR
STARTCHAR asterisk
ENCODING 42
SWIDTH 698 0
DWIDTH 11 0
BBX 10 9 1 4
BITMAP
3200
2700
3400
9100
F7C0
6480
1600
7200
2600
ENDCHAR
STARTCHAR plus
ENCODING 43
SWIDTH 528 0
DWIDTH 8 0
BBX 1 8 4 1
BITMAP
80
80
80
80
80
80
80
80
ENDCHAR
STARTCHAR comma
ENCODING 44
SWIDTH 370 0
DWIDTH 6 0
BBX 3 6 1 -4
BITMAP
20
E0
60
60
40
80
ENDCHAR
STARTCHAR hyphen
ENCODING 45
SWIDTH 513 0
DWIDTH 8 0
BBX 6 2 1 4
BITMAP
7C
F8
ENDCHAR
STARTCHAR period
ENCODING 46
SWIDTH 339 0
DWIDTH 5 0
BBX 2 2 2 0
BITMAP
C0
C0
ENDCHAR
STARTCHAR slash
ENCODING 47
SWIDTH 355 0
DWIDTH 6 0
BBX 5 17 0 -2
BITMAP
08
08
08
08
10
10
10
10
20
20
20
20
40
40
40
40
80
ENDCHAR
STARTCHAR zero
ENCODING 48
SWIDTH 751 0
DWIDTH 12 0
BBX 10 9 1 0
BITMAP
1F00
2380
41C0
C0C0
C0C0
C0C0
E080
7100
3E00
ENDCHAR
STARTCHAR one
ENCODING 49
SWIDTH 494 0
DWIDTH 8 0
BBX 6 9 1 0
BITMAP
F8
30
30
30
30
30
30
30
FC
ENDCHAR
STARTCHAR two
ENCODING 50
SWIDTH 590 0
DWIDTH 9 0
BBX 8 9 1 0
BITMAP
7C
8E
06
04
08
10
21
7F
FF
ENDCHAR
STARTCHAR three
ENCODING 51
SWIDTH 560 0
DWIDTH 9 0
BBX 7 13 1 -4
BITMAP
78
8C
0C
0C
18
18
1C
06
06
04
08
30
C0
ENDCHAR
STARTCHAR four
ENCODING 52
SWIDTH 698 0
DWIDTH 11 0
BBX 9 12 1 -3
BITMAP
0600
0E00
0E00
1600
2600
6600
C600
FF80
0600
0600
0600
0600
ENDCHAR
STARTCHAR five
ENCODING 53
SWIDTH 626 0
DWIDTH 10 0
BBX 7 14 1 -4
BITMAP
02
7E
7E
00
C0
F0
3C
0E
06
06
04
0C
30
C0
ENDCHAR
STARTCHAR six
ENCODING 54
SWIDTH 731 0
DWIDTH 12 0
BBX 10 14 1 0
BITMAP
0100
0600
0C00
1800
3000
6000
6700
6380
E180
E1C0
6180
6180
7100
3E00
ENDCHAR
STARTCHAR seven
ENCODING 55
SWIDTH 658 0
DWIDTH 11 0
BBX 9 13 1 -4
BITMAP
FF80
FF00
8100
0200
0200
0400
0400
0800
0800
1000
1000
2000
2000
ENDCHAR
STARTCHAR eight
ENCODING 56
SWIDTH 732 0
DWIDTH 12 0
BBX 10 14 1 0
BITMAP
1E00
3300
6180
6180
7100
3A00
1E00
2F00
6380
C1C0
C0C0
E180
7100
3E00
ENDCHAR
STARTCHAR nine
ENCODING 57
SWIDTH 731 0
DWIDTH 12 0
BBX 9 13 1 -4
BITMAP
1F00
6300
4180
C180
C180
E180
6180
3980
0300
0600
0C00
1800
6000
ENDCHAR
STARTCHAR colon
ENCODING 58
SWIDTH 339 0
DWIDTH 5 0
BBX 3 9 1 0
BITMAP
40
E0
60
00
00
00
00
60
60
ENDCHAR
STARTCHAR semicolon
ENCODING 59
SWIDTH 370 0
DWIDTH 6 0
BBX 3 13 1 -4
BITMAP
40
E0
60
00
00
00
00
20
E0
60
60
40
80
ENDCHAR
STARTCHAR less
ENCODING 60
SWIDTH 471 0
DWIDTH 8 0
BBX 6 8 1 1
BITMAP
04
10
20
C0
E0
70
1C
08
ENDCHAR
STARTCHAR equal
ENCODING 61
SWIDTH 527 0
DWIDTH 8 0
BBX 7 4 1 3
BITMAP
FE
00
00
FE
ENDCHAR
STARTCHAR greater
ENCODING 62
SWIDTH 471 0
DWIDTH 8 0
BBX 5 7 1 1
BITMAP
E0
70
38
08
10
40
80
ENDCHAR
STARTCHAR question
ENCODING 63
SWIDTH 484 0
DWIDTH 8 0
BBX 7 13 0 0
BITMAP
78
DC
0E
04
08
10
30
30
00
00
00
30
30
ENDCHAR
STARTCHAR at
ENCODING 64
SWIDTH 1339 0
DWIDTH 21 0
BBX 19 17 1 -4
BITMAP
01FC00
070F00
080380
1000C0
2064E0
61FC60
431C60
C20C60
C60C60
C60C60
C70CC0
E39D80
61EE00
700000
380000
1C0000
078000
ENDCHAR
STARTCHAR A
ENCODING 65
SWIDTH 870 0
DWIDTH 14 0
BBX 14 13 0 0
BITMAP
0100
0300
0580
0580
0980
08C0
00C0
1060
1060
2070
2030
6030
F87C
ENDCHAR
STARTCHAR B
ENCODING 66
SWIDTH 789 0
DWIDTH 13 0
BBX 11 13 1 0
BITMAP
FF00
7380
61C0
60C0
60C0
6180
7F80
61C0
60E0
60E0
60C0
60C0
FF00
ENDCHAR
STARTCHAR C
ENCODING 67
SWIDTH 820 0
DWIDTH 13 0
BBX 11 13 1 0
BITMAP
07C0
1DE0
3060
6020
6000
C000
C000
C000
E000
6000
7020
38C0
1F80
ENDCHAR
STARTCHAR D
ENCODING 68
SWIDTH 889 0
DWIDTH 14 0
BBX 12 13 1 0
BITMAP
FF00
71C0
60E0
6070
6030
6030
6030
6030
6030
6060
6060
60C0
FF00
ENDCHAR
STARTCHAR E
ENCODING 69
SWIDTH 814 0
DWIDTH 13 0
BBX 10 13 1 0
BITMAP
FFC0
60C0
6040
6040
6100
6300
7F00
6300
6100
6000
6040
60C0
FFC0
ENDCHAR
STARTCHAR F
ENCODING 70
SWIDTH 774 0
DWIDTH 12 0
BBX 10 13 1 0
BITMAP
FFC0
60C0
6040
6040
6100
6300
7F00
6300
6100
6000
6000
6000
FC00
ENDCHAR
STARTCHAR G
ENCODING 71
SWIDTH 910 0
DWIDTH 15 0
BBX 13 13 1 0
BITMAP
07C0
1DE0
3060
6020
6000
C000
C1F8
C0F0
E060
6060
7060
3860
1FC0
ENDCHAR
STARTCHAR H
ENCODING 72
SWIDTH 954 0
DWIDTH 15 0
BBX 13 13 1 0
BITMAP
F8F8
7078
6030
6030
6030
6030
7FF0
6030
6030
6030
6030
6030
F8F8
ENDCHAR
STARTCHAR I
ENCODING 73
SWIDTH 434 0
DWIDTH 7 0
BBX 5 13 1 0
BITMAP
F8
70
60
60
60
60
60
60
60
60
60
60
F8
ENDCHAR
STARTCHAR J
ENCODING 74
SWIDTH 424 0
DWIDTH 7 0
BBX 5 17 1 -4
BITMAP
F8
70
60
60
60
60
60
60
60
60
60
60
70
60
60
40
80
ENDCHAR
STARTCHAR K
ENCODING 75
SWIDTH 860 0
DWIDTH 14 0
BBX 12 13 1 0
BITMAP
F8F0
70E0
6040
6080
6100
6200
6600
6700
6300
6180
61C0
60E0
F870
ENDCHAR
STARTCHAR L
ENCODING 76
SWIDTH 784 0
DWIDTH 13 0
BBX 10 13 1 0
BITMAP
F800
7000
6000
6000
6000
6000
6000
6000
6000
6040
6040
60C0
FFC0
ENDCHAR
STARTCHAR M
ENCODING 77
SWIDTH 1076 0
DWIDTH 17 0
BBX 15 13 1 0
BITMAP
F00E
701E
701C
582C
582C
4C2C
4C4C
4C4C
468C
468C
430C
430C
F33E
ENDCHAR
STARTCHAR N
ENCODING 78
SWIDTH 874 0
DWIDTH 14 0
BBX 12 13 1 0
BITMAP
E070
6070
7020
7820
5C20
4E20
4620
4320
43A0
41E0
40E0
4060
F020
ENDCHAR
STARTCHAR O
ENCODING 79
SWIDTH 929 0
DWIDTH 15 0
BBX 13 13 1 0
BITMAP
0780
1DE0
3070
6030
6038
C038
C018
C018
E030
6030
7020
3840
1F80
ENDCHAR
STARTCHAR P
ENCODING 80
SWIDTH 779 0
DWIDTH 12 0
BBX 10 13 1 0
BITMAP
FF00
71C0
60C0
60C0
60C0
60C0
6180
6F00
6000
6000
6000
6000
FC00
ENDCHAR
STARTCHAR Q
ENCODING 81
SWIDTH 929 0
DWIDTH 15 0
BBX 16 17 1 -4
BITMAP
0780
1DE0
3070
6030
6038
C038
C018
C018
E030
6030
7020
3840
1F80
00E0
0070
003F
001E
ENDCHAR
STARTCHAR R
ENCODING 82
SWIDTH 809 0
DWIDTH 13 0
BBX 12 13 1 0
BITMAP
FF00
7380
61C0
60C0
60C0
6180
6700
6700
6300
6380
6180
60C0
F8F0
ENDCHAR
STARTCHAR S
ENCODING 83
SWIDTH 700 0
DWIDTH 11 0
BBX 9 13 1 0
BITMAP
1E00
2380
4180
C080
E000
7800
3C00
0F00
0380
8180
C180
E100
FE00
ENDCHAR
STARTCHAR T
ENCODING 84
SWIDTH 832 0
DWIDTH 13 0
BBX 11 13 1 0
BITMAP
FFE0
C660
C620
8620
0600
0600
0600
0600
0600
0600
0600
0E00
1F00
ENDCHAR
STARTCHAR U
ENCODING 85
SWIDTH 898 0
DWIDTH 14 0
BBX 13 13 1 0
BITMAP
F878
7030
6020
6020
6020
6020
6020
6020
6020
7020
3020
3840
1F80
ENDCHAR
STARTCHAR V
ENCODING 86
SWIDTH 873 0
DWIDTH 14 0
BBX 14 13 0 0
BITMAP
F87C
7038
3010
3010
1800
1820
1C20
0C40
0C40
0680
0680
0300
0300
ENDCHAR
STARTCHAR W
ENCODING 87
SWIDTH 1195 0
DWIDTH 19 0
BBX 19 13 0 0
BITMAP
F9F3E0
70E1C0
306040
306080
306080
187000
183100
0CB100
0C9A00
0D1A00
071A00
070C00
060C00
ENDCHAR
STARTCHAR X
ENCODING 88
SWIDTH 873 0
DWIDTH 14 0
BBX 13 13 0 0
BITMAP
7CF8
7870
3820
1C40
0CC0
0680
0300
0380
05C0
08C0
1060
2030
F8F8
ENDCHAR
STARTCHAR Y
ENCODING 89
SWIDTH 803 0
DWIDTH 13 0
BBX 13 13 0 0
BITMAP
F8F8
7070
3020
3840
1840
0C80
0D00
0700
0600
0600
0600
0600
0F80
ENDCHAR
STARTCHAR Z
ENCODING 90
SWIDTH 790 0
DWIDTH 13 0
BBX 10 13 1 0
BITMAP
7FC0
60C0
4180
4380
0300
0600
0E00
0C00
1800
3040
7040
60C0
FFC0
ENDCHAR
STARTCHAR bracketleft
ENCODING 91
SWIDTH 435 0
DWIDTH 7 0
BBX 2 18 2 -3
BITMAP
C0
C0
C0
C0
C0
C0
C0
C0
C0
C0
C0
C0
C0
C0
C0
C0
C0
C0
ENDCHAR
STARTCHAR backslash
ENCODING 92
SWIDTH 355 0
DWIDTH 6 0
BBX 5 17 0 -2
BITMAP
80
40
40
40
40
20
20
20
20
10
10
10
10
00
08
08
08
ENDCHAR
STARTCHAR bracketright
ENCODING 93
SWIDTH 435 0
DWIDTH 7 0
BBX 2 18 3 -3
BITMAP
C0
C0
C0
C0
C0
C0
C0
C0
C0
C0
C0
C0
C0
C0
C0
C0
C0
C0
ENDCHAR
STARTCHAR asciicircum
ENCODING 94
SWIDTH 597 0
DWIDTH 10 0
BBX 8 7 1 5
BITMAP
08
18
2C
2C
4E
46
87
ENDCHAR
STARTCHAR underscore
ENCODING 95
SWIDTH 498 0
DWIDTH 8 0
BBX 6 1 1 -2
BITMAP
FC
ENDCHAR
STARTCHAR grave
ENCODING 96
SWIDTH 380 0
DWIDTH 6 0
BBX 4 3 1 11
BITMAP
E0
60
10
ENDCHAR
STARTCHAR a
ENCODING 97
SWIDTH 621 0
DWIDTH 10 0
BBX 9 9 1 0
BITMAP
3C00
C600
0600
0600
7E00
C600
C600
CE00
7780
ENDCHAR
STARTCHAR b
ENCODING 98
SWIDTH 705 0
DWIDTH 11 0
BBX 10 14 0 0
BITMAP
3000
F000
3000
3000
3000
3300
3780
30C0
30C0
30C0
30C0
30C0
3980
2F00
ENDCHAR
STARTCHAR c
ENCODING 99
SWIDTH 613 0
DWIDTH 10 0
BBX 7 9 1 0
BITMAP
0C
3E
42
C0
C0
C0
E0
72
3C
ENDCHAR
STARTCHAR d
ENCODING 100
SWIDTH 705 0
DWIDTH 11 0
BBX 10 14 1 0
BITMAP
0100
0700
0300
0100
0100
0D00
3F00
6300
C300
C300
C300
E300
6300
3FC0
ENDCHAR
STARTCHAR e
ENCODING 101
SWIDTH 643 0
DWIDTH 10 0
BBX 8 9 1 0
BITMAP
1E
26
43
FF
FF
C0
E1
62
3C
ENDCHAR
STARTCHAR f
ENCODING 102
SWIDTH 439 0
DWIDTH 7 0
BBX 8 14 0 0
BITMAP
07
09
10
30
30
30
FE
30
30
30
30
30
30
7C
ENDCHAR
STARTCHAR g
ENCODING 103
SWIDTH 640 0
DWIDTH 10 0
BBX 9 13 1 -4
BITMAP
1800
7F80
4600
C200
C600
7C00
3000
3000
3C00
0F00
8300
C200
7C00
ENDCHAR
STARTCHAR h
ENCODING 104
SWIDTH 699 0
DWIDTH 11 0
BBX 10 14 1 0
BITMAP
6000
E000
6000
6000
6000
6600
6F00
7300
6300
6300
6300
6300
6300
F3C0
ENDCHAR
STARTCHAR i
ENCODING 105
SWIDTH 389 0
DWIDTH 6 0
BBX 5 14 1 0
BITMAP
20
60
60
00
00
20
E0
60
60
60
60
60
60
F8
ENDCHAR
STARTCHAR j
ENCODING 106
SWIDTH 379 0
DWIDTH 6 0
BBX 3 18 1 -4
BITMAP
20
60
60
00
00
20
E0
60
60
60
60
60
60
60
60
40
40
80
ENDCHAR
STARTCHAR k
ENCODING 107
SWIDTH 689 0
DWIDTH 11 0
BBX 10 14 1 0
BITMAP
6000
E000
6000
6000
6000
6380
6380
6300
6400
6C00
6E00
6600
6300
F3C0
ENDCHAR
STARTCHAR l
ENCODING 108
SWIDTH 369 0
DWIDTH 6 0
BBX 4 14 1 0
BITMAP
60
E0
60
60
60
60
60
60
60
60
60
60
60
F0
ENDCHAR
STARTCHAR m
ENCODING 109
SWIDTH 1039 0
DWIDTH 17 0
BBX 15 9 1 0
BITMAP
2630
EF78
738C
618C
618C
618C
618C
618C
F9CE
ENDCHAR
STARTCHAR n
ENCODING 110
SWIDTH 719 0
DWIDTH 12 0
BBX 10 9 1 0
BITMAP
2600
EF00
7180
6180
6180
6180
6180
6180
F9C0
ENDCHAR
STARTCHAR o
ENCODING 111
SWIDTH 671 0
DWIDTH 11 0
BBX 9 9 1 0
BITMAP
0C00
3F00
6300
C380
C380
C100
E300
7200
3C00
ENDCHAR
STARTCHAR p
ENCODING 112
SWIDTH 735 0
DWIDTH 12 0
BBX 10 13 1 -4
BITMAP
2600
EF80
7180
61C0
60C0
60C0
6180
7100
7E00
6000
6000
6000
F800
ENDCHAR
STARTCHAR q
ENCODING 113
SWIDTH 705 0
DWIDTH 11 0
BBX 10 13 1 -4
BITMAP
0C00
3F00
6300
C100
C100
C100
E100
6300
3D00
0100
0100
0300
0FC0
ENDCHAR
STARTCHAR r
ENCODING 114
SWIDTH 519 0
DWIDTH 8 0
BBX 7 9 1 0
BITMAP
24
EE
74
60
60
60
60
60
F8
ENDCHAR
STARTCHAR s
ENCODING 115
SWIDTH 559 0
DWIDTH 9 0
BBX 7 9 1 0
BITMAP
3C
46
C2
70
3C
1E
86
C4
78
ENDCHAR
STARTCHAR t
ENCODING 116
SWIDTH 456 0
DWIDTH 7 0
BBX 7 12 0 0
BITMAP
10
30
70
70
FE
30
30
30
30
30
32
1C
ENDCHAR
STARTCHAR u
ENCODING 117
SWIDTH 699 0
DWIDTH 11 0
BBX 10 9 1 0
BITMAP
2100
E700
E300
6300
6300
6300
6300
7F00
3BC0
ENDCHAR
STARTCHAR v
ENCODING 118
SWIDTH 620 0
DWIDTH 10 0
BBX 9 9 0 0
BITMAP
2380
E380
6180
3100
3100
1A00
1A00
1C00
0C00
ENDCHAR
STARTCHAR w
ENCODING 119
SWIDTH 899 0
DWIDTH 14 0
BBX 14 9 0 0
BITMAP
213C
E73C
6308
3188
3190
1AD0
1AC0
1CE0
0C40
ENDCHAR
STARTCHAR x
ENCODING 120
SWIDTH 618 0
DWIDTH 10 0
BBX 10 9 0 0
BITMAP
6380
7380
3100
1A00
0C00
1E00
2600
6300
F1C0
ENDCHAR
STARTCHAR y
ENCODING 121
SWIDTH 620 0
DWIDTH 10 0
BBX 9 13 0 -4
BITMAP
2380
E380
6180
3100
3100
1A00
1A00
1C00
0C00
1800
1000
2000
2000
ENDCHAR
STARTCHAR z
ENCODING 122
SWIDTH 611 0
DWIDTH 10 0
BBX 8 9 1 0
BITMAP
FF
FE
84
04
08
10
20
7E
FE
ENDCHAR
STARTCHAR braceleft
ENCODING 123
SWIDTH 496 0
DWIDTH 8 0
BBX 5 18 1 -3
BITMAP
08
18
18
18
18
10
10
30
E0
E0
30
10
10
18
18
18
18
08
ENDCHAR
STARTCHAR bar
ENCODING 124
SWIDTH 373 0
DWIDTH 6 0
BBX 1 1 3 -3
BITMAP
00
ENDCHAR
STARTCHAR braceright
ENCODING 125
SWIDTH 496 0
DWIDTH 8 0
BBX 5 18 2 -3
BITMAP
80
C0
C0
C0
C0
C0
40
60
38
38
60
40
C0
C0
C0
C0
C0
80
ENDCHAR
STARTCHAR asciitilde
ENCODING 126
SWIDTH 615 0
DWIDTH 10 0
BBX 8 4 1 3
BITMAP
20
F9
9F
06
ENDCHAR
STARTCHAR uni00A0
ENCODING 160
SWIDTH 279 0
DWIDTH 4 0
BBX 1 1 0 0
BITMAP
00
ENDCHAR
STARTCHAR exclamdown
ENCODING 161
SWIDTH 349 0
DWIDTH 6 0
BBX 2 13 2 -4
BITMAP
40
C0
C0
00
80
80
C0
C0
C0
C0
C0
C0
C0
ENDCHAR
STARTCHAR cent
ENCODING 162
SWIDTH 613 0
DWIDTH 10 0
BBX 7 15 1 -3
BITMAP
08
08
08
0C
3E
4A
C8
C8
C8
E8
7A
3C
08
08
08
ENDCHAR
STARTCHAR sterling
ENCODING 163
SWIDTH 721 0
DWIDTH 12 0
BBX 9 13 1 0
BITMAP
0F00
1B80
3080
3000
3000
3000
3000
3000
2000
2000
6080
7F80
FF80
ENDCHAR
STARTCHAR currency
ENCODING 164
SWIDTH 898 0
DWIDTH 14 0
BBX 12 12 1 0
BITMAP
8010
47A0
39C0
3060
6060
6060
6060
7060
30C0
3FC0
4020
8010
ENDCHAR
STARTCHAR yen
ENCODING 165
SWIDTH 803 0
DWIDTH 13 0
BBX 13 13 0 0
BITMAP
F8F8
7070
3020
3840
1840
0C80
0D00
0700
0600
0600
0600
0600
0F80
ENDCHAR
STARTCHAR brokenbar
ENCODING 166
SWIDTH 373 0
DWIDTH 6 0
BBX 1 1 3 -3
BITMAP
00
ENDCHAR
STARTCHAR section
ENCODING 167
SWIDTH 675 0
DWIDTH 11 0
BBX 9 14 1 -1
BITMAP
1E00
6300
4500
CC00
CC00
C600
4200
6300
3100
3180
1180
9180
F300
FE00
ENDCHAR
STARTCHAR dieresis
ENCODING 168
SWIDTH 600 0
DWIDTH 10 0
BBX 6 2 2 11
BITMAP
CC
8C
ENDCHAR
STARTCHAR copyright
ENCODING 169
SWIDTH 1009 0
DWIDTH 16 0
BBX 14 13 1 0
BITMAP
07C0
1CF0
3038
6398
45CC
CC4C
CC0C
CC0C
CE4C
6788
7010
3820
1FC0
ENDCHAR
STARTCHAR ordfeminine
ENCODING 170
SWIDTH 541 0
DWIDTH 9 0
BBX 7 6 1 7
BITMAP
7C
8C
0C
FC
CC
FE
ENDCHAR
STARTCHAR guillemotleft
ENCODING 171
SWIDTH 669 0
DWIDTH 11 0
BBX 8 7 1 1
BITMAP
10
31
62
C6
66
33
11
ENDCHAR
STARTCHAR logicalnot
ENCODING 172
SWIDTH 578 0
DWIDTH 9 0
BBX 1 4 7 1
BITMAP
80
80
80
80
ENDCHAR
STARTCHAR softhyphen
ENCODING 173
SWIDTH 513 0
DWIDTH 8 0
BBX 6 2 1 4
BITMAP
7C
F8
ENDCHAR
STARTCHAR registered
ENCODING 174
SWIDTH 1009 0
DWIDTH 16 0
BBX 14 13 1 0
BITMAP
07C0
1CF0
3038
6FD8
44CC
C4CC
C78C
C58C
C4CC
6CE8
7010
3820
1FC0
ENDCHAR
STARTCHAR macron
ENCODING 175
SWIDTH 600 0
DWIDTH 10 0
BBX 6 1 2 12
BITMAP
FC
ENDCHAR
STARTCHAR degree
ENCODING 176
SWIDTH 431 0
DWIDTH 7 0
BBX 5 5 1 9
BITMAP
70
98
88
D0
60
ENDCHAR
STARTCHAR plusminus
ENCODING 177
SWIDTH 527 0
DWIDTH 8 0
BBX 7 10 1 -1
BITMAP
10
10
10
10
10
10
10
10
00
FE
ENDCHAR
STARTCHAR twosuperior
ENCODING 178
SWIDTH 491 0
DWIDTH 8 0
BBX 6 6 1 7
BITMAP
78
98
08
10
24
FC
ENDCHAR
STARTCHAR threesuperior
ENCODING 179
SWIDTH 467 0
DWIDTH 7 0
BBX 5 9 1 4
BITMAP
F0
18
10
30
38
08
08
10
C0
ENDCHAR
STARTCHAR acute
ENCODING 180
SWIDTH 380 0
DWIDTH 6 0
BBX 4 3 2 11
BITMAP
70
C0
80
ENDCHAR
STARTCHAR uni00B5
ENCODING 181
SWIDTH 696 0
DWIDTH 11 0
BBX 9 13 1 -4
BITMAP
2100
E300
6300
6300
6300
6300
6300
7F80
7B00
6000
6000
7000
6000
ENDCHAR
STARTCHAR paragraph
ENCODING 182
SWIDTH 832 0
DWIDTH 13 0
BBX 11 17 1 -4
BITMAP
1E60
7E60
FE40
FE40
FE40
FE40
FE40
7E40
0040
0040
0040
0040
0040
0040
0040
0240
0660
ENDCHAR
STARTCHAR periodcentered
ENCODING 183
SWIDTH 339 0
DWIDTH 5 0
BBX 3 3 1 3
BITMAP
40
E0
60
ENDCHAR
STARTCHAR cedilla
ENCODING 184
SWIDTH 600 0
DWIDTH 10 0
BBX 3 5 4 -4
BITMAP
20
40
40
60
C0
ENDCHAR
STARTCHAR onesuperior
ENCODING 185
SWIDTH 427 0
DWIDTH 7 0
BBX 4 6 1 7
BITMAP
F0
20
20
20
20
70
ENDCHAR
STARTCHAR ordmasculine
ENCODING 186
SWIDTH 591 0
DWIDTH 9 0
BBX 7 6 1 7
BITMAP
3C
46
C6
C2
C6
7C
ENDCHAR
STARTCHAR guillemotright
ENCODING 187
SWIDTH 669 0
DWIDTH 11 0
BBX 8 7 2 1
BITMAP
10
8C
CE
67
66
CC
88
ENDCHAR
STARTCHAR onequarter
ENCODING 188
SWIDTH 1044 0
DWIDTH 17 0
BBX 15 19 1 -3
BITMAP
0008
0000
0010
F020
2020
2040
2040
2080
7080
0100
0100
0208
0018
0428
0048
0888
01FE
1008
0008
ENDCHAR
STARTCHAR onehalf
ENCODING 189
SWIDTH 1126 0
DWIDTH 18 0
BBX 16 18 1 -2
BITMAP
0008
0000
0010
F020
2020
2040
2040
2080
7080
0100
0100
021E
0023
0402
0004
0809
003F
1000
ENDCHAR
STARTCHAR threequarters
ENCODING 190
SWIDTH 1084 0
DWIDTH 17 0
BBX 16 20 1 -4
BITMAP
0004
0008
0000
F010
1800
1020
3000
3840
0880
0880
1100
C10C
021C
023C
046C
04CC
08FF
000C
100C
0008
ENDCHAR
STARTCHAR questiondown
ENCODING 191
SWIDTH 404 0
DWIDTH 6 0
BBX 6 13 0 -4
BITMAP
10
38
30
00
00
38
18
10
20
C0
C0
E0
7C
ENDCHAR
STARTCHAR Agrave
ENCODING 192
SWIDTH 870 0
DWIDTH 14 0
BBX 14 18 0 0
BITMAP
0E00
0600
0100
0000
0000
0100
0300
0580
0580
0980
08C0
00C0
1060
1060
2070
2030
6030
F87C
ENDCHAR
STARTCHAR Aacute
ENCODING 193
SWIDTH 870 0
DWIDTH 14 0
BBX 14 18 0 0
BITMAP
01C0
0180
0200
0000
0000
0100
0300
0580
0580
0980
08C0
00C0
1060
1060
2070
2030
6030
F87C
ENDCHAR
STARTCHAR Acircumflex
ENCODING 194
SWIDTH 870 0
DWIDTH 14 0
BBX 14 18 0 0
BITMAP
0300
0580
18C0
0000
0000
0100
0300
0580
0580
0980
08C0
00C0
1060
1060
2070
2030
6030
F87C
ENDCHAR
STARTCHAR Atilde
ENCODING 195
SWIDTH 870 0
DWIDTH 14 0
BBX 14 18 0 0
BITMAP
0600
0FC0
0100
0000
0000
0100
0300
0580
0580
0980
08C0
00C0
1060
1060
2070
2030
6030
F87C
ENDCHAR
STARTCHAR Adieresis
ENCODING 196
SWIDTH 870 0
DWIDTH 14 0
BBX 14 18 0 0
BITMAP
0840
1CE0
0840
0000
0000
0100
0300
0580
0580
0980
08C0
00C0
1060
1060
2070
2030
6030
F87C
ENDCHAR
STARTCHAR Aring
ENCODING 197
SWIDTH 870 0
DWIDTH 14 0
BBX 14 18 0 0
BITMAP
0780
0480
0480
0000
0000
0100
0300
0580
0580
0980
08C0
00C0
1060
1060
2070
2030
6030
F87C
ENDCHAR
STARTCHAR AE
ENCODING 198
SWIDTH 1100 0
DWIDTH 18 0
BBX 16 13 0 0
BITMAP
07FF
03C3
03C3
03C1
05C0
01C8
0FF8
11C8
11C8
21C1
21C1
41C3
FBFF
ENDCHAR
STARTCHAR Ccedilla
ENCODING 199
SWIDTH 820 0
DWIDTH 13 0
BBX 11 17 1 -4
BITMAP
07C0
1DE0
3060
6020
6000
C000
C000
C000
E000
6000
7020
38C0
1F80
0200
0200
0300
0600
ENDCHAR
STARTCHAR Egrave
ENCODING 200
SWIDTH 814 0
DWIDTH 13 0
BBX 10 18 1 0
BITMAP
1800
0C00
0400
0000
0000
FFC0
60C0
6040
6040
6100
6300
7F00
6300
6100
6000
6040
60C0
FFC0
ENDCHAR
STARTCHAR Eacute
ENCODING 201
SWIDTH 814 0
DWIDTH 13 0
BBX 10 18 1 0
BITMAP
0380
0600
0400
0000
0000
FFC0
60C0
6040
6040
6100
6300
7F00
6300
6100
6000
6040
60C0
FFC0
ENDCHAR
STARTCHAR Ecircumflex
ENCODING 202
SWIDTH 814 0
DWIDTH 13 0
BBX 10 18 1 0
BITMAP
0400
1F00
2380
0000
0000
FFC0
60C0
6040
6040
6100
6300
7F00
6300
6100
6000
6040
60C0
FFC0
ENDCHAR
STARTCHAR Edieresis
ENCODING 203
SWIDTH 814 0
DWIDTH 13 0
BBX 10 18 1 0
BITMAP
1080
3180
3180
0000
0000
FFC0
60C0
6040
6040
6100
6300
7F00
6300
6100
6000
6040
60C0
FFC0
ENDCHAR
STARTCHAR Igrave
ENCODING 204
SWIDTH 434 0
DWIDTH 7 0
BBX 6 18 0 0
BITMAP
E0
30
10
00
00
7C
38
30
30
30
30
30
30
30
30
30
30
7C
ENDCHAR
STARTCHAR Iacute
ENCODING 205
SWIDTH 434 0
DWIDTH 7 0
BBX 5 18 1 0
BITMAP
18
30
20
00
00
F8
70
60
60
60
60
60
60
60
60
60
60
F8
ENDCHAR
STARTCHAR Icircumflex
ENCODING 206
SWIDTH 434 0
DWIDTH 7 0
BBX 7 18 0 0
BITMAP
10
7C
8E
00
00
7C
38
30
30
30
30
30
30
30
30
30
30
7C
ENDCHAR
STARTCHAR Idieresis
ENCODING 207
SWIDTH 434 0
DWIDTH 7 0
BBX 7 18 0 0
BITMAP
44
C6
C4
00
00
7C
38
30
30
30
30
30
30
30
30
30
30
7C
ENDCHAR
STARTCHAR Eth
ENCODING 208
SWIDTH 889 0
DWIDTH 14 0
BBX 12 13 1 0
BITMAP
FF00
71C0
60E0
6070
6030
6030
6030
6030
6030
6060
6060
60C0
FF00
ENDCHAR
STARTCHAR Ntilde
ENCODING 209
SWIDTH 874 0
DWIDTH 14 0
BBX 12 18 1 0
BITMAP
0C00
1F80
0200
0000
0000
E070
6070
7020
7820
5C20
4E20
4620
4320
43A0
41E0
40E0
4060
F020
ENDCHAR
STARTCHAR Ograve
ENCODING 210
SWIDTH 929 0
DWIDTH 15 0
BBX 13 18 1 0
BITMAP
1C00
0600
0200
0000
0000
0780
1DE0
3070
6030
6038
C038
C018
C018
E030
6030
7020
3840
1F80
ENDCHAR
STARTCHAR Oacute
ENCODING 211
SWIDTH 929 0
DWIDTH 15 0
BBX 13 18 1 0
BITMAP
0180
0300
0200
0000
0000
0780
1DE0
3070
6030
6038
C038
C018
C018
E030
6030
7020
3840
1F80
ENDCHAR
STARTCHAR Ocircumflex
ENCODING 212
SWIDTH 929 0
DWIDTH 15 0
BBX 13 18 1 0
BITMAP
0600
0B80
11C0
0000
0000
0780
1DE0
3070
6030
6038
C038
C018
C018
E030
6030
7020
3840
1F80
ENDCHAR
STARTCHAR Otilde
ENCODING 213
SWIDTH 929 0
DWIDTH 15 0
BBX 13 18 1 0
BITMAP
0440
1F80
0100
0000
0000
0780
1DE0
3070
6030
6038
C038
C018
C018
E030
6030
7020
3840
1F80
ENDCHAR
STARTCHAR Odieresis
ENCODING 214
SWIDTH 929 0
DWIDTH 15 0
BBX 13 18 1 0
BITMAP
0840
18C0
18C0
0000
0000
0780
1DE0
3070
6030
6038
C038
C018
C018
E030
6030
7020
3840
1F80
ENDCHAR
STARTCHAR multiply
ENCODING 215
SWIDTH 509 0
DWIDTH 8 0
BBX 6 6 1 2
BITMAP
84
48
30
30
48
84
ENDCHAR
STARTCHAR Oslash
ENCODING 216
SWIDTH 929 0
DWIDTH 15 0
BBX 13 16 1 -1
BITMAP
0010
0020
0780
1DE0
30F0
60B0
6138
C138
C218
C018
E430
6830
7820
3840
1F80
2000
ENDCHAR
STARTCHAR Ugrave
ENCODING 217
SWIDTH 898 0
DWIDTH 14 0
BBX 13 18 1 0
BITMAP
1C00
0600
0200
0000
0000
F878
7030
6020
6020
6020
6020
6020
6020
6020
7020
3020
3840
1F80
ENDCHAR
STARTCHAR Uacute
ENCODING 218
SWIDTH 898 0
DWIDTH 14 0
BBX 13 18 1 0
BITMAP
0180
0300
0200
0000
0000
F878
7030
6020
6020
6020
6020
6020
6020
6020
7020
3020
3840
1F80
ENDCHAR
STARTCHAR Ucircumflex
ENCODING 219
SWIDTH 898 0
DWIDTH 14 0
BBX 13 18 1 0
BITMAP
0600
0B80
11C0
0000
0000
F878
7030
6020
6020
6020
6020
6020
6020
6020
7020
3020
3840
1F80
ENDCHAR
STARTCHAR Udieresis
ENCODING 220
SWIDTH 898 0
DWIDTH 14 0
BBX 13 17 1 0
BITMAP
18C0
18C0
0000
0000
F878
7030
6020
6020
6020
6020
6020
6020
6020
7020
3020
3840
1F80
ENDCHAR
STARTCHAR Yacute
ENCODING 221
SWIDTH 803 0
DWIDTH 13 0
BBX 13 18 0 0
BITMAP
0180
0300
0200
0000
0000
F8F8
7070
3020
3840
1840
0C80
0D00
0700
0600
0600
0600
0600
0F80
ENDCHAR
STARTCHAR Thorn
ENCODING 222
SWIDTH 779 0
DWIDTH 12 0
BBX 11 13 1 0
BITMAP
F800
7000
6000
7F00
71C0
60C0
60E0
60C0
6080
6F00
6000
6000
F800
ENDCHAR
STARTCHAR germandbls
ENCODING 223
SWIDTH 779 0
DWIDTH 12 0
BBX 11 14 0 0
BITMAP
0700
19C0
10C0
30C0
3080
3100
F300
3300
3380
31E0
3060
3060
3260
73C0
ENDCHAR
STARTCHAR agrave
ENCODING 224
SWIDTH 621 0
DWIDTH 10 0
BBX 9 14 1 0
BITMAP
6000
3000
1800
0000
0000
3C00
C600
0600
0600
7E00
C600
C600
CE00
7780
ENDCHAR
STARTCHAR aacute
ENCODING 225
SWIDTH 621 0
DWIDTH 10 0
BBX 9 14 1 0
BITMAP
0E00
0C00
1000
0000
0000
3C00
C600
0600
0600
7E00
C600
C600
CE00
7780
ENDCHAR
STARTCHAR acircumflex
ENCODING 226
SWIDTH 621 0
DWIDTH 10 0
BBX 9 14 1 0
BITMAP
1800
3C00
CE00
0000
0000
3C00
C600
0600
0600
7E00
C600
C600
CE00
7780
ENDCHAR
STARTCHAR atilde
ENCODING 227
SWIDTH 621 0
DWIDTH 10 0
BBX 9 14 1 0
BITMAP
3200
7C00
8800
0000
0000
3C00
C600
0600
0600
7E00
C600
C600
CE00
7780
ENDCHAR
STARTCHAR adieresis
ENCODING 228
SWIDTH 621 0
DWIDTH 10 0
BBX 9 14 1 0
BITMAP
4400
6600
C600
0000
0000
3C00
C600
0600
0600
7E00
C600
C600
CE00
7780
ENDCHAR
STARTCHAR aring
ENCODING 229
SWIDTH 621 0
DWIDTH 10 0
BBX 9 14 1 0
BITMAP
3C00
2400
6400
1800
0000
3C00
C600
0600
0600
7E00
C600
C600
CE00
7780
ENDCHAR
STARTCHAR ae
ENCODING 230
SWIDTH 916 0
DWIDTH 15 0
BBX 13 9 1 0
BITMAP
3860
7FF0
8630
0630
07F8
4600
C700
CF30
71E0
ENDCHAR
STARTCHAR ccedilla
ENCODING 231
SWIDTH 613 0
DWIDTH 10 0
BBX 7 13 1 -4
BITMAP
0C
3E
42
C0
C0
C0
E0
72
3C
08
08
0C
18
ENDCHAR
STARTCHAR egrave
ENCODING 232
SWIDTH 643 0
DWIDTH 10 0
BBX 8 14 1 0
BITMAP
70
30
08
00
00
1E
26
43
FF
FF
C0
E1
62
3C
ENDCHAR
STARTCHAR eacute
ENCODING 233
SWIDTH 643 0
DWIDTH 10 0
BBX 8 14 1 0
BITMAP
0E
0C
18
00
00
1E
26
43
FF
FF
C0
E1
62
3C
ENDCHAR
STARTCHAR ecircumflex
ENCODING 234
SWIDTH 643 0
DWIDTH 10 0
BBX 8 14 1 0
BITMAP
18
2C
46
01
00
1E
26
43
FF
FF
C0
E1
62
3C
ENDCHAR
STARTCHAR edieresis
ENCODING 235
SWIDTH 643 0
DWIDTH 10 0
BBX 8 14 1 0
BITMAP
42
66
66
00
00
1E
26
43
FF
FF
C0
E1
62
3C
ENDCHAR
STARTCHAR igrave
ENCODING 236
SWIDTH 389 0
DWIDTH 6 0
BBX 6 14 0 0
BITMAP
E0
60
30
00
00
10
70
30
30
30
30
30
30
7C
ENDCHAR
STARTCHAR iacute
ENCODING 237
SWIDTH 389 0
DWIDTH 6 0
BBX 5 14 1 0
BITMAP
38
30
60
00
00
20
E0
60
60
60
60
60
60
F8
ENDCHAR
STARTCHAR icircumflex
ENCODING 238
SWIDTH 389 0
DWIDTH 6 0
BBX 6 14 0 0
BITMAP
30
58
8C
00
00
10
70
30
30
30
30
30
30
7C
ENDCHAR
STARTCHAR idieresis
ENCODING 239
SWIDTH 389 0
DWIDTH 6 0
BBX 6 14 0 0
BITMAP
04
CC
CC
00
00
10
70
30
30
30
30
30
30
7C
ENDCHAR
STARTCHAR eth
ENCODING 240
SWIDTH 671 0
DWIDTH 11 0
BBX 9 14 1 0
BITMAP
E100
7C00
1C00
2E00
0600
0F00
3F00
6380
C180
C180
C100
E300
7200
3C00
ENDCHAR
STARTCHAR ntilde
ENCODING 241
SWIDTH 719 0
DWIDTH 12 0
BBX 10 14 1 0
BITMAP
1100
3E00
0400
0000
0000
2600
EF00
7180
6180
6180
6180
6180
6180
F9C0
ENDCHAR
STARTCHAR ograve
ENCODING 242
SWIDTH 671 0
DWIDTH 11 0
BBX 9 14 1 0
BITMAP
7000
1800
0800
0000
0000
0C00
3F00
6300
C380
C380
C100
E300
7200
3C00
ENDCHAR
STARTCHAR oacute
ENCODING 243
SWIDTH 671 0
DWIDTH 11 0
BBX 9 14 1 0
BITMAP
0600
0C00
0800
0000
0000
0C00
3F00
6300
C380
C380
C100
E300
7200
3C00
ENDCHAR
STARTCHAR ocircumflex
ENCODING 244
SWIDTH 671 0
DWIDTH 11 0
BBX 9 14 1 0
BITMAP
0800
3C00
4700
0000
0000
0C00
3F00
6300
C380
C380
C100
E300
7200
3C00
ENDCHAR
STARTCHAR otilde
ENCODING 245
SWIDTH 671 0
DWIDTH 11 0
BBX 9 14 1 0
BITMAP
1000
7E00
0400
0000
0000
0C00
3F00
6300
C380
C380
C100
E300
7200
3C00
ENDCHAR
STARTCHAR odieresis
ENCODING 246
SWIDTH 671 0
DWIDTH 11 0
BBX 9 14 1 0
BITMAP
2200
6700
6200
0000
0000
0C00
3F00
6300
C380
C380
C100
E300
7200
3C00
ENDCHAR
STARTCHAR divide
ENCODING 247
SWIDTH 527 0
DWIDTH 8 0
BBX 2 8 3 1
BITMAP
C0
C0
00
00
00
00
C0
C0
ENDCHAR
STARTCHAR oslash
ENCODING 248
SWIDTH 671 0
DWIDTH 11 0
BBX 9 11 1 -1
BITMAP
0100
0E00
3F00
6700
C300
CB80
C300
F300
7200
3C00
4000
ENDCHAR
STARTCHAR ugrave
ENCODING 249
SWIDTH 699 0
DWIDTH 11 0
BBX 10 14 1 0
BITMAP
3000
1800
0800
0000
0000
2100
E700
E300
6300
6300
6300
6300
7F00
3BC0
ENDCHAR
STARTCHAR uacute
ENCODING 250
SWIDTH 699 0
DWIDTH 11 0
BBX 10 14 1 0
BITMAP
0700
0E00
0800
0000
0000
2100
E700
E300
6300
6300
6300
6300
7F00
3BC0
ENDCHAR
STARTCHAR ucircumflex
ENCODING 251
SWIDTH 699 0
DWIDTH 11 0
BBX 10 14 1 0
BITMAP
0800
1E00
6700
0000
0000
2100
E700
E300
6300
6300
6300
6300
7F00
3BC0
ENDCHAR
STARTCHAR udieresis
ENCODING 252
SWIDTH 699 0
DWIDTH 11 0
BBX 10 14 1 0
BITMAP
2000
7300
2300
0000
0000
2100
E700
E300
6300
6300
6300
6300
7F00
3BC0
ENDCHAR
STARTCHAR yacute
ENCODING 253
SWIDTH 620 0
DWIDTH 10 0
BBX 9 18 0 -4
BITMAP
0700
0600
0800
0000
0000
2380
E380
6180
3100
3100
1A00
1A00
1C00
0C00
1800
1000
2000
2000
ENDCHAR
STARTCHAR thorn
ENCODING 254
SWIDTH 714 0
DWIDTH 11 0
BBX 9 18 1 -4
BITMAP
6000
E000
6000
6000
6000
6600
6F00
6180
6180
6180
6180
6180
7300
7E00
6000
6000
6000
F800
ENDCHAR
STARTCHAR ydieresis
ENCODING 255
SWIDTH 620 0
DWIDTH 10 0
BBX 9 17 0 -4
BITMAP
3300
2300
0000
0000
2380
E380
6180
3100
3100
1A00
1A00
1C00
0C00
1800
1000
2000
2000
ENDCHAR
STARTCHAR Amacron
ENCODING 256
SWIDTH 870 0
DWIDTH 14 0
BBX 14 17 0 0
BITMAP
1FE0
0000
0000
0000
0100
0300
0580
0580
0980
08C0
00C0
1060
1060
2070
2030
6030
F87C
ENDCHAR
STARTCHAR amacron
ENCODING 257
SWIDTH 621 0
DWIDTH 10 0
BBX 9 13 1 0
BITMAP
FE00
0000
0000
0000
3C00
C600
0600
0600
7E00
C600
C600
CE00
7780
ENDCHAR
STARTCHAR Abreve
ENCODING 258
SWIDTH 870 0
DWIDTH 14 0
BBX 14 18 0 0
BITMAP
0440
0C80
0700
0000
0000
0100
0300
0580
0580
0980
08C0
00C0
1060
1060
2070
2030
6030
F87C
ENDCHAR
STARTCHAR abreve
ENCODING 259
SWIDTH 621 0
DWIDTH 10 0
BBX 9 14 1 0
BITMAP
4200
6400
3800
0000
0000
3C00
C600
0600
0600
7E00
C600
C600
CE00
7780
ENDCHAR
STARTCHAR Aogonek
ENCODING 260
SWIDTH 870 0
DWIDTH 14 0
BBX 14 17 0 -4
BITMAP
0100
0300
0580
0580
0980
08C0
00C0
1060
1060
2070
2030
6030
F87C
0008
0010
0038
0018
ENDCHAR
STARTCHAR aogonek
ENCODING 261
SWIDTH 621 0
DWIDTH 10 0
BBX 9 13 1 -4
BITMAP
3C00
C600
0600
0600
7E00
C600
C600
CE00
7780
0300
0600
0700
0600
ENDCHAR
STARTCHAR Cacute
ENCODING 262
SWIDTH 820 0
DWIDTH 13 0
BBX 11 18 1 0
BITMAP
0380
0300
0400
0000
0000
07C0
1DE0
3060
6020
6000
C000
C000
C000
E000
6000
7020
38C0
1F80
ENDCHAR
STARTCHAR cacute
ENCODING 263
SWIDTH 613 0
DWIDTH 10 0
BBX 7 14 1 0
BITMAP
0E
0C
18
00
00
0C
3E
42
C0
C0
C0
E0
72
3C
ENDCHAR
STARTCHAR Cdotaccent
ENCODING 266
SWIDTH 820 0
DWIDTH 13 0
BBX 11 18 1 0
BITMAP
0600
0600
0600
0000
0000
07C0
1DE0
3060
6020
6000
C000
C000
C000
E000
6000
7020
38C0
1F80
ENDCHAR
STARTCHAR cdotaccent
ENCODING 267
SWIDTH 613 0
DWIDTH 10 0
BBX 7 14 1 0
BITMAP
08
18
18
00
00
0C
3E
42
C0
C0
C0
E0
72
3C
ENDCHAR
STARTCHAR Ccaron
ENCODING 268
SWIDTH 820 0
DWIDTH 13 0
BBX 11 18 1 0
BITMAP
1880
0D00
0600
0000
0000
07C0
1DE0
3060
6020
6000
C000
C000
C000
E000
6000
7020
38C0
1F80
ENDCHAR
STARTCHAR ccaron
ENCODING 269
SWIDTH 613 0
DWIDTH 10 0
BBX 8 14 1 0
BITMAP
63
34
18
00
00
0C
3E
42
C0
C0
C0
E0
72
3C
ENDCHAR
STARTCHAR Dcaron
ENCODING 270
SWIDTH 889 0
DWIDTH 14 0
BBX 12 18 1 0
BITMAP
3880
1F00
0400
0000
0000
FF00
71C0
60E0
6070
6030
6030
6030
6030
6030
6060
6060
60C0
FF00
ENDCHAR
STARTCHAR dcaron
ENCODING 271
SWIDTH 705 0
DWIDTH 11 0
BBX 12 14 1 0
BITMAP
0130
0730
0330
0120
0120
0D00
3F00
6300
C300
C300
C300
E300
6300
3FC0
ENDCHAR
STARTCHAR Dcroat
ENCODING 272
SWIDTH 889 0
DWIDTH 14 0
BBX 12 13 1 0
BITMAP
FF00
71C0
60E0
6070
6030
6030
6030
6030
6030
6060
6060
60C0
FF00
ENDCHAR
STARTCHAR dcroat
ENCODING 273
SWIDTH 705 0
DWIDTH 11 0
BBX 10 14 1 0
BITMAP
0100
0100
0100
0100
0100
0D00
3F00
6300
C300
C300
C300
E300
6300
3FC0
ENDCHAR
STARTCHAR Emacron
ENCODING 274
SWIDTH 814 0
DWIDTH 13 0
BBX 10 17 1 0
BITMAP
3F80
0000
0000
0000
FFC0
60C0
6040
6040
6100
6300
7F00
6300
6100
6000
6040
60C0
FFC0
ENDCHAR
STARTCHAR emacron
ENCODING 275
SWIDTH 643 0
DWIDTH 10 0
BBX 8 13 1 0
BITMAP
7E
00
00
00
1E
26
43
FF
FF
C0
E1
62
3C
ENDCHAR
STARTCHAR Edotaccent
ENCODING 278
SWIDTH 814 0
DWIDTH 13 0
BBX 10 18 1 0
BITMAP
0400
0E00
0C00
0000
0000
FFC0
60C0
6040
6040
6100
6300
7F00
6300
6100
6000
6040
60C0
FFC0
ENDCHAR
STARTCHAR edotaccent
ENCODING 279
SWIDTH 643 0
DWIDTH 10 0
BBX 8 14 1 0
BITMAP
08
18
18
00
00
1E
26
43
FF
FF
C0
E1
62
3C
ENDCHAR
STARTCHAR Eogonek
ENCODING 280
SWIDTH 814 0
DWIDTH 13 0
BBX 10 17 1 -4
BITMAP
FFC0
60C0
6040
6040
6100
6300
7F00
6300
6100
6000
6040
60C0
FFC0
0040
0180
0180
0180
ENDCHAR
STARTCHAR eogonek
ENCODING 281
SWIDTH 643 0
DWIDTH 10 0
BBX 8 13 1 -4
BITMAP
1E
26
43
FF
FF
C0
E1
62
3C
08
10
18
10
ENDCHAR
STARTCHAR Ecaron
ENCODING 282
SWIDTH 814 0
DWIDTH 13 0
BBX 10 18 1 0
BITMAP
3880
1F00
0400
0000
0000
FFC0
60C0
6040
6040
6100
6300
7F00
6300
6100
6000
6040
60C0
FFC0
ENDCHAR
STARTCHAR ecaron
ENCODING 283
SWIDTH 643 0
DWIDTH 10 0
BBX 8 14 1 0
BITMAP
73
34
18
00
00
1E
26
43
FF
FF
C0
E1
62
3C
ENDCHAR
STARTCHAR Gbreve
ENCODING 286
SWIDTH 910 0
DWIDTH 15 0
BBX 13 18 1 0
BITMAP
0840
0C80
0700
0000
0000
07C0
1DE0
3060
6020
6000
C000
C1F8
C0F0
E060
6060
7060
3860
1FC0
ENDCHAR
STARTCHAR gbreve
ENCODING 287
SWIDTH 640 0
DWIDTH 10 0
BBX 9 18 1 -4
BITMAP
0200
6400
3800
0000
0000
1800
7F80
4600
C200
C600
7C00
3000
3000
3C00
0F00
8300
C200
7C00
ENDCHAR
STARTCHAR Gdotaccent
ENCODING 288
SWIDTH 910 0
DWIDTH 15 0
BBX 13 18 1 0
BITMAP
0200
0700
0600
0000
0000
07C0
1DE0
3060
6020
6000
C000
C1F8
C0F0
E060
6060
7060
3860
1FC0
ENDCHAR
STARTCHAR gdotaccent
ENCODING 289
SWIDTH 640 0
DWIDTH 10 0
BBX 9 17 1 -4
BITMAP
1800
1800
0000
0000
1800
7F80
4600
C200
C600
7C00
3000
3000
3C00
0F00
8300
C200
7C00
ENDCHAR
STARTCHAR Gcommaaccent
ENCODING 290
SWIDTH 910 0
DWIDTH 15 0
BBX 13 18 1 -5
BITMAP
07C0
1DE0
3060
6020
6000
C000
C1F8
C0F0
E060
6060
7060
3860
1FC0
0000
0780
0300
0200
0200
ENDCHAR
STARTCHAR gcommaaccent
ENCODING 291
SWIDTH 640 0
DWIDTH 10 0
BBX 9 19 1 -4
BITMAP
0800
1800
1800
3800
0000
0000
1800
7F80
4600
C200
C600
7C00
3000
3000
3C00
0F00
8300
C200
7C00
ENDCHAR
STARTCHAR Hbar
ENCODING 294
SWIDTH 954 0
DWIDTH 15 0
BBX 14 13 1 0
BITMAP
F8F8
7078
6030
603C
6030
6030
7FF0
6030
6030
6030
6030
6030
F8F8
ENDCHAR
STARTCHAR hbar
ENCODING 295
SWIDTH 699 0
DWIDTH 11 0
BBX 10 14 1 0
BITMAP
6000
6000
6000
6000
6000
6600
6F00
7300
6300
6300
6300
6300
6300
F3C0
ENDCHAR
STARTCHAR Imacron
ENCODING 298
SWIDTH 434 0
DWIDTH 7 0
BBX 7 17 0 0
BITMAP
FE
00
00
00
7C
38
30
30
30
30
30
30
30
30
30
30
7C
ENDCHAR
STARTCHAR imacron
ENCODING 299
SWIDTH 389 0
DWIDTH 6 0
BBX 6 13 0 0
BITMAP
FC
00
00
00
10
70
30
30
30
30
30
30
7C
ENDCHAR
STARTCHAR Iogonek
ENCODING 302
SWIDTH 434 0
DWIDTH 7 0
BBX 5 17 1 -4
BITMAP
F8
70
60
60
60
60
60
60
60
60
60
60
F8
10
30
70
30
ENDCHAR
STARTCHAR iogonek
ENCODING 303
SWIDTH 389 0
DWIDTH 6 0
BBX 5 18 1 -4
BITMAP
20
60
60
00
00
20
E0
60
60
60
60
60
60
F8
10
60
70
60
ENDCHAR
STARTCHAR Idotaccent
ENCODING 304
SWIDTH 434 0
DWIDTH 7 0
BBX 5 18 1 0
BITMAP
20
70
60
00
00
F8
70
60
60
60
60
60
60
60
60
60
60
F8
ENDCHAR
STARTCHAR dotlessi
ENCODING 305
SWIDTH 389 0
DWIDTH 6 0
BBX 5 9 1 0
BITMAP
20
E0
60
60
60
60
60
60
F8
ENDCHAR
STARTCHAR IJ
ENCODING 306
SWIDTH 858 0
DWIDTH 14 0
BBX 12 17 1 -4
BITMAP
F9F0
70E0
60C0
60C0
60C0
60C0
60C0
60C0
60C0
60C0
60C0
60C0
F8C0
00C0
00C0
0080
0100
ENDCHAR
STARTCHAR ij
ENCODING 307
SWIDTH 768 0
DWIDTH 12 0
BBX 10 18 1 -4
BITMAP
2080
61C0
6180
0000
0000
2080
E380
6180
6080
6080
6080
6080
6080
F880
0080
0180
0100
0200
ENDCHAR
STARTCHAR Kcommaaccent
ENCODING 310
SWIDTH 860 0
DWIDTH 14 0
BBX 12 17 1 -4
BITMAP
F8F0
70E0
6040
6080
6100
6200
6600
6700
6300
6180
61C0
60E0
F870
0000
0700
0700
0200
ENDCHAR
STARTCHAR kcommaaccent
ENCODING 311
SWIDTH 689 0
DWIDTH 11 0
BBX 10 19 1 -5
BITMAP
6000
E000
6000
6000
6000
6380
6380
6300
6400
6C00
6E00
6600
6300
F3C0
0000
1E00
0C00
0800
0800
ENDCHAR
STARTCHAR Lacute
ENCODING 313
SWIDTH 784 0
DWIDTH 13 0
BBX 10 18 1 0
BITMAP
1C00
3000
2000
0000
0000
F800
7000
6000
6000
6000
6000
6000
6000
6000
6040
6040
60C0
FFC0
ENDCHAR
STARTCHAR lacute
ENCODING 314
SWIDTH 369 0
DWIDTH 6 0
BBX 5 19 1 0
BITMAP
38
30
60
00
00
60
E0
60
60
60
60
60
60
60
60
60
60
60
F0
ENDCHAR
STARTCHAR Lcommaaccent
ENCODING 315
SWIDTH 784 0
DWIDTH 13 0
BBX 10 17 1 -4
BITMAP
F800
7000
6000
6000
6000
6000
6000
6000
6000
6040
6040
60C0
FFC0
0000
0E00
0E00
0400
ENDCHAR
STARTCHAR lcommaaccent
ENCODING 316
SWIDTH 369 0
DWIDTH 6 0
BBX 4 19 1 -5
BITMAP
60
E0
60
60
60
60
60
60
60
60
60
60
60
F0
00
70
60
60
40
ENDCHAR
STARTCHAR Lcaron
ENCODING 317
SWIDTH 784 0
DWIDTH 13 0
BBX 10 13 1 0
BITMAP
F880
7380
6180
6100
6200
6000
6000
6000
6000
6040
6040
60C0
FFC0
ENDCHAR
STARTCHAR lcaron
ENCODING 318
SWIDTH 369 0
DWIDTH 6 0
BBX 7 14 1 0
BITMAP
66
E6
66
64
68
60
60
60
60
60
60
60
60
F0
ENDCHAR
STARTCHAR Ldot
ENCODING 319
SWIDTH 784 0
DWIDTH 13 0
BBX 10 13 1 0
BITMAP
F800
7000
6000
6000
60C0
60C0
6000
6000
6000
6040
6040
60C0
FFC0
ENDCHAR
STARTCHAR ldot
ENCODING 320
SWIDTH 507 0
DWIDTH 8 0
BBX 7 14 1 0
BITMAP
60
E0
60
60
60
60
66
66
64
60
60
60
60
F0
ENDCHAR
STARTCHAR Lslash
ENCODING 321
SWIDTH 784 0
DWIDTH 13 0
BBX 11 13 0 0
BITMAP
7C00
3800
3000
3000
3100
3200
3400
3800
7000
B020
3020
3060
7FE0
ENDCHAR
STARTCHAR lslash
ENCODING 322
SWIDTH 359 0
DWIDTH 6 0
BBX 6 14 0 0
BITMAP
30
70
30
30
34
38
30
70
B0
30
30
30
30
78
ENDCHAR
STARTCHAR Nacute
ENCODING 323
SWIDTH 874 0
DWIDTH 14 0
BBX 12 18 1 0
BITMAP
0380
0300
0400
0000
0000
E070
6070
7020
7820
5C20
4E20
4620
4320
43A0
41E0
40E0
4060
F020
ENDCHAR
STARTCHAR nacute
ENCODING 324
SWIDTH 719 0
DWIDTH 12 0
BBX 10 14 1 0
BITMAP
0700
0C00
0800
0000
0000
2600
EF00
7180
6180
6180
6180
6180
6180
F9C0
ENDCHAR
STARTCHAR Ncommaaccent
ENCODING 325
SWIDTH 874 0
DWIDTH 14 0
BBX 12 18 1 -5
BITMAP
E070
6070
7020
7820
5C20
4E20
4620
4320
43A0
41E0
40E0
4060
F020
0000
0700
0600
0200
0400
ENDCHAR
STARTCHAR ncommaaccent
ENCODING 326
SWIDTH 719 0
DWIDTH 12 0
BBX 10 13 1 -4
BITMAP
2600
EF00
7180
6180
6180
6180
6180
6180
F9C0
0000
0E00
0E00
0400
ENDCHAR
STARTCHAR Ncaron
ENCODING 327
SWIDTH 874 0
DWIDTH 14 0
BBX 12 18 1 0
BITMAP
1880
0D00
0600
0000
0000
E070
6070
7020
7820
5C20
4E20
4620
4320
43A0
41E0
40E0
4060
F020
ENDCHAR
STARTCHAR ncaron
ENCODING 328
SWIDTH 719 0
DWIDTH 12 0
BBX 10 14 1 0
BITMAP
7100
3A00
0C00
0000
0000
2600
EF00
7180
6180
6180
6180
6180
6180
F9C0
ENDCHAR
STARTCHAR Eng
ENCODING 330
SWIDTH 874 0
DWIDTH 14 0
BBX 12 17 1 -4
BITMAP
E070
6070
7020
7820
5C20
4E20
4620
4320
43A0
41E0
40E0
4060
F060
0060
0040
0080
0100
ENDCHAR
STARTCHAR eng
ENCODING 331
SWIDTH 719 0
DWIDTH 12 0
BBX 9 13 1 -4
BITMAP
2600
EF00
7180
6180
6180
6180
6180
6180
F980
0180
0100
0200
0400
ENDCHAR
STARTCHAR Omacron
ENCODING 332
SWIDTH 929 0
DWIDTH 15 0
BBX 13 17 1 0
BITMAP
1FC0
0000
0000
0000
0780
1DE0
3070
6030
6038
C038
C018
C018
E030
6030
7020
3840
1F80
ENDCHAR
STARTCHAR omacron
ENCODING 333
SWIDTH 671 0
DWIDTH 11 0
BBX 9 13 1 0
BITMAP
7F00
0000
0000
0000
0C00
3F00
6300
C380
C380
C100
E300
7200
3C00
ENDCHAR
STARTCHAR Ohungarumlaut
ENCODING 336
SWIDTH 929 0
DWIDTH 15 0
BBX 13 18 1 0
BITMAP
0C60
18C0
1080
0000
0000
0780
1DE0
3070
6030
6038
C038
C018
C018
E030
6030
7020
3840
1F80
ENDCHAR
STARTCHAR ohungarumlaut
ENCODING 337
SWIDTH 671 0
DWIDTH 11 0
BBX 9 14 1 0
BITMAP
3B80
3300
2200
0000
0000
0C00
3F00
6300
C380
C380
C100
E300
7200
3C00
ENDCHAR
STARTCHAR OE
ENCODING 338
SWIDTH 1240 0
DWIDTH 20 0
BBX 17 13 1 0
BITMAP
07FF80
1DC180
30C080
60C080
60C000
C0C400
C0FC00
C0C400
E0C400
60C000
60C080
30C180
1FFF80
ENDCHAR
STARTCHAR oe
ENCODING 339
SWIDTH 972 0
DWIDTH 16 0
BBX 13 9 1 0
BITMAP
0C20
3EF8
4718
C318
C3F8
C300
E300
6798
3DF0
ENDCHAR
STARTCHAR Racute
ENCODING 340
SWIDTH 809 0
DWIDTH 13 0
BBX 12 18 1 0
BITMAP
0700
0600
0C00
0000
0000
FF00
7380
61C0
60C0
60C0
6180
6700
6700
6300
6380
6180
60C0
F8F0
ENDCHAR
STARTCHAR racute
ENCODING 341
SWIDTH 519 0
DWIDTH 8 0
BBX 7 14 1 0
BITMAP
0C
18
10
00
00
24
EE
74
60
60
60
60
60
F8
ENDCHAR
STARTCHAR Rcommaaccent
ENCODING 342
SWIDTH 809 0
DWIDTH 13 0
BBX 12 18 1 -5
BITMAP
FF00
7380
61C0
60C0
60C0
6180
6700
6700
6300
6380
6180
60C0
F8F0
0000
0700
0700
0200
0400
ENDCHAR
STARTCHAR rcommaaccent
ENCODING 343
SWIDTH 519 0
DWIDTH 8 0
BBX 7 13 1 -4
BITMAP
24
EE
74
60
60
60
60
60
F8
00
70
70
20
ENDCHAR
STARTCHAR Rcaron
ENCODING 344
SWIDTH 809 0
DWIDTH 13 0
BBX 12 18 1 0
BITMAP
3980
1A00
0C00
0000
0000
FF00
7380
61C0
60C0
60C0
6180
6700
6700
6300
6380
6180
60C0
F8F0
ENDCHAR
STARTCHAR rcaron
ENCODING 345
SWIDTH 519 0
DWIDTH 8 0
BBX 7 14 1 0
BITMAP
E2
7C
30
00
00
24
EE
74
60
60
60
60
60
F8
ENDCHAR
STARTCHAR Sacute
ENCODING 346
SWIDTH 700 0
DWIDTH 11 0
BBX 9 18 1 0
BITMAP
0600
0C00
0800
0000
0000
1E00
2380
4180
C080
E000
7800
3C00
0F00
0380
8180
C180
E100
FE00
ENDCHAR
STARTCHAR sacute
ENCODING 347
SWIDTH 559 0
DWIDTH 9 0
BBX 7 14 1 0
BITMAP
0E
18
10
00
00
3C
46
C2
70
3C
1E
86
C4
78
ENDCHAR
STARTCHAR Scedilla
ENCODING 350
SWIDTH 700 0
DWIDTH 11 0
BBX 9 17 1 -4
BITMAP
1E00
2380
4180
C080
E000
7800
3C00
0F00
0380
8180
C180
E100
FE00
0800
0C00
0400
0C00
ENDCHAR
STARTCHAR scedilla
ENCODING 351
SWIDTH 559 0
DWIDTH 9 0
BBX 7 13 1 -4
BITMAP
3C
46
C2
70
3C
1E
86
C4
78
10
18
08
38
ENDCHAR
STARTCHAR Scaron
ENCODING 352
SWIDTH 700 0
DWIDTH 11 0
BBX 9 18 1 0
BITMAP
7100
3E00
0800
0000
0000
1E00
2380
4180
C080
E000
7800
3C00
0F00
0380
8180
C180
E100
FE00
ENDCHAR
STARTCHAR scaron
ENCODING 353
SWIDTH 559 0
DWIDTH 9 0
BBX 7 14 1 0
BITMAP
E2
74
18
00
00
3C
46
C2
70
3C
1E
86
C4
78
ENDCHAR
STARTCHAR uni0162
ENCODING 354
SWIDTH 832 0
DWIDTH 13 0
BBX 11 17 1 -4
BITMAP
FFE0
C660
C620
8620
0600
0600
0600
0600
0600
0600
0600
0E00
1F00
0400
0600
0200
0600
ENDCHAR
STARTCHAR uni0163
ENCODING 355
SWIDTH 456 0
DWIDTH 7 0
BBX 7 16 0 -4
BITMAP
10
30
70
70
FE
30
30
30
30
30
32
1C
08
1C
0C
18
ENDCHAR
STARTCHAR Tcaron
ENCODING 356
SWIDTH 832 0
DWIDTH 13 0
BBX 11 18 1 0
BITMAP
3880
0D00
0600
0000
0000
FFE0
C660
C620
8620
0600
0600
0600
0600
0600
0600
0600
0E00
1F00
ENDCHAR
STARTCHAR tcaron
ENCODING 357
SWIDTH 456 0
DWIDTH 7 0
BBX 8 14 0 0
BITMAP
03
07
13
32
74
70
FE
30
30
30
30
30
32
1C
ENDCHAR
STARTCHAR Tbar
ENCODING 358
SWIDTH 832 0
DWIDTH 13 0
BBX 11 13 1 0
BITMAP
FFE0
C660
C620
8620
0600
0600
3FC0
0600
0600
0600
0600
0E00
1F00
ENDCHAR
STARTCHAR tbar
ENCODING 359
SWIDTH 456 0
DWIDTH 7 0
BBX 7 12 0 0
BITMAP
10
30
70
70
FE
30
30
30
30
30
32
1C
ENDCHAR
STARTCHAR Umacron
ENCODING 362
SWIDTH 898 0
DWIDTH 14 0
BBX 13 17 1 0
BITMAP
1FC0
0000
0000
0000
F878
7030
6020
6020
6020
6020
6020
6020
6020
7020
3020
3840
1F80
ENDCHAR
STARTCHAR umacron
ENCODING 363
SWIDTH 699 0
DWIDTH 11 0
BBX 10 13 1 0
BITMAP
7F00
0000
0000
0000
2100
E700
E300
6300
6300
6300
6300
7F00
3BC0
ENDCHAR
STARTCHAR Uring
ENCODING 366
SWIDTH 898 0
DWIDTH 14 0
BBX 13 18 1 0
BITMAP
0700
0880
0D00
0000
0000
F878
7030
6020
6020
6020
6020
6020
6020
6020
7020
3020
3840
1F80
ENDCHAR
STARTCHAR uring
ENCODING 367
SWIDTH 699 0
DWIDTH 11 0
BBX 10 14 1 0
BITMAP
1E00
2200
3200
0800
0000
2100
E700
E300
6300
6300
6300
6300
7F00
3BC0
ENDCHAR
STARTCHAR Uhungarumlaut
ENCODING 368
SWIDTH 898 0
DWIDTH 14 0
BBX 13 18 1 0
BITMAP
0C60
18C0
1080
0000
0000
F878
7030
6020
6020
6020
6020
6020
6020
6020
7020
3020
3840
1F80
ENDCHAR
STARTCHAR uhungarumlaut
ENCODING 369
SWIDTH 699 0
DWIDTH 11 0
BBX 10 14 1 0
BITMAP
1980
3300
2200
0000
0000
2100
E700
E300
6300
6300
6300
6300
7F00
3BC0
ENDCHAR
STARTCHAR Uogonek
ENCODING 370
SWIDTH 898 0
DWIDTH 14 0
BBX 13 17 1 -4
BITMAP
F878
7030
6020
6020
6020
6020
6020
6020
6020
7020
3020
3840
1F80
0100
0300
0300
0300
ENDCHAR
STARTCHAR uogonek
ENCODING 371
SWIDTH 699 0
DWIDTH 11 0
BBX 10 13 1 -4
BITMAP
2100
E700
E300
6300
6300
6300
6300
7F00
3BC0
0080
0300
0300
0300
ENDCHAR
STARTCHAR Wcircumflex
ENCODING 372
SWIDTH 1195 0
DWIDTH 19 0
BBX 19 18 0 0
BITMAP
006000
00B000
011800
000000
000000
F9F3E0
70E1C0
306040
306080
306080
187000
183100
0CB100
0C9A00
0D1A00
071A00
070C00
060C00
ENDCHAR
STARTCHAR wcircumflex
ENCODING 373
SWIDTH 899 0
DWIDTH 14 0
BBX 14 14 0 0
BITMAP
0300
0580
08C0
0000
0000
213C
E73C
6308
3188
3190
1AD0
1AC0
1CE0
0C40
ENDCHAR
STARTCHAR Ycircumflex
ENCODING 374
SWIDTH 803 0
DWIDTH 13 0
BBX 13 18 0 0
BITMAP
0600
0B80
11C0
0000
0000
F8F8
7070
3020
3840
1840
0C80
0D00
0700
0600
0600
0600
0600
0F80
ENDCHAR
STARTCHAR ycircumflex
ENCODING 375
SWIDTH 620 0
DWIDTH 10 0
BBX 9 18 0 -4
BITMAP
0C00
1E00
6700
0000
0000
2380
E380
6180
3100
3100
1A00
1A00
1C00
0C00
1800
1000
2000
2000
ENDCHAR
STARTCHAR Ydieresis
ENCODING 376
SWIDTH 803 0
DWIDTH 13 0
BBX 13 18 0 0
BITMAP
0800
18C0
18C0
0000
0000
F8F8
7070
3020
3840
1840
0C80
0D00
0700
0600
0600
0600
0600
0F80
ENDCHAR
STARTCHAR Zacute
ENCODING 377
SWIDTH 790 0
DWIDTH 13 0
BBX 10 18 1 0
BITMAP
0300
0600
0400
0000
0000
7FC0
60C0
4180
4380
0300
0600
0E00
0C00
1800
3040
7040
60C0
FFC0
ENDCHAR
STARTCHAR zacute
ENCODING 378
SWIDTH 611 0
DWIDTH 10 0
BBX 8 14 1 0
BITMAP
0E
0C
18
00
00
FF
FE
84
04
08
10
20
7E
FE
ENDCHAR
STARTCHAR Zdotaccent
ENCODING 379
SWIDTH 790 0
DWIDTH 13 0
BBX 10 18 1 0
BITMAP
0400
0E00
0C00
0000
0000
7FC0
60C0
4180
4380
0300
0600
0E00
0C00
1800
3040
7040
60C0
FFC0
ENDCHAR
STARTCHAR zdotaccent
ENCODING 380
SWIDTH 611 0
DWIDTH 10 0
BBX 8 14 1 0
BITMAP
08
18
18
00
00
FF
FE
84
04
08
10
20
7E
FE
ENDCHAR
STARTCHAR Zcaron
ENCODING 381
SWIDTH 790 0
DWIDTH 13 0
BBX 10 18 1 0
BITMAP
3880
1F00
0C00
0000
0000
7FC0
60C0
4180
4380
0300
0600
0E00
0C00
1800
3040
7040
60C0
FFC0
ENDCHAR
STARTCHAR zcaron
ENCODING 382
SWIDTH 611 0
DWIDTH 10 0
BBX 8 14 1 0
BITMAP
E3
34
18
00
00
FF
FE
84
04
08
10
20
7E
FE
ENDCHAR
STARTCHAR longs
ENCODING 383
SWIDTH 439 0
DWIDTH 7 0
BBX 8 14 0 0
BITMAP
07
09
10
30
30
30
F0
30
30
30
30
30
30
7C
ENDCHAR
STARTCHAR florin
ENCODING 402
SWIDTH 619 0
DWIDTH 10 0
BBX 8 17 1 -4
BITMAP
0F
1F
31
30
30
30
30
30
30
30
30
30
30
30
60
40
80
ENDCHAR
STARTCHAR Scommaaccent
ENCODING 536
SWIDTH 700 0
DWIDTH 11 0
BBX 9 18 1 -5
BITMAP
1E00
2380
4180
C080
E000
7800
3C00
0F00
0380
8180
C180
E100
FE00
0000
1C00
0C00
0800
0800
ENDCHAR
STARTCHAR scommaaccent
ENCODING 537
SWIDTH 559 0
DWIDTH 9 0
BBX 7 14 1 -5
BITMAP
3C
46
C2
70
3C
1E
86
C4
78
00
38
18
10
10
ENDCHAR
STARTCHAR uni021A
ENCODING 538
SWIDTH 832 0
DWIDTH 13 0
BBX 11 18 1 -5
BITMAP
FFE0
C660
C620
8620
0600
0600
0600
0600
0600
0600
0600
0E00
1F00
0000
0E00
0600
0400
0400
ENDCHAR
STARTCHAR uni021B
ENCODING 539
SWIDTH 456 0
DWIDTH 7 0
BBX 7 17 0 -5
BITMAP
10
30
70
70
FE
30
30
30
30
30
32
1C
00
1C
1C
08
10
ENDCHAR
STARTCHAR dotlessj
ENCODING 567
SWIDTH 379 0
DWIDTH 6 0
BBX 3 13 1 -4
BITMAP
20
E0
60
60
60
60
60
60
60
60
40
40
80
ENDCHAR
STARTCHAR uni02BC
ENCODING 700
SWIDTH 580 0
DWIDTH 9 0
BBX 3 5 2 8
BITMAP
20
60
60
C0
C0
ENDCHAR
STARTCHAR circumflex
ENCODING 710
SWIDTH 568 0
DWIDTH 9 0
BBX 7 3 1 11
BITMAP
10
7C
8E
ENDCHAR
STARTCHAR caron
ENCODING 711
SWIDTH 568 0
DWIDTH 9 0
BBX 7 3 1 11
BITMAP
E2
74
18
ENDCHAR
STARTCHAR breve
ENCODING 728
SWIDTH 489 0
DWIDTH 8 0
BBX 6 3 1 11
BITMAP
04
C8
70
ENDCHAR
STARTCHAR dotaccent
ENCODING 729
SWIDTH 339 0
DWIDTH 5 0
BBX 3 3 1 11
BITMAP
40
E0
60
ENDCHAR
STARTCHAR ring
ENCODING 730
SWIDTH 411 0
DWIDTH 7 0
BBX 5 4 1 10
BITMAP
70
98
D0
40
ENDCHAR
STARTCHAR ogonek
ENCODING 731
SWIDTH 332 0
DWIDTH 5 0
BBX 3 4 1 -4
BITMAP
20
40
E0
C0
ENDCHAR
STARTCHAR tilde
ENCODING 732
SWIDTH 545 0
DWIDTH 9 0
BBX 6 3 1 11
BITMAP
20
FC
08
ENDCHAR
STARTCHAR hungarumlaut
ENCODING 733
SWIDTH 590 0
DWIDTH 9 0
BBX 7 3 1 11
BITMAP
66
CC
88
ENDCHAR
STARTCHAR uni0326
ENCODING 806
SWIDTH 0 0
DWIDTH 0 0
BBX 4 4 -5 -5
BITMAP
F0
60
40
40
ENDCHAR
STARTCHAR Delta
ENCODING 916
SWIDTH 867 0
DWIDTH 14 0
BBX 12 13 1 0
BITMAP
0200
0600
0B00
0B00
1300
1180
0180
20C0
20C0
4060
4060
8060
FFF0
ENDCHAR
STARTCHAR Omega
ENCODING 937
SWIDTH 929 0
DWIDTH 15 0
BBX 13 13 1 0
BITMAP
0780
19E0
6070
6038
C038
C018
E030
6030
78E0
1D80
8D80
CD90
FDF0
ENDCHAR
STARTCHAR mu
ENCODING 956
SWIDTH 696 0
DWIDTH 11 0
BBX 9 13 1 -4
BITMAP
2100
E300
6300
6300
6300
6300
6300
7F80
7B00
6000
6000
7000
6000
ENDCHAR
STARTCHAR pi
ENCODING 960
SWIDTH 786 0
DWIDTH 13 0
BBX 12 9 0 0
BITMAP
3FF0
7FF0
C880
0880
0880
0880
08C0
18C0
18C0
ENDCHAR
STARTCHAR uni0900
ENCODING 2304
SWIDTH 0 0
DWIDTH 0 0
BBX 9 6 -10 15
BITMAP
3C00
F300
C180
C980
0C80
0C00
ENDCHAR
STARTCHAR candraBindudeva
ENCODING 2305
SWIDTH 0 0
DWIDTH 0 0
BBX 10 6 -10 15
BITMAP
0800
8C00
CCC0
C1C0
6380
1F00
ENDCHAR
STARTCHAR anusvaradeva
ENCODING 2306
SWIDTH 0 0
DWIDTH 0 0
BBX 2 3 -3 15
BITMAP
C0
C0
40
ENDCHAR
STARTCHAR visargadeva
ENCODING 2307
SWIDTH 260 0
DWIDTH 4 0
BBX 6 12 -2 1
BITMAP
F8
FC
00
00
18
18
08
00
00
18
18
08
ENDCHAR
STARTCHAR uni0904
ENCODING 2308
SWIDTH 1014 0
DWIDTH 16 0
BBX 20 20 -2 0
BITMAP
800000
400000
200000
1FF000
060800
000400
000200
031FE0
0FCFF0
0C4180
006180
01C180
01C180
004380
187F80
0C6180
03E180
01C180
000180
000080
ENDCHAR
STARTCHAR adeva
ENCODING 2309
SWIDTH 1014 0
DWIDTH 16 0
BBX 17 13 1 0
BITMAP
18FF00
7E7F80
620C00
030C00
0E0C00
0E0C00
021C00
C3FC00
630C00
1F0C00
0E0C00
000C00
000400
ENDCHAR
STARTCHAR aadeva
ENCODING 2310
SWIDTH 1342 0
DWIDTH 21 0
BBX 22 13 1 0
BITMAP
18FFF8
7E7FFC
620C60
030C60
0E0C60
0E0C60
021C60
C3FC60
630C60
1F0C60
0E0C60
000C60
000420
ENDCHAR
STARTCHAR ideva
ENCODING 2311
SWIDTH 713 0
DWIDTH 11 0
BBX 15 17 -1 -4
BITMAP
FFFC
7FFE
0060
07E0
0FE0
1C00
0800
0FC0
33E0
3030
1830
1FF0
07C0
0200
0100
00C8
007C
ENDCHAR
STARTCHAR iideva
ENCODING 2312
SWIDTH 713 0
DWIDTH 11 0
BBX 15 24 -1 -4
BITMAP
00F0
01D8
0300
0300
0300
0100
0080
FFFC
7FFE
0060
07E0
0FE0
1C00
0800
0FC0
33E0
3030
1830
1FF0
07C0
0200
0100
00C8
007C
ENDCHAR
STARTCHAR udeva
ENCODING 2313
SWIDTH 604 0
DWIDTH 10 0
BBX 12 13 -1 0
BITMAP
FFE0
FFF0
0100
0180
0380
0780
0600
0180
00C0
2060
1060
0FE0
07C0
ENDCHAR
STARTCHAR uudeva
ENCODING 2314
SWIDTH 1061 0
DWIDTH 17 0
BBX 19 13 -1 0
BITMAP
FFFFC0
FFFFE0
010000
018000
039C00
07FE00
06E300
01C300
00C300
206F00
106000
0FE000
07C000
ENDCHAR
STARTCHAR rvocalicdeva
ENCODING 2315
SWIDTH 1245 0
DWIDTH 20 0
BBX 22 14 -1 -1
BITMAP
FFFFF8
FFFFFC
006000
006180
0C63E0
3F63E0
30FF00
03E300
076380
0E6700
006600
006630
002370
0001E0
ENDCHAR
STARTCHAR lvocalicdeva
ENCODING 2316
SWIDTH 919 0
DWIDTH 15 0
BBX 17 14 -1 -1
BITMAP
FFFF00
7FFF80
003000
003000
0E7000
1DF800
198C00
180C00
081C00
043800
027000
006000
002600
001E00
ENDCHAR
STARTCHAR ecandradeva
ENCODING 2317
SWIDTH 613 0
DWIDTH 10 0
BBX 14 24 -1 -4
BITMAP
0C00
0C0C
0C1C
0638
01F0
0000
0000
FFE0
7FF0
18C0
18C0
18C0
30C0
30C0
18C0
0880
0400
0200
0100
0080
00C0
0040
0060
0060
ENDCHAR
STARTCHAR eshortdeva
ENCODING 2318
SWIDTH 613 0
DWIDTH 10 0
BBX 20 24 -9 -4
BITMAP
C00000
600000
100000
0FF800
030C00
000200
000100
00FFE0
007FF0
0018C0
0018C0
0018C0
0030C0
0030C0
0018C0
000880
000400
000200
000100
000080
0000C0
000040
000060
000060
ENDCHAR
STARTCHAR edeva
ENCODING 2319
SWIDTH 613 0
DWIDTH 10 0
BBX 12 17 -1 -4
BITMAP
FFE0
7FF0
18C0
18C0
18C0
30C0
30C0
18C0
0880
0400
0200
0100
0080
00C0
0040
0060
0060
ENDCHAR
STARTCHAR aideva
ENCODING 2320
SWIDTH 613 0
DWIDTH 10 0
BBX 13 22 -2 -4
BITMAP
F000
5C00
0200
0100
0080
7FF0
3FF8
0C60
0C60
0C60
1860
1860
0C60
0440
0200
0100
0080
0040
0060
0020
0030
0030
ENDCHAR
STARTCHAR ocandradeva
ENCODING 2321
SWIDTH 1342 0
DWIDTH 21 0
BBX 23 20 1 0
BITMAP
000200
000306
000306
00019E
0000F8
000000
000000
18FFF8
7E7FFC
620C60
030C60
0E0C60
0E0C60
021C60
C3FC60
630C60
1F0C60
0E0C60
000C60
000420
ENDCHAR
STARTCHAR oshortdeva
ENCODING 2322
SWIDTH 1342 0
DWIDTH 21 0
BBX 22 20 1 0
BITMAP
200000
100000
080000
07FC00
008200
000100
0000C0
18FFF8
7E7FFC
620C60
030C60
0E0C60
0E0C60
021C60
C3FC60
630C60
1F0C60
0E0C60
000C60
000420
ENDCHAR
STARTCHAR odeva
ENCODING 2323
SWIDTH 1342 0
DWIDTH 21 0
BBX 22 18 1 0
BITMAP
00F800
004C00
000200
000100
0000C0
18FFF8
7E7FFC
620C60
030C60
0E0C60
0E0C60
021C60
C3FC60
630C60
1F0C60
0E0C60
000C60
000420
ENDCHAR
STARTCHAR audeva
ENCODING 2324
SWIDTH 1342 0
DWIDTH 21 0
BBX 22 20 1 0
BITMAP
00F000
00F800
000400
00F300
007980
000440
000320
18FFF8
7E7FFC
620C60
030C60
0E0C60
0E0C60
021C60
C3FC60
630C60
1F0C60
0E0C60
000C60
000420
ENDCHAR
STARTCHAR kadeva
ENCODING 2325
SWIDTH 1037 0
DWIDTH 17 0
BBX 19 13 -1 0
BITMAP
FFFFC0
7FFFE0
00C000
00C000
0CF800
1EFE00
18E300
18C300
19C700
0FCE00
00C000
00C000
004000
ENDCHAR
STARTCHAR khadeva
ENCODING 2326
SWIDTH 1084 0
DWIDTH 17 0
BBX 21 13 -2 0
BITMAP
FFFFF0
7FFFF8
0200C0
0300C0
030CC0
031EC0
1F38C0
1F30C0
0F19C0
060FC0
0300C0
0080C0
004040
ENDCHAR
STARTCHAR gadeva
ENCODING 2327
SWIDTH 768 0
DWIDTH 12 0
BBX 16 13 -2 0
BITMAP
FFFE
7FFF
0318
0318
0318
0318
1F18
1F18
0E18
0018
0018
0018
0008
ENDCHAR
STARTCHAR ghadeva
ENCODING 2328
SWIDTH 854 0
DWIDTH 14 0
BBX 16 13 -1 0
BITMAP
FFFE
FFFF
1E0C
380C
300C
180C
0F8C
0C0C
1C1C
0C3C
07EC
01DC
000C
ENDCHAR
STARTCHAR ngadeva
ENCODING 2329
SWIDTH 832 0
DWIDTH 13 0
BBX 18 13 -2 0
BITMAP
FFFF80
7FFFC0
003000
03F000
07F600
0E0600
040200
07E000
01F000
101800
081800
07F800
03E000
ENDCHAR
STARTCHAR cadeva
ENCODING 2330
SWIDTH 838 0
DWIDTH 13 0
BBX 16 13 -1 0
BITMAP
FFFE
FFFF
0018
0018
3F98
3FD8
0718
0318
0338
01F8
0018
0018
0008
ENDCHAR
STARTCHAR chadeva
ENCODING 2331
SWIDTH 994 0
DWIDTH 16 0
BBX 19 13 -1 0
BITMAP
FFFFC0
FFFFE0
000C00
0C0C00
1E1E00
381B00
191B00
0F9B00
0E1B80
0C0F00
0C0700
061E00
01F800
ENDCHAR
STARTCHAR jadeva
ENCODING 2332
SWIDTH 828 0
DWIDTH 13 0
BBX 16 13 -1 0
BITMAP
FFFE
7FFF
0018
0018
0018
0018
0FF8
0418
0218
0198
2198
1998
0F88
ENDCHAR
STARTCHAR jhadeva
ENCODING 2333
SWIDTH 1030 0
DWIDTH 16 0
BBX 19 17 -1 -4
BITMAP
FFFFC0
7FFFE0
006300
07E300
0FE300
1C0300
080F00
0FFF00
33E300
303300
183300
1FF300
07C100
020000
010000
00C800
007C00
ENDCHAR
STARTCHAR nyadeva
ENCODING 2334
SWIDTH 798 0
DWIDTH 13 0
BBX 15 13 -1 0
BITMAP
FFFC
7FFE
0018
0018
1E18
1B38
01F8
01F8
2398
1F18
0E18
0038
0018
ENDCHAR
STARTCHAR ttadeva
ENCODING 2335
SWIDTH 698 0
DWIDTH 11 0
BBX 14 13 -1 0
BITMAP
FFF8
7FFC
0180
0180
0180
0F80
1C00
1800
1800
1800
1830
0CF0
03C0
ENDCHAR
STARTCHAR tthadeva
ENCODING 2336
SWIDTH 814 0
DWIDTH 13 0
BBX 15 13 -1 0
BITMAP
FFFC
7FFE
0180
0180
0180
0FC0
1C20
1830
1830
1830
1830
0C70
03C0
ENDCHAR
STARTCHAR ddadeva
ENCODING 2337
SWIDTH 712 0
DWIDTH 11 0
BBX 15 13 -2 0
BITMAP
FFFC
7FFE
0030
03F0
07F0
0E00
0400
07E0
01F0
1018
0818
07F8
03E0
ENDCHAR
STARTCHAR ddhadeva
ENCODING 2338
SWIDTH 698 0
DWIDTH 11 0
BBX 14 13 -1 0
BITMAP
FFF8
7FFC
0180
0180
0180
0F80
1C00
1800
19C0
19A0
09B0
0EF0
03E0
ENDCHAR
STARTCHAR nnadeva
ENCODING 2339
SWIDTH 889 0
DWIDTH 14 0
BBX 17 13 -1 0
BITMAP
FFFF00
7FFF80
30CC00
30CC00
30CC00
30CC00
118C00
1B8C00
0F0C00
000C00
000C00
000C00
000400
ENDCHAR
STARTCHAR tadeva
ENCODING 2340
SWIDTH 662 0
DWIDTH 11 0
BBX 13 13 -1 0
BITMAP
FFF0
7FF8
0040
0040
0040
0040
1FC0
3840
3040
3040
1840
04C0
0240
ENDCHAR
STARTCHAR thadeva
ENCODING 2341
SWIDTH 782 0
DWIDTH 13 0
BBX 13 13 1 0
BITMAP
73F0
F9F8
C8C0
CCC0
7CC0
1CC0
38C0
F0C0
61C0
3FC0
00C0
00C0
0040
ENDCHAR
STARTCHAR dadeva
ENCODING 2342
SWIDTH 678 0
DWIDTH 11 0
BBX 13 16 -1 -3
BITMAP
FFF0
7FF8
0180
0180
0180
0F80
1C00
1800
1800
1980
09E0
07E0
03E0
0040
0020
0010
ENDCHAR
STARTCHAR dhadeva
ENCODING 2343
SWIDTH 852 0
DWIDTH 14 0
BBX 13 14 2 0
BITMAP
7800
EFF0
CDF8
DC60
4060
3C60
3860
30E0
31E0
13E0
0F60
0060
00E0
0060
ENDCHAR
STARTCHAR nadeva
ENCODING 2344
SWIDTH 668 0
DWIDTH 11 0
BBX 14 13 -2 0
BITMAP
FFF8
7FFC
0030
0030
0030
0030
1FF0
1E30
0E30
0030
0030
0070
0030
ENDCHAR
STARTCHAR nnnadeva
ENCODING 2345
SWIDTH 668 0
DWIDTH 11 0
BBX 14 14 -2 -1
BITMAP
FFF8
7FFC
0030
0030
0030
0030
1FF0
1E30
0E30
0030
0030
0070
0630
0600
ENDCHAR
STARTCHAR padeva
ENCODING 2346
SWIDTH 648 0
DWIDTH 10 0
BBX 13 13 -1 0
BITMAP
FFF0
7FF8
30C0
30C0
30C0
30C0
10C0
19C0
07C0
00C0
00C0
00C0
0040
ENDCHAR
STARTCHAR uni092B
ENCODING 2347
SWIDTH 1038 0
DWIDTH 17 0
BBX 19 13 -1 0
BITMAP
FFFFC0
7FFFE0
30C000
30C000
30F800
30F600
10E300
19C300
07C700
00CE00
00C000
00C000
004000
ENDCHAR
STARTCHAR uni092C
ENCODING 2348
SWIDTH 648 0
DWIDTH 10 0
BBX 13 13 -1 0
BITMAP
FFF0
7FF8
00C0
00C0
0CC0
1EC0
3CC0
1AC0
19C0
0FC0
00C0
00C0
0040
ENDCHAR
STARTCHAR bhadeva
ENCODING 2349
SWIDTH 758 0
DWIDTH 12 0
BBX 13 13 1 0
BITMAP
E3F0
D3F8
D8C0
78C0
18C0
18C0
FFC0
78C0
30C0
00C0
00C0
00C0
0040
ENDCHAR
STARTCHAR madeva
ENCODING 2350
SWIDTH 784 0
DWIDTH 13 0
BBX 16 13 -2 0
BITMAP
FFFE
7FFF
0318
0318
0318
0318
1FF8
1E18
0E18
0018
0018
0018
0008
ENDCHAR
STARTCHAR uni092F
ENCODING 2351
SWIDTH 732 0
DWIDTH 12 0
BBX 14 13 -1 0
BITMAP
FFF8
FFFC
0C30
0630
0E30
0E30
3C70
10F0
0FF0
0030
0030
0070
0030
ENDCHAR
STARTCHAR radeva
ENCODING 2352
SWIDTH 446 0
DWIDTH 7 0
BBX 11 13 -2 0
BITMAP
FF80
7FE0
0200
0300
0300
0300
1F00
1F00
0F00
0600
0300
0080
0040
ENDCHAR
STARTCHAR rradeva
ENCODING 2353
SWIDTH 446 0
DWIDTH 7 0
BBX 11 14 -2 -1
BITMAP
FF80
7FE0
0200
0300
0300
0300
1F00
1F00
0F00
0600
0300
0080
0C40
0C00
ENDCHAR
STARTCHAR uni0932
ENCODING 2354
SWIDTH 867 0
DWIDTH 14 0
BBX 16 13 -1 0
BITMAP
FFFE
7FFF
000C
000C
0E0C
1D9C
18FC
19EC
188C
040C
020C
001C
000C
ENDCHAR
STARTCHAR lladeva
ENCODING 2355
SWIDTH 1037 0
DWIDTH 17 0
BBX 19 10 -1 3
BITMAP
FFFFC0
7FFFE0
001800
001800
0E3800
1F7E00
386300
18C300
19C700
0F9E00
ENDCHAR
STARTCHAR llladeva
ENCODING 2356
SWIDTH 1037 0
DWIDTH 17 0
BBX 19 14 -1 -1
BITMAP
FFFFC0
7FFFE0
001800
001800
0E3800
1F7E00
386300
18C300
19C700
0F9E00
000000
000000
00C000
00C000
ENDCHAR
STARTCHAR vadeva
ENCODING 2357
SWIDTH 648 0
DWIDTH 10 0
BBX 13 13 -1 0
BITMAP
FFF0
7FF8
00C0
00C0
0CC0
1EC0
38C0
30C0
19C0
0FC0
00C0
00C0
0040
ENDCHAR
STARTCHAR shadeva
ENCODING 2358
SWIDTH 829 0
DWIDTH 13 0
BBX 13 13 2 0
BITMAP
E3F0
D1F8
D8C0
78C0
18C0
18C0
F8C0
F8C0
78C0
06C0
00C0
00C0
0040
ENDCHAR
STARTCHAR ssadeva
ENCODING 2359
SWIDTH 648 0
DWIDTH 10 0
BBX 13 13 -1 0
BITMAP
FFF0
7FF8
38C0
34C0
32C0
31C0
10C0
19C0
07C0
00C0
00C0
00C0
0040
ENDCHAR
STARTCHAR sadeva
ENCODING 2360
SWIDTH 824 0
DWIDTH 13 0
BBX 17 13 -2 0
BITMAP
FFFF00
7FFF80
020C00
030C00
030C00
030C00
1FFC00
1F7C00
0F0C00
060C00
030C00
008C00
004400
ENDCHAR
STARTCHAR hadeva
ENCODING 2361
SWIDTH 578 0
DWIDTH 9 0
BBX 11 17 0 -4
BITMAP
FFC0
7FE0
0200
0200
1E00
3800
3000
1000
3E00
3100
7180
6180
3180
0800
0400
0200
0100
ENDCHAR
STARTCHAR uni093A
ENCODING 2362
SWIDTH 0 0
DWIDTH 0 0
BBX 2 7 -3 11
BITMAP
C0
C0
C0
C0
C0
C0
40
ENDCHAR
STARTCHAR uni093B
ENCODING 2363
SWIDTH 328 0
DWIDTH 5 0
BBX 7 18 0 0
BITMAP
30
30
30
30
30
FC
7E
30
30
30
30
30
30
30
30
30
30
10
ENDCHAR
STARTCHAR nuktadeva
ENCODING 2364
SWIDTH 0 0
DWIDTH 0 0
BBX 2 3 -3 -4
BITMAP
C0
C0
40
ENDCHAR
STARTCHAR avagrahadeva
ENCODING 2365
SWIDTH 628 0
DWIDTH 10 0
BBX 11 13 1 0
BITMAP
07C0
1FE0
3800
3000
3000
1800
0C00
0600
0300
8180
4180
3F80
0F00
ENDCHAR
STARTCHAR uni093E
ENCODING 2366
SWIDTH 328 0
DWIDTH 5 0
BBX 7 13 0 0
BITMAP
FC
7E
30
30
30
30
30
30
30
30
30
30
10
ENDCHAR
STARTCHAR uni093F
ENCODING 2367
SWIDTH 328 0
DWIDTH 5 0
BBX 8 17 0 0
BITMAP
78
6C
46
62
F1
70
30
30
30
30
30
30
30
30
30
30
10
ENDCHAR
STARTCHAR uni0940
ENCODING 2368
SWIDTH 328 0
DWIDTH 5 0
BBX 11 17 -4 0
BITMAP
F000
D800
C400
4200
2FC0
07E0
0300
0300
0300
0300
0300
0300
0300
0300
0300
0300
0100
ENDCHAR
STARTCHAR uvowelsigndeva
ENCODING 2369
SWIDTH 0 0
DWIDTH 0 0
BBX 9 6 -10 -8
BITMAP
0E00
0100
8180
6180
3F80
0F00
ENDCHAR
STARTCHAR uuvowelsigndeva
ENCODING 2370
SWIDTH 0 0
DWIDTH 0 0
BBX 9 6 -9 -8
BITMAP
7800
FC00
C200
8180
C000
7800
ENDCHAR
STARTCHAR rvocalicvowelsigndeva
ENCODING 2371
SWIDTH 0 0
DWIDTH 0 0
BBX 6 6 -8 -8
BITMAP
70
E0
C0
C0
4C
3C
ENDCHAR
STARTCHAR rrvocalicvowelsigndeva
ENCODING 2372
SWIDTH 0 0
DWIDTH 0 0
BBX 7 8 -7 -10
BITMAP
70
E0
C0
78
F0
C0
6E
1C
ENDCHAR
STARTCHAR ecandravowelsigndeva
ENCODING 2373
SWIDTH 0 0
DWIDTH 0 0
BBX 10 5 -10 15
BITMAP
8000
C0C0
C1C0
6380
1F00
ENDCHAR
STARTCHAR eshortvowelsigndeva
ENCODING 2374
SWIDTH 0 0
DWIDTH 0 0
BBX 17 8 -20 12
BITMAP
800000
400000
300000
1FF000
030800
000600
000300
000080
ENDCHAR
STARTCHAR evowelsigndeva
ENCODING 2375
SWIDTH 0 0
DWIDTH 0 0
BBX 10 6 -8 12
BITMAP
F000
4C00
0200
0100
0080
0040
ENDCHAR
STARTCHAR aivowelsigndeva
ENCODING 2376
SWIDTH 0 0
DWIDTH 0 0
BBX 13 8 -10 12
BITMAP
F000
7C00
0200
F100
7C80
0240
0130
0088
ENDCHAR
STARTCHAR ocandravowelsigndeva
ENCODING 2377
SWIDTH 328 0
DWIDTH 5 0
BBX 10 20 -2 0
BITMAP
4000
E0C0
60C0
6380
1F00
0000
0000
3F00
1F80
0C00
0C00
0C00
0C00
0C00
0C00
0C00
0C00
0C00
0C00
0400
ENDCHAR
STARTCHAR uni094A
ENCODING 2378
SWIDTH 328 0
DWIDTH 5 0
BBX 20 20 -13 0
BITMAP
800000
400000
200000
1FF000
060800
000400
000200
0007E0
0003F0
000180
000180
000180
000180
000180
000180
000180
000180
000180
000180
000080
ENDCHAR
STARTCHAR ovowelsigndeva
ENCODING 2379
SWIDTH 328 0
DWIDTH 5 0
BBX 14 18 -7 0
BITMAP
F000
4C00
0200
0100
0080
01F8
00FC
0060
0060
0060
0060
0060
0060
0060
0060
0060
0060
0020
ENDCHAR
STARTCHAR uni094C
ENCODING 2380
SWIDTH 328 0
DWIDTH 5 0
BBX 15 20 -8 0
BITMAP
F000
7C00
0200
F900
7C80
0260
0110
00FC
007E
0030
0030
0030
0030
0030
0030
0030
0030
0030
0030
0010
ENDCHAR
STARTCHAR viramadeva
ENCODING 2381
SWIDTH 0 0
DWIDTH 0 0
BBX 5 4 -5 -6
BITMAP
80
60
10
08
ENDCHAR
STARTCHAR uni094E
ENCODING 2382
SWIDTH 328 0
DWIDTH 5 0
BBX 5 13 2 0
BITMAP
F0
F8
C0
C0
C0
C0
C0
C0
C0
C0
C0
C0
40
ENDCHAR
STARTCHAR uni094F
ENCODING 2383
SWIDTH 328 0
DWIDTH 5 0
BBX 20 20 -13 0
BITMAP
800000
400100
200380
1FF300
060980
000460
000260
0007E0
0003F0
000180
000180
000180
000180
000180
000180
000180
000180
000180
000180
000080
ENDCHAR
STARTCHAR omdeva
ENCODING 2384
SWIDTH 1186 0
DWIDTH 19 0
BBX 18 20 2 0
BITMAP
004000
044000
064C00
060E00
021C00
01F800
000000
300000
FC0000
C41E00
063900
067080
1E60C0
18C0C0
07C1C0
038380
810700
438000
3F0000
1E0000
ENDCHAR
STARTCHAR udattadeva
ENCODING 2385
SWIDTH 0 0
DWIDTH 0 0
BBX 2 6 -3 15
BITMAP
C0
C0
C0
C0
C0
C0
ENDCHAR
STARTCHAR anudattadeva
ENCODING 2386
SWIDTH 0 0
DWIDTH 0 0
BBX 11 2 -9 -3
BITMAP
FFC0
3FE0
ENDCHAR
STARTCHAR gravedeva
ENCODING 2387
SWIDTH 0 0
DWIDTH 0 0
BBX 4 3 -8 14
BITMAP
80
60
10
ENDCHAR
STARTCHAR acutedeva
ENCODING 2388
SWIDTH 0 0
DWIDTH 0 0
BBX 6 5 -8 14
BITMAP
04
1C
38
F0
40
ENDCHAR
STARTCHAR uni0955
ENCODING 2389
SWIDTH 0 0
DWIDTH 0 0
BBX 10 7 -10 14
BITMAP
C080
C0C0
61C0
3F80
0000
FF80
7FC0
ENDCHAR
STARTCHAR uni0956
ENCODING 2390
SWIDTH 0 0
DWIDTH 0 0
BBX 7 2 -8 -4
BITMAP
FE
7C
ENDCHAR
STARTCHAR uni0957
ENCODING 2391
SWIDTH 0 0
DWIDTH 0 0
BBX 8 6 -9 -8
BITMAP
7F
3E
00
C7
3F
18
ENDCHAR
STARTCHAR qadeva
ENCODING 2392
SWIDTH 1037 0
DWIDTH 17 0
BBX 19 14 -1 -1
BITMAP
FFFFC0
7FFFE0
00C000
00C000
0CF800
1EFE00
18E300
18C300
19C700
0FCE00
00C000
00C000
184000
180000
ENDCHAR
STARTCHAR khhadeva
ENCODING 2393
SWIDTH 1084 0
DWIDTH 17 0
BBX 21 14 -2 -1
BITMAP
FFFFF0
7FFFF8
0200C0
0300C0
030CC0
031EC0
1F38C0
1F30C0
0F19C0
060FC0
0300C0
0080C0
184040
180000
ENDCHAR
STARTCHAR ghhadeva
ENCODING 2394
SWIDTH 768 0
DWIDTH 12 0
BBX 16 14 -2 -1
BITMAP
FFFE
7FFF
0318
0318
0318
0318
1F18
1F18
0E18
0018
0018
0018
0608
0600
ENDCHAR
STARTCHAR zadeva
ENCODING 2395
SWIDTH 828 0
DWIDTH 13 0
BBX 16 18 -1 -5
BITMAP
FFFE
7FFF
0018
0018
0018
0018
0FF8
0418
0218
0198
2198
1998
0F88
0000
0000
0600
0600
0200
ENDCHAR
STARTCHAR dddhadeva
ENCODING 2396
SWIDTH 712 0
DWIDTH 11 0
BBX 15 16 -2 -3
BITMAP
FFFC
7FFE
0030
03F0
07F0
0E00
0400
07E0
01F0
1018
0818
07F8
03E0
3000
3000
1000
ENDCHAR
STARTCHAR rhadeva
ENCODING 2397
SWIDTH 698 0
DWIDTH 11 0
BBX 14 16 -1 -3
BITMAP
FFF8
7FFC
0180
0180
0180
0F80
1C00
1800
19C0
19A0
09B0
0EF0
03E0
0000
1800
1800
ENDCHAR
STARTCHAR fadeva
ENCODING 2398
SWIDTH 1038 0
DWIDTH 17 0
BBX 19 14 -1 -1
BITMAP
FFFFC0
7FFFE0
30C000
30C000
30F800
30F600
10E300
19C300
07C700
00CE00
00C000
08C000
0C4000
0C0000
ENDCHAR
STARTCHAR yyadeva
ENCODING 2399
SWIDTH 732 0
DWIDTH 12 0
BBX 14 14 -1 -1
BITMAP
FFF8
FFFC
0C30
0630
0E30
0E30
3C70
10F0
0FF0
0030
0030
0870
0C30
0C00
ENDCHAR
STARTCHAR rrvocalicdeva
ENCODING 2400
SWIDTH 1245 0
DWIDTH 20 0
BBX 22 15 -1 -2
BITMAP
FFFFF8
FFFFFC
006000
006180
0C63E0
3F67E0
30FF00
03E300
0763C0
0E6700
006200
0063C0
002700
000200
0001F0
ENDCHAR
STARTCHAR llvocalicdeva
ENCODING 2401
SWIDTH 919 0
DWIDTH 15 0
BBX 17 16 -1 -3
BITMAP
FFFF00
7FFF80
003000
003000
0E7000
1DF800
198C00
180C00
081C00
043800
027000
002000
003800
007000
006200
003E00
ENDCHAR
STARTCHAR lvocalicvowelsigndeva
ENCODING 2402
SWIDTH 0 0
DWIDTH 0 0
BBX 13 10 -14 -12
BITMAP
7BC0
7720
E630
6030
20F0
11E0
0980
0180
00F8
0070
ENDCHAR
STARTCHAR llvocalicvowelsigndeva
ENCODING 2403
SWIDTH 0 0
DWIDTH 0 0
BBX 13 12 -14 -14
BITMAP
7BC0
7720
E630
6070
20F0
11C0
0980
00E0
01C0
0188
00F8
0020
ENDCHAR
STARTCHAR dandadeva
ENCODING 2404
SWIDTH 600 0
DWIDTH 10 0
BBX 3 13 3 0
BITMAP
40
60
60
60
60
60
60
60
60
60
60
E0
60
ENDCHAR
STARTCHAR dbldandadeva
ENCODING 2405
SWIDTH 861 0
DWIDTH 14 0
BBX 7 13 3 0
BITMAP
44
66
66
66
66
66
66
66
66
66
66
E6
62
ENDCHAR
STARTCHAR zerodeva
ENCODING 2406
SWIDTH 651 0
DWIDTH 10 0
BBX 8 6 1 3
BITMAP
7C
62
E3
63
67
3E
ENDCHAR
STARTCHAR onedeva
ENCODING 2407
SWIDTH 550 0
DWIDTH 9 0
BBX 5 13 1 0
BITMAP
60
F0
D8
D8
78
38
18
18
18
18
18
18
30
ENDCHAR
STARTCHAR twodeva
ENCODING 2408
SWIDTH 642 0
DWIDTH 10 0
BBX 9 12 2 1
BITMAP
6000
F800
CC00
0C00
0E00
0C00
FC00
F800
7800
0400
0200
0180
ENDCHAR
STARTCHAR threedeva
ENCODING 2409
SWIDTH 726 0
DWIDTH 12 0
BBX 9 16 1 -3
BITMAP
1800
7E00
6200
0300
0700
0F00
0E00
0200
4100
E180
6180
3780
1F00
0800
0400
0300
ENDCHAR
STARTCHAR fourdeva
ENCODING 2410
SWIDTH 710 0
DWIDTH 11 0
BBX 8 14 2 0
BITMAP
86
C7
C6
C6
4C
38
30
68
EC
C6
C6
C6
46
3C
ENDCHAR
STARTCHAR fivedeva
ENCODING 2411
SWIDTH 744 0
DWIDTH 12 0
BBX 11 16 2 -3
BITMAP
8400
C600
C600
4600
3E00
0600
0600
0600
0600
0600
3E00
3E00
1D00
0080
0040
0020
ENDCHAR
STARTCHAR sixdeva
ENCODING 2412
SWIDTH 790 0
DWIDTH 13 0
BBX 14 13 1 0
BITMAP
7000
F800
C000
6000
3980
71C0
61C0
61C0
7780
1E40
0030
0008
0004
ENDCHAR
STARTCHAR sevendeva
ENCODING 2413
SWIDTH 938 0
DWIDTH 15 0
BBX 12 14 1 0
BITMAP
2000
7000
6000
61C0
63A0
E330
E130
E0F0
6030
6030
6070
2060
11C0
0F80
ENDCHAR
STARTCHAR eightdeva
ENCODING 2414
SWIDTH 720 0
DWIDTH 12 0
BBX 12 13 -1 0
BITMAP
FFE0
7FF0
1C00
1800
1800
1800
1800
0600
01C0
0060
0060
0070
0060
ENDCHAR
STARTCHAR ninedeva
ENCODING 2415
SWIDTH 690 0
DWIDTH 11 0
BBX 9 13 1 0
BITMAP
3800
7E00
6600
6E00
2000
1800
3C00
7000
E000
4000
4180
3780
1E00
ENDCHAR
STARTCHAR abbreviationsigndeva
ENCODING 2416
SWIDTH 571 0
DWIDTH 9 0
BBX 7 6 1 4
BITMAP
30
7C
E4
6E
7C
18
ENDCHAR
STARTCHAR uni0971
ENCODING 2417
SWIDTH 485 0
DWIDTH 8 0
BBX 2 3 4 10
BITMAP
80
C0
C0
ENDCHAR
STARTCHAR uni0972
ENCODING 2418
SWIDTH 1014 0
DWIDTH 16 0
BBX 18 20 1 0
BITMAP
004000
00E0C0
0040C0
006380
001F00
000000
000000
18FF00
7E7F80
620C00
030C00
0E0C00
0E0C00
021C00
C3FC00
630C00
1F0C00
0E0C00
000C00
000400
ENDCHAR
STARTCHAR uni0973
ENCODING 2419
SWIDTH 1014 0
DWIDTH 16 0
BBX 17 21 1 0
BITMAP
000C00
000C00
000C00
000C00
000C00
000C00
000000
000000
18FF00
7E7F80
620C00
030C00
0E0C00
0E0C00
021C00
C3FC00
630C00
1F0C00
0E0C00
000C00
000400
ENDCHAR
STARTCHAR uni0974
ENCODING 2420
SWIDTH 1342 0
DWIDTH 21 0
BBX 22 18 1 0
BITMAP
000060
000060
000060
000060
000060
18FFF8
7E7FFC
620C60
030C60
0E0C60
0E0C60
021C60
C3FC60
630C60
1F0C60
0E0C60
000C60
000420
ENDCHAR
STARTCHAR uni0975
ENCODING 2421
SWIDTH 1342 0
DWIDTH 21 0
BBX 22 20 1 0
BITMAP
200000
100060
0C00E0
07FCC0
008260
000118
0000CC
18FFF8
7E7FFC
620C60
030C60
0E0C60
0E0C60
021C60
C3FC60
230C60
1F0C60
0E0C60
000C60
000420
ENDCHAR
STARTCHAR uni0976
ENCODING 2422
SWIDTH 1014 0
DWIDTH 16 0
BBX 17 17 1 -4
BITMAP
18FF00
7E7F80
620C00
030C00
0E0C00
0E0C00
021C00
C3FC00
630C00
1F0C00
0E0C00
000C00
000400
000000
000800
03FC00
01F800
ENDCHAR
STARTCHAR uni0977
ENCODING 2423
SWIDTH 1014 0
DWIDTH 16 0
BBX 17 21 1 -8
BITMAP
18FF00
7E7F80
620C00
030C00
0E0C00
0E0C00
021C00
C3FC00
630C00
1F0C00
0E0C00
000C00
000400
000000
000800
03FC00
00F000
000000
021800
01F800
004000
ENDCHAR
STARTCHAR uni0979
ENCODING 2425
SWIDTH 788 0
DWIDTH 13 0
BBX 16 19 -1 -6
BITMAP
FFFE
7FFF
0018
0018
0018
0018
0FF8
0418
0218
0198
2198
1998
0F88
0000
3180
3180
1400
0600
0600
ENDCHAR
STARTCHAR uni097B
ENCODING 2427
SWIDTH 746 0
DWIDTH 12 0
BBX 15 16 -2 -3
BITMAP
FFFC
7FFE
0318
0318
0318
0318
1F18
1F18
0E18
0018
0018
0018
0018
0018
1FF8
0FF8
ENDCHAR
STARTCHAR uni097C
ENCODING 2428
SWIDTH 846 0
DWIDTH 14 0
BBX 16 16 -1 -3
BITMAP
FFFE
7FFF
0018
0018
0018
0018
0FF8
0418
0218
0198
2198
1998
0F98
0018
3FF8
1FF8
ENDCHAR
STARTCHAR uni097D
ENCODING 2429
SWIDTH 758 0
DWIDTH 12 0
BBX 9 13 1 0
BITMAP
3C00
7600
C100
C180
C180
0180
0380
1F00
1E00
1800
1800
1800
1800
ENDCHAR
STARTCHAR uni097E
ENCODING 2430
SWIDTH 712 0
DWIDTH 11 0
BBX 15 16 -2 -3
BITMAP
FFFC
7FFE
0030
03F0
07F0
0E00
0400
07E0
01F0
1018
0818
07F8
03E0
0000
0FF8
07FC
ENDCHAR
STARTCHAR uni097F
ENCODING 2431
SWIDTH 648 0
DWIDTH 10 0
BBX 13 16 -1 -3
BITMAP
FFF0
7FF8
00C0
00C0
0CC0
1EC0
3CC0
1AC0
19C0
0FC0
00C0
00C0
00C0
00C0
1FC0
0FC0
ENDCHAR
STARTCHAR uni0FD5
ENCODING 4053
SWIDTH 1136 0
DWIDTH 18 0
BBX 13 13 3 0
BITMAP
83F8
C3F8
C300
C300
C300
C300
FFF8
FFF8
0318
0318
0318
7F18
FF18
ENDCHAR
STARTCHAR uni0FD6
ENCODING 4054
SWIDTH 1136 0
DWIDTH 18 0
BBX 13 13 3 0
BITMAP
FF08
FF18
0318
0318
0318
0318
FFF8
FFF8
C300
C300
C300
C3F8
C3F8
ENDCHAR
STARTCHAR uni0FD7
ENCODING 4055
SWIDTH 1136 0
DWIDTH 18 0
BBX 13 13 3 0
BITMAP
83F8
C3F8
C340
DB60
DB40
C300
FFF8
FFF8
0B58
1BF8
0358
7F18
FF18
ENDCHAR
STARTCHAR uni0FD8
ENCODING 4056
SWIDTH 1136 0
DWIDTH 18 0
BBX 13 13 3 0
BITMAP
FF08
FF18
0318
1BF8
1B78
0318
FFF8
FFF8
DB40
DBE0
CB40
C3F8
C3F8
ENDCHAR
STARTCHAR Wgrave
ENCODING 7808
SWIDTH 1195 0
DWIDTH 19 0
BBX 19 18 0 0
BITMAP
01C000
00C000
002000
000000
000000
F9F3E0
70E1C0
306040
306080
306080
187000
183100
0CB100
0C9A00
0D1A00
071A00
070C00
060C00
ENDCHAR
STARTCHAR wgrave
ENCODING 7809
SWIDTH 899 0
DWIDTH 14 0
BBX 14 14 0 0
BITMAP
0E00
0600
0100
0000
0000
213C
E73C
6308
3188
3190
1AD0
1AC0
1CE0
0C40
ENDCHAR
STARTCHAR Wacute
ENCODING 7810
SWIDTH 1195 0
DWIDTH 19 0
BBX 19 18 0 0
BITMAP
003800
003000
004000
000000
000000
F9F3E0
70E1C0
306040
306080
306080
187000
183100
0CB100
0C9A00
0D1A00
071A00
070C00
060C00
ENDCHAR
STARTCHAR wacute
ENCODING 7811
SWIDTH 899 0
DWIDTH 14 0
BBX 14 14 0 0
BITMAP
00C0
0180
0300
0000
0000
213C
E73C
6308
3188
3190
1AD0
1AC0
1CE0
0C40
ENDCHAR
STARTCHAR Wdieresis
ENCODING 7812
SWIDTH 1195 0
DWIDTH 19 0
BBX 19 18 0 0
BITMAP
010800
039C00
010800
000000
000000
F9F3E0
70E1C0
306040
306080
306080
187000
183100
0CB100
0C9A00
0D1A00
071A00
070C00
060C00
ENDCHAR
STARTCHAR wdieresis
ENCODING 7813
SWIDTH 899 0
DWIDTH 14 0
BBX 14 14 0 0
BITMAP
0040
0CC0
0CC0
0000
0000
213C
E73C
6308
3188
3190
1AD0
1AC0
1CE0
0C40
ENDCHAR
STARTCHAR uni1E9E
ENCODING 7838
SWIDTH 896 0
DWIDTH 14 0
BBX 12 13 1 0
BITMAP
0FF0
11F0
2060
60C0
6180
63F0
67F0
6020
6040
6080
6110
63F0
E7F0
ENDCHAR
STARTCHAR Ygrave
ENCODING 7922
SWIDTH 803 0
DWIDTH 13 0
BBX 13 18 0 0
BITMAP
1C00
0600
0200
0000
0000
F8F8
7070
3020
3840
1840
0C80
0D00
0700
0600
0600
0600
0600
0F80
ENDCHAR
STARTCHAR ygrave
ENCODING 7923
SWIDTH 620 0
DWIDTH 10 0
BBX 9 18 0 -4
BITMAP
3000
1800
0C00
0000
0000
2380
E380
6180
3100
3100
1A00
1A00
1C00
0C00
1800
1000
2000
2000
ENDCHAR
STARTCHAR zerowidthspace
ENCODING 8203
SWIDTH 0 0
DWIDTH 0 0
BBX 1 1 0 0
BITMAP
00
ENDCHAR
STARTCHAR uni200C
ENCODING 8204
SWIDTH 0 0
DWIDTH 0 0
BBX 1 1 0 0
BITMAP
00
ENDCHAR
STARTCHAR uni200D
ENCODING 8205
SWIDTH 0 0
DWIDTH 0 0
BBX 1 1 0 0
BITMAP
00
ENDCHAR
STARTCHAR endash
ENCODING 8211
SWIDTH 719 0
DWIDTH 12 0
BBX 1 1 10 4
BITMAP
00
ENDCHAR
STARTCHAR emdash
ENCODING 8212
SWIDTH 1039 0
DWIDTH 17 0
BBX 1 1 15 4
BITMAP
00
ENDCHAR
STARTCHAR quoteleft
ENCODING 8216
SWIDTH 363 0
DWIDTH 6 0
BBX 4 6 1 7
BITMAP
10
20
60
C0
70
40
ENDCHAR
STARTCHAR quoteright
ENCODING 8217
SWIDTH 370 0
DWIDTH 6 0
BBX 3 6 1 7
BITMAP
60
E0
60
40
40
80
ENDCHAR
STARTCHAR quotesinglbase
ENCODING 8218
SWIDTH 363 0
DWIDTH 6 0
BBX 3 6 1 -4
BITMAP
20
E0
60
60
40
80
ENDCHAR
STARTCHAR quotedblleft
ENCODING 8220
SWIDTH 623 0
DWIDTH 10 0
BBX 8 6 1 7
BITMAP
11
22
66
C6
77
44
ENDCHAR
STARTCHAR quotedblright
ENCODING 8221
SWIDTH 630 0
DWIDTH 10 0
BBX 7 6 1 7
BITMAP
62
EE
62
46
44
88
ENDCHAR
STARTCHAR quotedblbase
ENCODING 8222
SWIDTH 623 0
DWIDTH 10 0
BBX 8 6 1 -4
BITMAP
22
EE
63
66
44
88
ENDCHAR
STARTCHAR dagger
ENCODING 8224
SWIDTH 656 0
DWIDTH 11 0
BBX 9 18 1 -4
BITMAP
1800
3800
1800
1800
8800
FF80
E900
0800
1800
1C00
1800
1800
1800
1800
0800
0800
0800
0800
ENDCHAR
STARTCHAR daggerdbl
ENCODING 8225
SWIDTH 661 0
DWIDTH 11 0
BBX 9 18 1 -4
BITMAP
1800
3800
1800
1800
8800
FF80
E900
0800
1C00
1800
1800
CB00
FF80
0900
1800
1800
1C00
1800
ENDCHAR
STARTCHAR bullet
ENCODING 8226
SWIDTH 498 0
DWIDTH 8 0
BBX 6 5 1 2
BITMAP
38
78
FC
78
78
ENDCHAR
STARTCHAR ellipsis
ENCODING 8230
SWIDTH 1259 0
DWIDTH 20 0
BBX 16 2 2 0
BITMAP
E187
6186
ENDCHAR
STARTCHAR perthousand
ENCODING 8240
SWIDTH 1677 0
DWIDTH 27 0
BBX 25 17 1 -2
BITMAP
00020000
3C040000
46080000
83100000
C3000000
C2200000
7C400000
00800000
01000000
01000000
02180E00
044E3300
08862180
00826180
10C26180
20E43100
40781C00
ENDCHAR
STARTCHAR minute
ENCODING 8242
SWIDTH 389 0
DWIDTH 6 0
BBX 5 5 1 8
BITMAP
38
30
60
C0
80
ENDCHAR
STARTCHAR second
ENCODING 8243
SWIDTH 639 0
DWIDTH 10 0
BBX 9 5 1 8
BITMAP
3B80
3300
6600
CC00
8800
ENDCHAR
STARTCHAR uni2034
ENCODING 8244
SWIDTH 889 0
DWIDTH 14 0
BBX 13 5 1 8
BITMAP
3BB8
3330
6660
CCC0
8880
ENDCHAR
STARTCHAR guilsinglleft
ENCODING 8249
SWIDTH 409 0
DWIDTH 7 0
BBX 4 7 1 1
BITMAP
10
30
60
C0
60
30
10
ENDCHAR
STARTCHAR guilsinglright
ENCODING 8250
SWIDTH 409 0
DWIDTH 7 0
BBX 4 7 1 1
BITMAP
80
40
60
30
30
60
40
ENDCHAR
STARTCHAR asterism
ENCODING 8258
SWIDTH 1598 0
DWIDTH 26 0
BBX 24 20 1 -4
BITMAP
006400
004A00
006800
011700
01F100
001D00
00A400
006400
004000
000000
000000
010008
330098
360094
5C0240
C3C21F
6C8392
0B0058
3B0148
370098
ENDCHAR
STARTCHAR fraction
ENCODING 8260
SWIDTH 228 0
DWIDTH 4 0
BBX 10 18 -3 -2
BITMAP
0040
0040
0080
0000
0100
0000
0200
0000
0400
0800
0800
1000
1000
2000
2000
4000
4000
8000
ENDCHAR
STARTCHAR uni2051
ENCODING 8273
SWIDTH 698 0
DWIDTH 11 0
BBX 10 20 1 -4
BITMAP
3200
2500
3400
8380
F880
0680
5200
3200
2000
0000
0000
0200
2700
2400
9100
87C0
E480
1600
7200
2600
ENDCHAR
STARTCHAR uni2055
ENCODING 8277
SWIDTH 754 0
DWIDTH 12 0
BBX 9 10 2 0
BITMAP
0800
0800
C980
EB80
3E00
1400
6B00
C980
0800
0800
ENDCHAR
STARTCHAR uni2057
ENCODING 8279
SWIDTH 1139 0
DWIDTH 18 0
BBX 17 5 1 8
BITMAP
3BBB80
333300
666600
CCCC00
888800
ENDCHAR
STARTCHAR zerosuperior
ENCODING 8304
SWIDTH 629 0
DWIDTH 10 0
BBX 8 6 1 7
BITMAP
3E
47
C3
C3
C2
7C
ENDCHAR
STARTCHAR foursuperior
ENCODING 8308
SWIDTH 569 0
DWIDTH 9 0
BBX 8 9 0 4
BITMAP
06
0E
16
26
66
FF
06
06
04
ENDCHAR
STARTCHAR fivesuperior
ENCODING 8309
SWIDTH 536 0
DWIDTH 9 0
BBX 6 9 1 4
BITMAP
78
80
C0
70
18
0C
08
10
C0
ENDCHAR
STARTCHAR sixsuperior
ENCODING 8310
SWIDTH 617 0
DWIDTH 10 0
BBX 8 9 1 7
BITMAP
0C
18
20
68
46
C3
C3
62
7C
ENDCHAR
STARTCHAR sevensuperior
ENCODING 8311
SWIDTH 552 0
DWIDTH 9 0
BBX 7 9 1 4
BITMAP
FE
84
04
08
08
10
20
20
40
ENDCHAR
STARTCHAR eightsuperior
ENCODING 8312
SWIDTH 613 0
DWIDTH 10 0
BBX 8 10 1 7
BITMAP
08
2E
46
66
34
3C
46
C3
C2
74
ENDCHAR
STARTCHAR ninesuperior
ENCODING 8313
SWIDTH 607 0
DWIDTH 10 0
BBX 7 9 1 4
BITMAP
3C
46
C2
C2
62
36
0C
18
60
ENDCHAR
STARTCHAR zeroinferior
ENCODING 8320
SWIDTH 629 0
DWIDTH 10 0
BBX 8 6 1 -1
BITMAP
3E
43
C3
C3
C2
7C
ENDCHAR
STARTCHAR oneinferior
ENCODING 8321
SWIDTH 393 0
DWIDTH 6 0
BBX 4 6 1 -1
BITMAP
F0
60
60
60
60
E0
ENDCHAR
STARTCHAR twoinferior
ENCODING 8322
SWIDTH 491 0
DWIDTH 8 0
BBX 6 6 1 -1
BITMAP
78
08
08
10
64
FC
ENDCHAR
STARTCHAR threeinferior
ENCODING 8323
SWIDTH 467 0
DWIDTH 7 0
BBX 5 9 1 -4
BITMAP
F0
18
10
30
38
08
08
30
C0
ENDCHAR
STARTCHAR fourinferior
ENCODING 8324
SWIDTH 569 0
DWIDTH 9 0
BBX 8 9 0 -4
BITMAP
06
0E
16
26
46
FF
06
06
04
ENDCHAR
STARTCHAR fiveinferior
ENCODING 8325
SWIDTH 536 0
DWIDTH 9 0
BBX 6 9 1 -4
BITMAP
78
80
C0
70
18
0C
08
10
C0
ENDCHAR
STARTCHAR sixinferior
ENCODING 8326
SWIDTH 617 0
DWIDTH 10 0
BBX 8 10 1 -1
BITMAP
02
0C
10
20
6C
46
C3
C3
62
7C
ENDCHAR
STARTCHAR seveninferior
ENCODING 8327
SWIDTH 552 0
DWIDTH 9 0
BBX 7 9 1 -4
BITMAP
FE
84
04
08
08
10
20
20
40
ENDCHAR
STARTCHAR eightinferior
ENCODING 8328
SWIDTH 613 0
DWIDTH 10 0
BBX 8 10 1 -1
BITMAP
18
26
46
66
3C
3C
46
C3
C2
7C
ENDCHAR
STARTCHAR nineinferior
ENCODING 8329
SWIDTH 607 0
DWIDTH 10 0
BBX 7 9 1 -4
BITMAP
3C
46
C2
C2
62
36
0C
18
60
ENDCHAR
STARTCHAR Euro
ENCODING 8364
SWIDTH 884 0
DWIDTH 14 0
BBX 13 13 0 0
BITMAP
01F0
0678
0C18
1808
1800
FFC0
3000
3000
3800
1800
1C08
0E30
07E0
ENDCHAR
STARTCHAR uni20B9
ENCODING 8377
SWIDTH 679 0
DWIDTH 11 0
BBX 9 13 1 0
BITMAP
FF80
1C00
0C00
0E00
0600
0C00
0800
3000
1C00
0C00
0E00
0600
0780
ENDCHAR
STARTCHAR uni2113
ENCODING 8467
SWIDTH 572 0
DWIDTH 9 0
BBX 8 14 0 0
BITMAP
0E
17
33
33
33
36
34
38
70
B0
30
30
32
1C
ENDCHAR
STARTCHAR uni2116
ENCODING 8470
SWIDTH 1528 0
DWIDTH 24 0
BBX 23 13 1 0
BITMAP
E07070
60709C
70210C
78230C
5C230C
4E2188
4620F0
432000
43A000
41E3FC
40E000
406000
F023FE
ENDCHAR
STARTCHAR uni2117
ENCODING 8471
SWIDTH 1009 0
DWIDTH 16 0
BBX 14 13 1 0
BITMAP
07C0
1CF0
3038
6FD8
46CC
C6CC
C6CC
C70C
C60C
6F08
7010
3820
1FC0
ENDCHAR
STARTCHAR trademark
ENCODING 8482
SWIDTH 1073 0
DWIDTH 17 0
BBX 15 5 1 8
BITMAP
FDCE
B4CC
305C
307C
302C
ENDCHAR
STARTCHAR Ohm
ENCODING 8486
SWIDTH 929 0
DWIDTH 15 0
BBX 13 13 1 0
BITMAP
0780
19E0
6070
6038
C038
C018
E030
6030
78E0
1D80
8D80
CD90
FDF0
ENDCHAR
STARTCHAR estimated
ENCODING 8494
SWIDTH 968 0
DWIDTH 15 0
BBX 13 13 1 0
BITMAP
0F80
3860
6010
6018
E018
E018
FFF8
E000
E000
6000
6010
3020
1FC0
ENDCHAR
STARTCHAR uni2153
ENCODING 8531
SWIDTH 1122 0
DWIDTH 18 0
BBX 16 20 1 -4
BITMAP
0008
0000
0010
F020
2020
2040
2040
2080
7080
0100
0100
021E
0026
0402
0004
0807
0003
1002
0004
0030
ENDCHAR
STARTCHAR uni2154
ENCODING 8532
SWIDTH 1186 0
DWIDTH 19 0
BBX 17 20 1 -4
BITMAP
000400
000000
000800
780000
981000
082000
102000
244000
FC4000
008000
008000
010F00
011300
020100
000200
040380
000180
080100
000200
001800
ENDCHAR
STARTCHAR oneeighth
ENCODING 8539
SWIDTH 1268 0
DWIDTH 20 0
BBX 18 18 1 -2
BITMAP
000800
000000
001000
F02000
202000
204000
204000
208300
708980
011880
011880
020F00
000F80
0410C0
0010C0
0818C0
000F80
100000
ENDCHAR
STARTCHAR threeeighths
ENCODING 8540
SWIDTH 1308 0
DWIDTH 21 0
BBX 19 19 1 -3
BITMAP
000400
000800
000000
F01000
180000
102000
300000
384300
0884C0
088C40
110CC0
C10780
020780
0208E0
041860
041840
080F80
000000
100000
ENDCHAR
STARTCHAR fiveeighths
ENCODING 8541
SWIDTH 1377 0
DWIDTH 22 0
BBX 20 19 1 -3
BITMAP
000200
000400
000400
780800
800000
C01000
700000
182080
0C0260
084620
100620
C083C0
0103E0
010470
020C30
020630
0407E0
040000
080000
ENDCHAR
STARTCHAR seveneighths
ENCODING 8542
SWIDTH 1323 0
DWIDTH 21 0
BBX 19 19 1 -3
BITMAP
000400
000800
000800
FE1000
841000
042000
082000
084180
1004C0
208C40
200C40
410780
0005C0
0208E0
000860
040C60
0807C0
080000
100000
ENDCHAR
STARTCHAR Oneroman
ENCODING 8544
SWIDTH 494 0
DWIDTH 8 0
BBX 6 9 1 0
BITMAP
F8
30
30
30
30
30
30
30
FC
ENDCHAR
STARTCHAR Tworoman
ENCODING 8545
SWIDTH 988 0
DWIDTH 16 0
BBX 13 9 1 0
BITMAP
F8F8
3030
3030
3030
3030
3030
3030
3030
FCF8
ENDCHAR
STARTCHAR Threeroman
ENCODING 8546
SWIDTH 1482 0
DWIDTH 24 0
BBX 21 9 1 0
BITMAP
F8F8F8
303030
303030
303030
303030
303030
303030
303030
FCF8F8
ENDCHAR
STARTCHAR Fourroman
ENCODING 8547
SWIDTH 1265 0
DWIDTH 20 0
BBX 19 9 1 0
BITMAP
F9F3E0
30E040
306080
307080
303100
303900
301A00
301E00
FC0C00
ENDCHAR
STARTCHAR Fiveroman
ENCODING 8548
SWIDTH 771 0
DWIDTH 12 0
BBX 12 9 0 0
BITMAP
F9F0
3020
3000
1840
1880
0C80
0D00
0700
0600
ENDCHAR
STARTCHAR Sixroman
ENCODING 8549
SWIDTH 1265 0
DWIDTH 20 0
BBX 19 9 0 0
BITMAP
F9F3E0
302180
300180
184180
188180
0C8180
0D0180
070180
0603E0
ENDCHAR
STARTCHAR Sevenroman
ENCODING 8550
SWIDTH 1759 0
DWIDTH 28 0
BBX 27 9 0 0
BITMAP
F9F3E3E0
30218180
30018180
18418180
18818180
0C818180
0D018180
07018180
0603E3E0
ENDCHAR
STARTCHAR Eightroman
ENCODING 8551
SWIDTH 2253 0
DWIDTH 36 0
BBX 35 9 0 0
BITMAP
F9F3E3E7C0
3021818180
3001818180
1841818180
1881818180
0C81818180
0D01818180
0701818180
0603E3E3E0
ENDCHAR
STARTCHAR Nineroman
ENCODING 8552
SWIDTH 1267 0
DWIDTH 20 0
BBX 19 9 1 0
BITMAP
F9F3C0
307080
303900
301E00
300E00
301600
302300
304180
FDF3E0
ENDCHAR
STARTCHAR Tenroman
ENCODING 8553
SWIDTH 773 0
DWIDTH 12 0
BBX 12 9 0 0
BITMAP
F9F0
3840
1C80
0F00
0700
0B80
1180
20C0
F9F0
ENDCHAR
STARTCHAR Elevenroman
ENCODING 8554
SWIDTH 1265 0
DWIDTH 20 0
BBX 19 9 0 0
BITMAP
F9F3E0
302180
300180
184180
188180
0C8180
0D0180
070180
0603E0
ENDCHAR
STARTCHAR Twelveroman
ENCODING 8555
SWIDTH 1761 0
DWIDTH 28 0
BBX 27 9 0 0
BITMAP
F9F3E3E0
38418180
1C818180
0F018180
07018180
0B818180
11818180
20C18180
F9F3E3E0
ENDCHAR
STARTCHAR uni216C
ENCODING 8556
SWIDTH 754 0
DWIDTH 12 0
BBX 10 9 1 0
BITMAP
F800
7000
6000
6000
6000
6040
60C0
60C0
FFC0
ENDCHAR
STARTCHAR uni216D
ENCODING 8557
SWIDTH 780 0
DWIDTH 12 0
BBX 10 9 1 0
BITMAP
1FC0
31C0
6040
C000
C000
E000
E000
70C0
3F00
ENDCHAR
STARTCHAR uni216E
ENCODING 8558
SWIDTH 849 0
DWIDTH 14 0
BBX 11 9 1 0
BITMAP
FF80
60E0
6060
6060
6060
6060
6060
60C0
FF00
ENDCHAR
STARTCHAR uni216F
ENCODING 8559
SWIDTH 966 0
DWIDTH 15 0
BBX 14 9 1 0
BITMAP
F038
7070
5870
58B0
4CB0
4D30
4730
4630
F2FC
ENDCHAR
STARTCHAR arrowleft
ENCODING 8592
SWIDTH 762 0
DWIDTH 12 0
BBX 10 6 1 2
BITMAP
1000
70C0
F780
F700
70C0
1000
ENDCHAR
STARTCHAR arrowup
ENCODING 8593
SWIDTH 584 0
DWIDTH 9 0
BBX 8 10 1 0
BITMAP
10
38
3C
7E
93
10
10
18
28
24
ENDCHAR
STARTCHAR arrowright
ENCODING 8594
SWIDTH 762 0
DWIDTH 12 0
BBX 10 6 1 2
BITMAP
0200
C380
39C0
39C0
C380
0200
ENDCHAR
STARTCHAR arrowdown
ENCODING 8595
SWIDTH 584 0
DWIDTH 9 0
BBX 7 10 1 0
BITMAP
44
28
38
18
10
90
7E
7C
38
10
ENDCHAR
STARTCHAR uni2194
ENCODING 8596
SWIDTH 1118 0
DWIDTH 18 0
BBX 16 8 1 1
BITMAP
0010
1008
70CC
F78F
F1EF
730E
1008
0010
ENDCHAR
STARTCHAR arrowupdn
ENCODING 8597
SWIDTH 584 0
DWIDTH 9 0
BBX 7 17 1 -4
BITMAP
10
38
7C
7E
90
10
58
38
38
14
10
90
7E
7C
38
10
10
ENDCHAR
STARTCHAR uni2196
ENCODING 8598
SWIDTH 665 0
DWIDTH 11 0
BBX 9 9 1 0
BITMAP
C000
FC00
F000
F000
4800
0F00
0480
0400
0400
ENDCHAR
STARTCHAR uni2197
ENCODING 8599
SWIDTH 666 0
DWIDTH 11 0
BBX 8 9 2 0
BITMAP
03
3F
0E
0E
32
F2
20
20
40
ENDCHAR
STARTCHAR uni2198
ENCODING 8600
SWIDTH 666 0
DWIDTH 11 0
BBX 9 9 1 0
BITMAP
2000
2000
1000
F100
3900
0F00
0300
0F00
1F80
ENDCHAR
STARTCHAR uni2199
ENCODING 8601
SWIDTH 666 0
DWIDTH 11 0
BBX 9 8 1 0
BITMAP
0400
0400
0F80
4C00
5000
E000
F800
FC00
ENDCHAR
STARTCHAR partialdiff
ENCODING 8706
SWIDTH 671 0
DWIDTH 11 0
BBX 9 14 1 0
BITMAP
E000
7800
1C00
0E00
0600
0F00
3F00
6380
C180
C180
C100
E300
7200
3C00
ENDCHAR
STARTCHAR increment
ENCODING 8710
SWIDTH 867 0
DWIDTH 14 0
BBX 12 13 1 0
BITMAP
0200
0600
0B00
0B00
1300
1180
0180
20C0
20C0
4060
4060
8060
FFF0
ENDCHAR
STARTCHAR product
ENCODING 8719
SWIDTH 934 0
DWIDTH 15 0
BBX 13 15 1 -2
BITMAP
FFF8
6070
6060
6060
6060
6060
6060
6060
6060
6060
6060
6060
6060
7070
F8F8
ENDCHAR
STARTCHAR summation
ENCODING 8721
SWIDTH 789 0
DWIDTH 13 0
BBX 10 15 1 -2
BITMAP
FFC0
60C0
70C0
3040
1800
0C00
0E00
0600
0E00
1C00
1800
3040
70C0
E0C0
FFC0
ENDCHAR
STARTCHAR minus
ENCODING 8722
SWIDTH 527 0
DWIDTH 8 0
BBX 1 1 7 4
BITMAP
00
ENDCHAR
STARTCHAR divisionslash
ENCODING 8725
SWIDTH 355 0
DWIDTH 6 0
BBX 5 17 0 -2
BITMAP
08
08
08
08
10
10
10
10
20
20
20
20
40
40
40
40
80
ENDCHAR
STARTCHAR bulletoperator
ENCODING 8729
SWIDTH 339 0
DWIDTH 5 0
BBX 3 2 1 4
BITMAP
60
E0
ENDCHAR
STARTCHAR radical
ENCODING 8730
SWIDTH 563 0
DWIDTH 9 0
BBX 12 17 1 0
BITMAP
0010
0010
0010
0020
0020
0040
0040
0080
0080
0000
0100
0100
F200
3200
1C00
1C00
1800
ENDCHAR
STARTCHAR infinity
ENCODING 8734
SWIDTH 987 0
DWIDTH 16 0
BBX 14 6 1 2
BITMAP
1C70
6E98
C71C
C30C
E598
79F0
ENDCHAR
STARTCHAR integral
ENCODING 8747
SWIDTH 420 0
DWIDTH 7 0
BBX 8 18 -1 -4
BITMAP
07
0D
08
18
18
18
18
18
18
18
18
18
18
18
18
18
D0
E0
ENDCHAR
STARTCHAR approxequal
ENCODING 8776
SWIDTH 615 0
DWIDTH 10 0
BBX 8 6 1 2
BITMAP
60
91
06
60
91
06
ENDCHAR
STARTCHAR notequal
ENCODING 8800
SWIDTH 527 0
DWIDTH 8 0
BBX 7 9 1 1
BITMAP
04
00
08
FE
10
00
FE
00
40
ENDCHAR
STARTCHAR lessequal
ENCODING 8804
SWIDTH 507 0
DWIDTH 8 0
BBX 8 10 0 -1
BITMAP
02
0C
10
60
70
1C
0E
04
00
FF
ENDCHAR
STARTCHAR greaterequal
ENCODING 8805
SWIDTH 507 0
DWIDTH 8 0
BBX 8 9 0 -1
BITMAP
70
38
0E
06
08
10
40
00
FF
ENDCHAR
STARTCHAR lozenge
ENCODING 9674
SWIDTH 629 0
DWIDTH 10 0
BBX 8 14 1 0
BITMAP
18
1C
2C
2C
46
46
43
E3
62
62
34
34
18
18
ENDCHAR
STARTCHAR dottedcircle
ENCODING 9676
SWIDTH 1144 0
DWIDTH 18 0
BBX 13 13 3 0
BITMAP
0600
0600
7660
6060
0000
C010
C038
C030
0000
2060
7060
2660
0600
ENDCHAR
STARTCHAR uni2619
ENCODING 9753
SWIDTH 964 0
DWIDTH 15 0
BBX 14 12 1 0
BITMAP
0038
004C
00CC
0E48
9E30
DE48
9E3C
BD84
FFC8
7FD8
3FD8
1F98
ENDCHAR
STARTCHAR uni261A
ENCODING 9754
SWIDTH 1787 0
DWIDTH 29 0
BBX 25 12 1 -2
BITMAP
00000180
003F0780
3E7FCF80
FDFFEF00
78CFE780
01FBEF80
0197E780
00FBE700
000DEF00
003D8F80
00000780
00000180
ENDCHAR
STARTCHAR uni261B
ENCODING 9755
SWIDTH 1787 0
DWIDTH 29 0
BBX 25 13 2 -2
BITMAP
40000000
E0000000
F03F0000
78FFBF00
6DFFFF80
71F88700
FDE3E000
F9F4C000
71E78000
7DFD0000
FC6E0000
F0000000
60000000
ENDCHAR
STARTCHAR pointingindexleftwhite
ENCODING 9756
SWIDTH 1787 0
DWIDTH 29 0
BBX 25 12 1 -2
BITMAP
00000080
003F0480
3880C880
8DF03500
30181880
01661080
01809880
00F01800
00007100
001F8C80
00000680
00000180
ENDCHAR
STARTCHAR pointingindexupwhite
ENCODING 9757
SWIDTH 877 0
DWIDTH 14 0
BBX 10 19 2 -4
BITMAP
0300
0300
0200
0200
0280
0280
0E80
0B80
2A00
2A80
E240
5640
4400
2880
4880
4080
4100
4100
3E00
ENDCHAR
STARTCHAR pointingindexrightwhite
ENCODING 9758
SWIDTH 1787 0
DWIDTH 29 0
BBX 25 13 2 -2
BITMAP
40000000
A0000000
903F0000
40C08F00
4A07E880
46048700
921BA000
C640C000
4E078000
47910000
CC6E0000
F0000000
60000000
ENDCHAR
STARTCHAR pointingindexdownwhite
ENCODING 9759
SWIDTH 877 0
DWIDTH 14 0
BBX 10 19 2 -4
BITMAP
1F00
2080
2080
4080
4400
4400
0880
1AC0
91C0
5500
1500
7400
5C00
5000
5000
1000
1000
3000
3000
ENDCHAR
STARTCHAR uni2638
ENCODING 9784
SWIDTH 1059 0
DWIDTH 17 0
BBX 14 13 2 0
BITMAP
0F80
3EE0
7030
7048
E84C
C78C
CCFC
C28C
454C
692C
3118
1970
07E0
ENDCHAR
STARTCHAR uni2761
ENCODING 10081
SWIDTH 1052 0
DWIDTH 17 0
BBX 16 17 0 -4
BITMAP
007F
03BE
064C
0F8C
188C
108C
178C
3E8C
E08C
20CC
31EC
373C
1C2C
186C
084C
06CC
03FF
ENDCHAR
STARTCHAR uni2766
ENCODING 10086
SWIDTH 1090 0
DWIDTH 17 0
BBX 16 14 1 0
BITMAP
03C0
0440
C45F
C643
7282
0100
1CE0
3DE0
3DE0
3FE0
3FC0
1F80
1F20
07C0
ENDCHAR
STARTCHAR uni2767
ENCODING 10087
SWIDTH 987 0
DWIDTH 16 0
BBX 15 12 0 0
BITMAP
3800
4C00
4400
64E0
78F2
1CF6
10F2
137A
27FC
67FC
E7F8
63F0
ENDCHAR
STARTCHAR uniA8F2
ENCODING 43250
SWIDTH 1181 0
DWIDTH 19 0
BBX 9 6 5 9
BITMAP
1800
9800
C980
C180
4380
3F00
ENDCHAR
STARTCHAR uniA8F3
ENCODING 43251
SWIDTH 1266 0
DWIDTH 20 0
BBX 18 21 5 -6
BITMAP
180000
980000
C98000
C18000
438000
3F0000
000000
000000
000000
780000
3E0000
010000
008000
004000
003000
001800
000400
000200
000100
000080
000040
ENDCHAR
STARTCHAR uniA8F4
ENCODING 43252
SWIDTH 1237 0
DWIDTH 20 0
BBX 10 22 5 -7
BITMAP
1800
9800
C980
C180
4380
3F00
0000
0000
1800
9800
C980
C180
4380
3F00
0000
0000
E000
F800
0400
0200
0180
0040
ENDCHAR
STARTCHAR uniA8F5
ENCODING 43253
SWIDTH 1181 0
DWIDTH 19 0
BBX 11 21 5 -6
BITMAP
1800
9800
C980
C180
4380
3F00
0000
0000
0000
0000
3C00
7600
0300
0300
3700
7E00
3E00
1B00
0080
0040
0020
ENDCHAR
STARTCHAR uniA8F6
ENCODING 43254
SWIDTH 1181 0
DWIDTH 19 0
BBX 9 21 5 -6
BITMAP
1800
9800
C980
C180
4380
3F00
0000
0000
0000
0000
3E00
3200
0300
6F00
6600
6300
3F00
1F00
0400
0200
0100
ENDCHAR
STARTCHAR uniA8F7
ENCODING 43255
SWIDTH 1215 0
DWIDTH 19 0
BBX 10 19 4 -4
BITMAP
0C00
4C00
64C0
60C0
21C0
1F80
0000
0000
0000
0000
0FC0
1C00
1800
1800
0C00
8600
4300
3F00
1E00
ENDCHAR
STARTCHAR uniA8F8
ENCODING 43256
SWIDTH 994 0
DWIDTH 16 0
BBX 15 10 1 0
BITMAP
3000
7878
E06C
646C
3E6C
386E
303C
301C
1878
07E0
ENDCHAR
STARTCHAR uniA8F9
ENCODING 43257
SWIDTH 894 0
DWIDTH 14 0
BBX 13 9 1 0
BITMAP
00E0
01B0
1198
7898
E018
E038
4070
61E0
1FC0
ENDCHAR
STARTCHAR uniA8FA
ENCODING 43258
SWIDTH 0 0
DWIDTH 0 0
BBX 8 5 -6 12
BITMAP
C3
27
16
0E
04
ENDCHAR
STARTCHAR uniA8FB
ENCODING 43259
SWIDTH 837 0
DWIDTH 13 0
BBX 9 2 2 11
BITMAP
FF00
7F80
ENDCHAR
STARTCHAR fi
ENCODING 64257
SWIDTH 777 0
DWIDTH 12 0
BBX 12 14 0 0
BITMAP
07C0
19E0
10C0
3000
3000
3040
FFC0
30C0
3040
3040
3040
3040
3040
7C70
ENDCHAR
STARTCHAR fl
ENCODING 64258
SWIDTH 777 0
DWIDTH 12 0
BBX 12 14 0 0
BITMAP
07C0
08C0
10C0
30C0
30C0
30C0
FEC0
30C0
30C0
30C0
30C0
30C0
30C0
7CF0
ENDCHAR
STARTCHAR .notdef
ENCODING -1
SWIDTH 1396 0
DWIDTH 22 0
BBX 20 18 1 -3
BITMAP
006000
00F000
01F800
03FE00
079F00
0E0780
1FE7C0
3FEFE0
7FDFF0
FF9FF0
3F9FE0
1FFFC0
0F9F80
079F00
03FE00
01FC00
00F000
006000
ENDCHAR
STARTCHAR Iacute_J.loclNLD
ENCODING -1
SWIDTH 858 0
DWIDTH 14 0
BBX 12 22 1 -4
BITMAP
1830
3060
2040
0000
0000
F9F0
70E0
60C0
60C0
60C0
60C0
60C0
60C0
60C0
60C0
60C0
60C0
F8C0
00C0
00C0
0080
0100
ENDCHAR
STARTCHAR a.ss01
ENCODING -1
SWIDTH 715 0
DWIDTH 11 0
BBX 10 9 1 0
BITMAP
0C00
3F00
6300
C100
C100
C100
E100
6300
3DC0
ENDCHAR
STARTCHAR aacute.ss01
ENCODING -1
SWIDTH 715 0
DWIDTH 11 0
BBX 10 14 1 0
BITMAP
0700
0C00
0800
0000
0000
0C00
3F00
6300
C100
C100
C100
E100
6300
3DC0
ENDCHAR
STARTCHAR abreve.ss01
ENCODING -1
SWIDTH 715 0
DWIDTH 11 0
BBX 10 14 1 0
BITMAP
2100
7200
1C00
0000
0000
0C00
3F00
6300
C100
C100
C100
E100
6300
3DC0
ENDCHAR
STARTCHAR acircumflex.ss01
ENCODING -1
SWIDTH 715 0
DWIDTH 11 0
BBX 10 14 1 0
BITMAP
0800
3E00
4700
0000
0000
0C00
3F00
6300
C100
C100
C100
E100
6300
3DC0
ENDCHAR
STARTCHAR adieresis.ss01
ENCODING -1
SWIDTH 715 0
DWIDTH 11 0
BBX 10 14 1 0
BITMAP
2000
7300
6200
0000
0000
0C00
3F00
6300
C100
C100
C100
E100
6300
3DC0
ENDCHAR
STARTCHAR agrave.ss01
ENCODING -1
SWIDTH 715 0
DWIDTH 11 0
BBX 10 14 1 0
BITMAP
7000
1800
0800
0000
0000
0C00
3F00
6300
C100
C100
C100
E100
6300
3DC0
ENDCHAR
STARTCHAR amacron.ss01
ENCODING -1
SWIDTH 715 0
DWIDTH 11 0
BBX 10 13 1 0
BITMAP
7F00
0000
0000
0000
0C00
3F00
6300
C100
C100
C100
E100
6300
3DC0
ENDCHAR
STARTCHAR aogonek.ss01
ENCODING -1
SWIDTH 715 0
DWIDTH 11 0
BBX 10 13 1 -4
BITMAP
0C00
3F00
6300
C100
C100
C100
E100
6300
3DC0
0080
0100
0380
0180
ENDCHAR
STARTCHAR aring.ss01
ENCODING -1
SWIDTH 715 0
DWIDTH 11 0
BBX 10 14 1 0
BITMAP
1E00
2200
3000
1800
0000
0C00
3F00
6300
C100
C100
C100
E100
6300
3DC0
ENDCHAR
STARTCHAR atilde.ss01
ENCODING -1
SWIDTH 715 0
DWIDTH 11 0
BBX 10 14 1 0
BITMAP
1100
3E00
0400
0000
0000
0C00
3F00
6300
C100
C100
C100
E100
6300
3DC0
ENDCHAR
STARTCHAR ae.ss01
ENCODING -1
SWIDTH 971 0
DWIDTH 16 0
BBX 13 9 1 0
BITMAP
0920
3FF8
4318
C318
C3F8
C300
E300
6798
3BE0
ENDCHAR
STARTCHAR g.ss02
ENCODING -1
SWIDTH 688 0
DWIDTH 11 0
BBX 9 13 1 -4
BITMAP
0F00
3F00
4100
C200
C200
C300
E300
7B00
1100
2180
4100
E300
7C00
ENDCHAR
STARTCHAR gbreve.ss02
ENCODING -1
SWIDTH 688 0
DWIDTH 11 0
BBX 9 18 1 -4
BITMAP
2100
3200
1C00
0000
0000
0F00
3F00
4100
C200
C200
C300
E300
7B00
1100
2180
4100
E300
7C00
ENDCHAR
STARTCHAR gcommaaccent.ss02
ENCODING -1
SWIDTH 684 0
DWIDTH 11 0
BBX 9 19 1 -4
BITMAP
0800
0800
1800
1C00
0000
0000
0F00
3F00
4100
C200
C200
C300
E300
7B00
1100
2180
4100
E300
7C00
ENDCHAR
STARTCHAR gdotaccent.ss02
ENCODING -1
SWIDTH 688 0
DWIDTH 11 0
BBX 9 18 1 -4
BITMAP
0800
1C00
1C00
0000
0000
0F00
3F00
4100
C200
C200
C300
E300
7B00
1100
2180
4100
E300
7C00
ENDCHAR
STARTCHAR iacute_j.loclNLD
ENCODING -1
SWIDTH 768 0
DWIDTH 12 0
BBX 11 18 1 -4
BITMAP
3860
30C0
6180
0000
0000
2080
E380
6180
6080
6080
6080
6080
6080
F880
0080
0180
0100
0200
ENDCHAR
STARTCHAR i.loclTRK
ENCODING -1
SWIDTH 389 0
DWIDTH 6 0
BBX 5 14 1 0
BITMAP
20
60
60
00
00
20
E0
60
60
60
60
60
60
F8
ENDCHAR
STARTCHAR germandbls.calt
ENCODING -1
SWIDTH 896 0
DWIDTH 14 0
BBX 12 13 1 0
BITMAP
0FF0
11F0
2060
60C0
6180
63F0
67F0
6020
6040
6080
6110
63F0
E7F0
ENDCHAR
STARTCHAR T_h
ENCODING -1
SWIDTH 1382 0
DWIDTH 22 0
BBX 21 14 1 0
BITMAP
000C00
FFFC00
C61C00
C60C00
860C00
060CC0
060DE0
060C60
060C60
060C60
060C60
060C60
0E0C60
1F3E78
ENDCHAR
STARTCHAR c_t
ENCODING -1
SWIDTH 1069 0
DWIDTH 17 0
BBX 16 14 1 0
BITMAP
01E0
0270
0638
0418
0438
1E78
3E7F
6218
C018
C018
C018
E218
7319
3C0E
ENDCHAR
STARTCHAR f_adieresis.liga
ENCODING -1
SWIDTH 1063 0
DWIDTH 17 0
BBX 17 14 0 0
BITMAP
07C400
08E600
104600
300000
300000
303C00
FEC600
300600
300600
307E00
30C600
30C600
30C600
7C7F80
ENDCHAR
STARTCHAR f_b.liga
ENCODING -1
SWIDTH 1122 0
DWIDTH 18 0
BBX 17 14 0 0
BITMAP
07C000
08C000
10C000
30C000
30C000
30C600
FEDF00
30E300
30C180
30C180
30C180
30E100
30E200
7CBC00
ENDCHAR
STARTCHAR f_eth.liga
ENCODING -1
SWIDTH 1100 0
DWIDTH 18 0
BBX 16 14 0 0
BITMAP
07E1
0C7C
181C
102E
3006
300F
FE3F
3043
30C3
30C3
30C3
30E3
3062
7C3C
ENDCHAR
STARTCHAR f_f.liga
ENCODING -1
SWIDTH 827 0
DWIDTH 13 0
BBX 15 14 0 0
BITMAP
039E
0FE6
1862
1040
3040
3040
FFF8
3040
3040
3040
3040
3040
3040
7C78
ENDCHAR
STARTCHAR f_f_adieresis.liga
ENCODING -1
SWIDTH 1452 0
DWIDTH 23 0
BBX 23 14 0 0
BITMAP
039F08
0FE398
186198
104000
304000
3040F0
FFF918
304218
304018
3041F8
304318
304318
304398
7C79FE
ENDCHAR
STARTCHAR f_f_b.liga
ENCODING -1
SWIDTH 1511 0
DWIDTH 24 0
BBX 23 14 0 0
BITMAP
039F80
0FE380
186180
104180
30C180
30C198
FFF9FC
30C18E
30C186
30C186
30C186
30C184
30C1CC
7CF9F0
ENDCHAR
STARTCHAR f_f_eth.liga
ENCODING -1
SWIDTH 1489 0
DWIDTH 24 0
BBX 23 14 0 0
BITMAP
038F84
0FF1F0
186070
1060B8
304018
30C03C
FFF8FC
30418E
304106
304306
304304
30438C
3041C8
7C78F0
ENDCHAR
STARTCHAR f_f_h.liga
ENCODING -1
SWIDTH 1497 0
DWIDTH 24 0
BBX 23 14 0 0
BITMAP
039F80
0FE380
186180
104180
30C180
30C198
FFF9BC
30C18C
30C18C
30C18C
30C18C
30C18C
30C18C
7CF9CE
ENDCHAR
STARTCHAR f_f_i.liga
ENCODING -1
SWIDTH 1166 0
DWIDTH 19 0
BBX 18 14 0 0
BITMAP
039F00
0FE380
186300
104000
304000
304180
FFFF80
304180
304180
304180
304180
304180
304180
7C79C0
ENDCHAR
STARTCHAR f_f_idieresis.liga
ENCODING -1
SWIDTH 1196 0
DWIDTH 19 0
BBX 19 14 0 0
BITMAP
039C20
0FE660
186660
104000
304000
304080
FFFF80
304180
304180
304180
304180
304180
304180
7C7BE0
ENDCHAR
STARTCHAR f_f_igrave.liga
ENCODING -1
SWIDTH 1166 0
DWIDTH 19 0
BBX 18 14 0 0
BITMAP
039E00
0FE700
186100
104000
304000
304180
FFFF80
304180
304180
304180
304180
304180
304180
7C79C0
ENDCHAR
STARTCHAR f_f_iogonek.liga
ENCODING -1
SWIDTH 1166 0
DWIDTH 19 0
BBX 18 18 0 -4
BITMAP
039F00
0FE380
186300
104000
304000
304180
FFFF80
304180
304180
304180
304180
304180
304180
7C79C0
000080
000180
000380
000180
ENDCHAR
STARTCHAR f_f_j.liga
ENCODING -1
SWIDTH 1156 0
DWIDTH 19 0
BBX 17 18 0 -4
BITMAP
039F00
0FE380
186300
104000
304000
304180
FFFF80
304180
304180
304180
304180
304180
304180
7C7980
000180
000100
000200
000400
ENDCHAR
STARTCHAR f_f_k.liga
ENCODING -1
SWIDTH 1487 0
DWIDTH 24 0
BBX 23 14 0 0
BITMAP
039F80
0FE380
186180
104180
30C180
30C19E
FFF99C
30C188
30C190
30C1B0
30C1B0
30C198
30C19C
7CF9CE
ENDCHAR
STARTCHAR f_f_kcommaaccent.liga
ENCODING -1
SWIDTH 1487 0
DWIDTH 24 0
BBX 23 19 0 -5
BITMAP
039F80
0FE380
186180
104180
30C180
30C19E
FFF99C
30C188
30C190
30C1B0
30C1B0
30C198
30C19C
7CF9CE
000000
000038
000030
000010
000020
ENDCHAR
STARTCHAR f_f_l.liga
ENCODING -1
SWIDTH 1166 0
DWIDTH 19 0
BBX 18 14 0 0
BITMAP
039F80
0FE380
186180
104180
30C180
30C180
FFF980
30C180
30C180
30C180
30C180
30C180
30C180
7CF9C0
ENDCHAR
STARTCHAR f_f_lcaron.liga
ENCODING -1
SWIDTH 1166 0
DWIDTH 19 0
BBX 20 14 0 0
BITMAP
039F90
0FE3B0
186190
1041B0
30C1A0
30C180
FFF980
30C180
30C180
30C180
30C180
30C180
30C180
7CF9C0
ENDCHAR
STARTCHAR f_f_lcommaaccent.liga
ENCODING -1
SWIDTH 1166 0
DWIDTH 19 0
BBX 18 19 0 -5
BITMAP
039F80
0FE380
186180
104180
30C180
30C180
FFF980
30C180
30C180
30C180
30C180
30C180
30C180
7CF9C0
000000
0001C0
000180
000180
000100
ENDCHAR
STARTCHAR f_f_odieresis.liga
ENCODING -1
SWIDTH 1465 0
DWIDTH 23 0
BBX 22 14 0 0
BITMAP
039F08
0FE398
186198
104000
304000
304030
FFF8F8
30411C
30430C
30430C
30430C
30430C
304198
7C79F0
ENDCHAR
STARTCHAR f_h.liga
ENCODING -1
SWIDTH 1108 0
DWIDTH 18 0
BBX 17 14 0 0
BITMAP
07C000
08C000
10C000
30C000
30C000
30C400
FEDF00
30E300
30C300
30C300
30C300
30C300
30C300
7CF380
ENDCHAR
STARTCHAR f_idieresis.liga
ENCODING -1
SWIDTH 807 0
DWIDTH 13 0
BBX 13 14 0 0
BITMAP
0700
1B98
1118
3000
3000
3060
FFE0
3060
3060
3060
3060
3060
3060
7CF0
ENDCHAR
STARTCHAR f_igrave.liga
ENCODING -1
SWIDTH 777 0
DWIDTH 12 0
BBX 12 14 0 0
BITMAP
0780
1980
1040
3000
3000
3040
FFC0
30C0
3040
3040
3040
3040
3040
7C70
ENDCHAR
STARTCHAR f_iogonek.liga
ENCODING -1
SWIDTH 777 0
DWIDTH 12 0
BBX 12 18 0 -4
BITMAP
07C0
19E0
10C0
3000
3000
3040
FFC0
30C0
3040
3040
3040
3040
3040
7C70
0020
0040
00E0
0060
ENDCHAR
STARTCHAR f_j.liga
ENCODING -1
SWIDTH 767 0
DWIDTH 12 0
BBX 11 18 0 -4
BITMAP
07C0
19E0
10C0
3000
3000
3040
FFC0
30C0
3040
3040
3040
3040
3040
7C40
00C0
00C0
0080
0100
ENDCHAR
STARTCHAR f_k.liga
ENCODING -1
SWIDTH 1098 0
DWIDTH 18 0
BBX 17 14 0 0
BITMAP
07C000
08C000
10C000
30C000
30C000
30C780
FEC700
30C200
30C400
30C800
30CC00
30C600
30C700
7CF380
ENDCHAR
STARTCHAR f_kcommaaccent.liga
ENCODING -1
SWIDTH 1098 0
DWIDTH 18 0
BBX 17 19 0 -5
BITMAP
07C000
08C000
10C000
30C000
30C000
30C780
FEC700
30C200
30C400
30C800
30CC00
30C600
30C700
7CF380
000000
001E00
000C00
000C00
000800
ENDCHAR
STARTCHAR f_lcaron.liga
ENCODING -1
SWIDTH 777 0
DWIDTH 12 0
BBX 14 14 0 0
BITMAP
07CC
08CC
10CC
30C8
30C8
30C0
FEC0
30C0
30C0
30C0
30C0
30C0
30C0
7CF0
ENDCHAR
STARTCHAR f_lcommaaccent.liga
ENCODING -1
SWIDTH 777 0
DWIDTH 12 0
BBX 12 19 0 -5
BITMAP
07C0
08C0
10C0
30C0
30C0
30C0
FEC0
30C0
30C0
30C0
30C0
30C0
30C0
7CF0
0000
00E0
0060
0040
0040
ENDCHAR
STARTCHAR f_odieresis.liga
ENCODING -1
SWIDTH 1076 0
DWIDTH 17 0
BBX 16 14 0 0
BITMAP
07C0
08E6
1046
3000
3000
3018
FE7E
3047
30C3
30C3
30C3
30C3
30E6
7C78
ENDCHAR
STARTCHAR longs_t.liga
ENCODING -1
SWIDTH 869 0
DWIDTH 14 0
BBX 14 14 0 0
BITMAP
0780
09C0
10E0
1060
30E0
31E0
F1F8
3060
3060
3060
3060
3060
3068
7C7C
ENDCHAR
STARTCHAR s_t
ENCODING -1
SWIDTH 1015 0
DWIDTH 16 0
BBX 15 14 1 0
BITMAP
03C0
07E0
0C70
0C30
0C70
3C70
46FE
C230
7030
3C30
1E30
8630
C432
781C
ENDCHAR
STARTCHAR longs_b.liga
ENCODING -1
SWIDTH 1123 0
DWIDTH 18 0
BBX 17 14 0 0
BITMAP
07C000
08C000
10C000
30C000
30C000
30C600
F0DF00
30E300
30C180
30C180
30C180
30E100
30E200
7CBC00
ENDCHAR
STARTCHAR longs_h.liga
ENCODING -1
SWIDTH 1108 0
DWIDTH 18 0
BBX 17 14 0 0
BITMAP
07C000
08C000
10C000
30C000
30C000
30C400
F0DF00
30E300
30C300
30C300
30C300
30C300
30C300
7CF380
ENDCHAR
STARTCHAR longs_i.liga
ENCODING -1
SWIDTH 777 0
DWIDTH 12 0
BBX 12 14 0 0
BITMAP
07C0
19E0
10C0
3000
3000
3040
F1C0
30C0
3040
3040
3040
3040
3040
7C70
ENDCHAR
STARTCHAR longs_k.liga
ENCODING -1
SWIDTH 1097 0
DWIDTH 18 0
BBX 17 14 0 0
BITMAP
07C000
08C000
10C000
30C000
30C000
30C780
F0C700
30C200
30C400
30C800
30CC00
30CE00
30C700
7CF380
ENDCHAR
STARTCHAR longs_l.liga
ENCODING -1
SWIDTH 777 0
DWIDTH 12 0
BBX 12 14 0 0
BITMAP
07C0
08C0
10C0
30C0
30C0
30C0
F0C0
30C0
30C0
30C0
30C0
30C0
30C0
7CF0
ENDCHAR
STARTCHAR longs_longs.liga
ENCODING -1
SWIDTH 827 0
DWIDTH 13 0
BBX 15 14 0 0
BITMAP
039E
0FE6
1862
1040
3040
3040
F1C0
3040
3040
3040
3040
3040
3040
7C78
ENDCHAR
STARTCHAR longs_longs_i.liga
ENCODING -1
SWIDTH 1166 0
DWIDTH 19 0
BBX 18 14 0 0
BITMAP
039F00
0FE380
186300
104000
304000
304180
F1C780
304380
304180
304180
304180
304180
304180
7C79C0
ENDCHAR
STARTCHAR longs_longs_l.liga
ENCODING -1
SWIDTH 1166 0
DWIDTH 19 0
BBX 18 14 0 0
BITMAP
039F80
0FE380
186180
104180
304180
30C180
F1C180
30C180
30C180
30C180
30C180
30C180
30C180
7CF9C0
ENDCHAR
STARTCHAR uni0972.ss11
ENCODING -1
SWIDTH 1031 0
DWIDTH 17 0
BBX 20 20 -1 0
BITMAP
001000
001830
001830
000CF0
0007C0
000000
000000
FFFFC0
FFFFE0
006300
006300
0C6300
3F6300
30FF00
03CF00
071F00
0E3B00
006300
01C300
018100
ENDCHAR
STARTCHAR uni0904.ss11
ENCODING -1
SWIDTH 1031 0
DWIDTH 17 0
BBX 20 20 -2 0
BITMAP
800000
400000
300000
1FF000
020800
000400
000300
7FFFE0
7FFFF0
003180
003180
063180
1FB180
187F80
01E780
038F80
071D80
003180
00E180
00C080
ENDCHAR
STARTCHAR adeva.ss11
ENCODING -1
SWIDTH 1031 0
DWIDTH 17 0
BBX 19 13 -1 0
BITMAP
FFFFC0
FFFFE0
006300
006300
0C6300
3F6300
30FF00
03CF00
071F00
0E3B00
006300
01C300
018100
ENDCHAR
STARTCHAR aadeva.ss11
ENCODING -1
SWIDTH 1359 0
DWIDTH 22 0
BBX 24 13 -1 0
BITMAP
FFFFFE
FFFFFF
00630C
00630C
0C630C
3F630C
30FF0C
03CF0C
071F0C
0E3B0C
00630C
01C31C
01810C
ENDCHAR
STARTCHAR rvocalicdeva.ss11
ENCODING -1
SWIDTH 1031 0
DWIDTH 17 0
BBX 19 18 -1 -5
BITMAP
FFFFC0
FFFFE0
006300
006300
0C6300
3F6300
30FF00
03E300
076300
0E6300
006300
006300
002700
000600
000600
000400
0006E0
0001C0
ENDCHAR
STARTCHAR rrvocalicdeva.ss11
ENCODING -1
SWIDTH 1031 0
DWIDTH 17 0
BBX 19 19 -1 -6
BITMAP
FFFFC0
FFFFE0
006300
006300
0C6300
3F6300
30FF00
03E300
076300
0E6300
006300
006300
002F00
000C00
000C00
000780
000E00
000C40
0007E0
ENDCHAR
STARTCHAR uni0973.ss11
ENCODING -1
SWIDTH 1031 0
DWIDTH 17 0
BBX 19 21 -1 0
BITMAP
000300
000300
000300
000300
000300
000300
000000
000000
FFFFC0
FFFFE0
006300
006300
0C6300
3F6300
30FF00
03CF00
071F00
0E3B00
006300
01C300
018100
ENDCHAR
STARTCHAR uni0976.ss11
ENCODING -1
SWIDTH 1031 0
DWIDTH 17 0
BBX 19 17 -1 -4
BITMAP
FFFFC0
FFFFE0
006300
006300
0C6300
3F6300
30FF00
03CF00
071F00
0E3B00
006300
01C300
018100
000000
000000
003F80
001F00
ENDCHAR
STARTCHAR uni0977.ss11
ENCODING -1
SWIDTH 1031 0
DWIDTH 17 0
BBX 19 17 -1 -4
BITMAP
FFFFC0
FFFFE0
006300
006300
0C6300
3F6300
30FF00
03CF00
071F00
0E3B00
006300
01C300
018100
000000
000000
003F80
001F00
ENDCHAR
STARTCHAR uni093F.01
ENCODING -1
SWIDTH 328 0
DWIDTH 5 0
BBX 9 17 0 0
BITMAP
7800
6C00
6200
6100
F080
7000
3000
3000
3000
3000
3000
3000
3000
3000
3000
3000
1000
ENDCHAR
STARTCHAR uni093F.02
ENCODING -1
SWIDTH 328 0
DWIDTH 5 0
BBX 11 17 0 0
BITMAP
0F00
1D80
30C0
3040
F020
7000
3000
3000
3000
3000
3000
3000
3000
3000
3000
3000
1000
ENDCHAR
STARTCHAR uni093F.03
ENCODING -1
SWIDTH 328 0
DWIDTH 5 0
BBX 13 17 0 0
BITMAP
0F00
1FC0
3060
3010
F018
7000
3000
3000
3000
3000
3000
3000
3000
3000
3000
3000
1000
ENDCHAR
STARTCHAR uni093F.04
ENCODING -1
SWIDTH 328 0
DWIDTH 5 0
BBX 14 17 0 0
BITMAP
07C0
0FE0
1818
180C
F004
7000
3000
3000
3000
3000
3000
3000
3000
3000
3000
3000
1000
ENDCHAR
STARTCHAR uni093F.05
ENCODING -1
SWIDTH 328 0
DWIDTH 5 0
BBX 16 17 0 0
BITMAP
03E0
0FF8
1C0C
1802
F001
7000
3000
3000
3000
3000
3000
3000
3000
3000
3000
3000
1000
ENDCHAR
STARTCHAR uni093F.06
ENCODING -1
SWIDTH 328 0
DWIDTH 5 0
BBX 17 17 0 0
BITMAP
03F000
07B800
1C0600
180100
F00080
700000
300000
300000
300000
300000
300000
300000
300000
300000
300000
300000
100000
ENDCHAR
STARTCHAR uni093F.07
ENCODING -1
SWIDTH 328 0
DWIDTH 5 0
BBX 16 17 0 0
BITMAP
03F0
07FC
0C02
1801
F000
7000
3000
3000
3000
3000
3000
3000
3000
3000
3000
3000
1000
ENDCHAR
STARTCHAR uni093F.08
ENCODING -1
SWIDTH 328 0
DWIDTH 5 0
BBX 18 17 0 0
BITMAP
03F000
07FC00
0E0300
180080
F00040
700000
300000
300000
300000
300000
300000
300000
300000
300000
300000
300000
100000
ENDCHAR
STARTCHAR uni093F.09
ENCODING -1
SWIDTH 328 0
DWIDTH 5 0
BBX 19 17 0 0
BITMAP
01F800
07FE00
0E0100
1800C0
F00020
700000
300000
300000
300000
300000
300000
300000
300000
300000
300000
300000
100000
ENDCHAR
STARTCHAR uni093F.10
ENCODING -1
SWIDTH 328 0
DWIDTH 5 0
BBX 20 17 0 0
BITMAP
01F800
07FE00
0E0180
180040
F80010
700000
300000
300000
300000
300000
300000
300000
300000
300000
300000
300000
100000
ENDCHAR
STARTCHAR uni093F.11
ENCODING -1
SWIDTH 328 0
DWIDTH 5 0
BBX 19 17 0 0
BITMAP
01FC00
07FF00
0E00C0
180020
F80000
700000
300000
300000
300000
300000
300000
300000
300000
300000
300000
300000
100000
ENDCHAR
STARTCHAR uni093F.12
ENCODING -1
SWIDTH 328 0
DWIDTH 5 0
BBX 21 17 0 0
BITMAP
01FC00
07FF80
0E00C0
1C0010
F80008
700000
300000
300000
300000
300000
300000
300000
300000
300000
300000
300000
100000
ENDCHAR
STARTCHAR uni093F.13
ENCODING -1
SWIDTH 328 0
DWIDTH 5 0
BBX 22 17 0 0
BITMAP
01FE00
07FF80
0E0060
1C0018
F80004
700000
300000
300000
300000
300000
300000
300000
300000
300000
300000
300000
100000
ENDCHAR
STARTCHAR uni093F.14
ENCODING -1
SWIDTH 328 0
DWIDTH 5 0
BBX 23 17 0 0
BITMAP
01FE00
07FFC0
0E0070
1C0008
F80002
700000
300000
300000
300000
300000
300000
300000
300000
300000
300000
300000
100000
ENDCHAR
STARTCHAR uni093F.15
ENCODING -1
SWIDTH 328 0
DWIDTH 5 0
BBX 24 17 0 0
BITMAP
00FF00
07F7C0
0E0030
1C000C
F80001
700000
300000
300000
300000
300000
300000
300000
300000
300000
300000
300000
100000
ENDCHAR
STARTCHAR uni093F.16
ENCODING -1
SWIDTH 328 0
DWIDTH 5 0
BBX 24 17 0 0
BITMAP
00FF00
03F7E0
0E0038
1C0006
F80001
700000
300000
300000
300000
300000
300000
300000
300000
300000
300000
300000
100000
ENDCHAR
STARTCHAR uni093F.17
ENCODING -1
SWIDTH 328 0
DWIDTH 5 0
BBX 25 17 0 0
BITMAP
00FF8000
03FFE000
0F001C00
1C000200
F8000080
70000000
30000000
30000000
30000000
30000000
30000000
30000000
30000000
30000000
30000000
30000000
10000000
ENDCHAR
STARTCHAR uni093F.18
ENCODING -1
SWIDTH 328 0
DWIDTH 5 0
BBX 26 17 0 0
BITMAP
00FF8000
03FFF000
0F000C00
1C000300
F8000040
70000000
30000000
30000000
30000000
30000000
30000000
30000000
30000000
30000000
30000000
30000000
10000000
ENDCHAR
STARTCHAR uni093F.19
ENCODING -1
SWIDTH 328 0
DWIDTH 5 0
BBX 27 17 0 0
BITMAP
00FFC000
03FFF800
0F000E00
1C000180
F8000060
70000000
30000000
30000000
30000000
30000000
30000000
30000000
30000000
30000000
30000000
30000000
10000000
ENDCHAR
STARTCHAR uni093F.20
ENCODING -1
SWIDTH 328 0
DWIDTH 5 0
BBX 28 17 0 0
BITMAP
007FC000
03FFF800
0F000700
1C0000C0
F8000030
70000000
30000000
30000000
30000000
30000000
30000000
30000000
30000000
30000000
30000000
30000000
10000000
ENDCHAR
STARTCHAR uni093F.21
ENCODING -1
SWIDTH 328 0
DWIDTH 5 0
BBX 28 17 0 0
BITMAP
007FE000
03FFFC00
0F000700
1C0000C0
F8000010
70000000
30000000
30000000
30000000
30000000
30000000
30000000
30000000
30000000
30000000
30000000
10000000
ENDCHAR
STARTCHAR uni093F.22
ENCODING -1
SWIDTH 328 0
DWIDTH 5 0
BBX 29 17 0 0
BITMAP
007FE000
03FFFC00
0F000380
1C000060
F8000008
70000000
30000000
30000000
30000000
30000000
30000000
30000000
30000000
30000000
30000000
30000000
10000000
ENDCHAR
STARTCHAR uni093F.23
ENCODING -1
SWIDTH 328 0
DWIDTH 5 0
BBX 30 17 0 0
BITMAP
007FE000
03FFFE00
0F0003C0
1C000030
F800000C
70000000
30000000
30000000
30000000
30000000
30000000
30000000
30000000
30000000
30000000
30000000
10000000
ENDCHAR
STARTCHAR uni093F.24
ENCODING -1
SWIDTH 328 0
DWIDTH 5 0
BBX 31 17 0 0
BITMAP
007FF000
03FFFE00
070001C0
1C000030
F8000006
70000000
30000000
30000000
30000000
30000000
30000000
30000000
30000000
30000000
30000000
30000000
10000000
ENDCHAR
STARTCHAR uni093F.25
ENCODING -1
SWIDTH 328 0
DWIDTH 5 0
BBX 31 17 0 0
BITMAP
007FF000
03FFFF00
078001E0
1C000018
F8000002
70000000
30000000
30000000
30000000
30000000
30000000
30000000
30000000
30000000
30000000
30000000
10000000
ENDCHAR
STARTCHAR uni093F.26
ENCODING -1
SWIDTH 328 0
DWIDTH 5 0
BBX 32 17 0 0
BITMAP
003FF800
01FFFF80
078000E0
1C00000C
F8000001
70000000
30000000
30000000
30000000
30000000
30000000
30000000
30000000
30000000
30000000
30000000
10000000
ENDCHAR
STARTCHAR uni093F.27
ENCODING -1
SWIDTH 328 0
DWIDTH 5 0
BBX 33 17 0 0
BITMAP
003FF80000
01FFFF8000
078000F000
1C00000E00
F800000180
7000000000
3000000000
3000000000
3000000000
3000000000
3000000000
3000000000
3000000000
3000000000
3000000000
3000000000
1000000000
ENDCHAR
STARTCHAR uni093F.28
ENCODING -1
SWIDTH 328 0
DWIDTH 5 0
BBX 34 17 0 0
BITMAP
003FFC0000
01FF7FC000
0780007800
1C00000600
F8000000C0
7000000000
3000000000
3000000000
3000000000
3000000000
3000000000
3000000000
3000000000
3000000000
3000000000
3000000000
1000000000
ENDCHAR
STARTCHAR uni093F.29
ENCODING -1
SWIDTH 328 0
DWIDTH 5 0
BBX 34 17 0 0
BITMAP
003FFC0000
01FFFFC000
0780007800
1E00000700
F800000040
7000000000
3000000000
3000000000
3000000000
3000000000
3000000000
3000000000
3000000000
3000000000
3000000000
3000000000
1000000000
ENDCHAR
STARTCHAR uni093F.30
ENCODING -1
SWIDTH 328 0
DWIDTH 5 0
BBX 35 17 0 0
BITMAP
003FFE0000
01FF7FE000
0780003C00
1E00000380
F800000020
7000000000
3000000000
3000000000
3000000000
3000000000
3000000000
3000000000
3000000000
3000000000
3000000000
3000000000
1000000000
ENDCHAR
STARTCHAR uni0940.01
ENCODING -1
SWIDTH 328 0
DWIDTH 5 0
BBX 12 17 -5 0
BITMAP
7800
EC00
C600
4300
27E0
03F0
0180
0180
0180
0180
0180
0180
0180
0180
0180
0180
0080
ENDCHAR
STARTCHAR uni0940.02
ENCODING -1
SWIDTH 328 0
DWIDTH 5 0
BBX 13 17 -6 0
BITMAP
3C00
7600
6100
C080
C3F0
01F8
00C0
00C0
00C0
00C0
00C0
00C0
00C0
00C0
00C0
00C0
0040
ENDCHAR
STARTCHAR uni0940.03
ENCODING -1
SWIDTH 328 0
DWIDTH 5 0
BBX 14 17 -7 0
BITMAP
3C00
7F00
C180
C0C0
C1F8
00FC
0060
0060
0060
0060
0060
0060
0060
0060
0060
0060
0020
ENDCHAR
STARTCHAR uni0940.04
ENCODING -1
SWIDTH 328 0
DWIDTH 5 0
BBX 16 17 -9 0
BITMAP
1F00
3F80
6040
E020
C07E
403F
0018
0018
0018
0018
0018
0018
0018
0018
0018
0018
0008
ENDCHAR
STARTCHAR uni0940.07
ENCODING -1
SWIDTH 328 0
DWIDTH 5 0
BBX 19 17 -12 0
BITMAP
0FC000
3FE000
701800
E00400
C00FC0
4007E0
000300
000300
000300
000300
000300
000300
000300
000300
000300
000300
000100
ENDCHAR
STARTCHAR uni0940.09
ENCODING -1
SWIDTH 328 0
DWIDTH 5 0
BBX 21 17 -14 0
BITMAP
07E000
1FF800
380600
700100
E003F0
4001F8
0000C0
0000C0
0000C0
0000C0
0000C0
0000C0
0000C0
0000C0
0000C0
0000C0
000040
ENDCHAR
STARTCHAR jhadeva.ss11
ENCODING -1
SWIDTH 1128 0
DWIDTH 18 0
BBX 19 13 0 0
BITMAP
E3FFC0
F9FFE0
086000
0C6000
0C6000
0C6000
7FFE00
3C6300
386180
006180
006180
006180
002180
ENDCHAR
STARTCHAR nnadeva.ss11
ENCODING -1
SWIDTH 943 0
DWIDTH 15 0
BBX 19 17 -2 -4
BITMAP
FFFF80
7FFFE0
033300
033300
0B3300
1F3300
0F3300
063300
023300
011300
008300
004300
003100
000800
000400
000200
000100
ENDCHAR
STARTCHAR uni0932.loclMAR
ENCODING -1
SWIDTH 919 0
DWIDTH 15 0
BBX 17 11 -1 2
BITMAP
FFFF00
7FFF80
003000
003000
0E7000
1DF800
198C00
180C00
180C00
043C00
020000
ENDCHAR
STARTCHAR uni0932.ss11
ENCODING -1
SWIDTH 867 0
DWIDTH 14 0
BBX 16 13 -1 0
BITMAP
FFFE
7FFF
000C
000C
0E0C
1D9C
18FC
19EC
188C
040C
020C
001C
000C
ENDCHAR
STARTCHAR shadeva.loclMAR
ENCODING -1
SWIDTH 848 0
DWIDTH 14 0
BBX 16 15 -1 -2
BITMAP
FFFE
7FFF
0408
0408
1E08
1B08
1B08
1B08
0708
0308
1F08
0F18
06C8
0060
0010
ENDCHAR
STARTCHAR kadeva_radeva
ENCODING -1
SWIDTH 1037 0
DWIDTH 17 0
BBX 19 13 -1 0
BITMAP
FFFFC0
7FFFE0
00C000
00C000
0CF800
1EFE00
18E300
18C300
19C700
0FCE00
07C000
0EC000
0C4000
ENDCHAR
STARTCHAR uni0915094D091A
ENCODING -1
SWIDTH 1107 0
DWIDTH 18 0
BBX 20 17 -1 -4
BITMAP
FFFFE0
FFFFF0
006000
006000
066C00
0F7B00
0C7180
0C6180
0CE180
07E700
0C6000
1C6000
34E000
63E000
206000
006000
002000
ENDCHAR
STARTCHAR uni0915094D0923
ENCODING -1
SWIDTH 1546 0
DWIDTH 25 0
BBX 27 13 -1 0
BITMAP
FFFFFFC0
7FFFFFE0
00C63180
00C63180
0CFE3180
1EF63180
18E63180
18C27180
19C1E180
0FC00180
00C00180
00C00380
00C00180
ENDCHAR
STARTCHAR uni0915094D0923.ss11
ENCODING -1
SWIDTH 1560 0
DWIDTH 25 0
BBX 27 17 -1 -4
BITMAP
FFFFFFC0
7FFFFFE0
00C19980
00C19980
0CFD9980
1EFF9980
18E79980
18C31980
19C11980
0FC08980
00C04180
00C02380
00401180
00000C00
00000200
00000100
00000080
ENDCHAR
STARTCHAR uni0915094D0924
ENCODING -1
SWIDTH 1157 0
DWIDTH 19 0
BBX 20 13 -1 0
BITMAP
FFFFE0
7FFFF0
003000
003000
3FFE00
3FFF80
0E30C0
0630C0
0631C0
033380
003000
003000
001000
ENDCHAR
STARTCHAR uni0915094D09240930
ENCODING -1
SWIDTH 1257 0
DWIDTH 20 0
BBX 22 13 -1 0
BITMAP
FFFFF8
7FFFFC
000C00
000C00
3FFF80
3FFF40
0E3C60
066C70
06CC60
034DE0
000C00
001C00
000C00
ENDCHAR
STARTCHAR uni0915094D0924094D0924
ENCODING -1
SWIDTH 1157 0
DWIDTH 19 0
BBX 20 15 -1 -2
BITMAP
FFFFE0
7FFFF0
003000
003000
3FFE00
3FFF80
0030C0
3FF0C0
3FF1C0
063380
0E3000
063000
023000
013000
001000
ENDCHAR
STARTCHAR uni0915094D0924094D092F
ENCODING -1
SWIDTH 1509 0
DWIDTH 24 0
BBX 27 13 -1 0
BITMAP
FFFFFFC0
7FFFFFE0
00180300
00180300
001E0300
3FFFC300
06186300
0618E300
061BE700
02198F00
0198FF00
00980300
00080100
ENDCHAR
STARTCHAR uni0915094D0924094D0935
ENCODING -1
SWIDTH 1559 0
DWIDTH 25 0
BBX 27 13 -1 0
BITMAP
FFFFFFC0
7FFFFFE0
00C00180
00C00180
0CFC1180
1EF67980
18E7E180
18C76180
19C62380
0FC61F80
00C20180
00C10380
00408180
ENDCHAR
STARTCHAR uni0915094D0925
ENCODING -1
SWIDTH 1569 0
DWIDTH 25 0
BBX 28 13 -1 0
BITMAP
FFFCC7E0
7FFFA7F0
00C3B180
00C1B180
0CFCF180
1EF67180
18E1E180
18C18380
19C0C780
0FC03F80
00C00180
00C00180
00400080
ENDCHAR
STARTCHAR uni0915094D092A
ENCODING -1
SWIDTH 1305 0
DWIDTH 21 0
BBX 23 13 -1 0
BITMAP
FFFFFC
7FFFFE
00C618
00C618
0CFE18
1EF618
18E638
18C278
19C1F8
0FC018
00C018
00C038
00C018
ENDCHAR
STARTCHAR uni0915094D092A0930
ENCODING -1
SWIDTH 1305 0
DWIDTH 21 0
BBX 23 13 -1 0
BITMAP
FFFFFC
7FFFFE
00C618
00C618
0CFE18
1EF618
18E638
18C278
19C1F8
0FC1D8
00C398
00C738
00C618
ENDCHAR
STARTCHAR uni0915094D092B
ENCODING -1
SWIDTH 1695 0
DWIDTH 27 0
BBX 29 13 -1 0
BITMAP
FFFFFFF0
7FFFFFF8
00C61800
00C61800
0CFE1F00
1EF61E80
18E638C0
18C278E0
19C1F8C0
0FC01BC0
00C01800
00C03800
00C01800
ENDCHAR
STARTCHAR uni0915094D092E
ENCODING -1
SWIDTH 1255 0
DWIDTH 20 0
BBX 23 13 -1 0
BITMAP
FFFFF8
7FFFFE
00C030
00C030
0CF830
1EFE30
18E330
18CFF0
19DFF0
0FCE30
00C630
00C030
00C010
ENDCHAR
STARTCHAR uni0915094D092F
ENCODING -1
SWIDTH 1295 0
DWIDTH 21 0
BBX 23 13 -1 0
BITMAP
FFFFFC
7FFFFE
00C018
00C018
0CF818
1EFE18
18E318
18C318
19C738
0FCE78
00C7F8
00C3B8
004018
ENDCHAR
STARTCHAR uni0915094D0930
ENCODING -1
SWIDTH 627 0
DWIDTH 10 0
BBX 15 13 -1 0
BITMAP
FFFC
7FFE
00C0
00C0
0CF8
1EFE
38E0
18C0
19C0
0FC0
07C0
0EC0
0C40
ENDCHAR
STARTCHAR uni0915094D0937
ENCODING -1
SWIDTH 864 0
DWIDTH 14 0
BBX 13 16 2 -3
BITMAP
31F0
6DF8
6C60
6C60
3C60
39E0
7FE0
E760
C060
9C60
DE60
7EE0
3E60
0400
0200
0100
ENDCHAR
STARTCHAR uni0915094D0937.ss11
ENCODING -1
SWIDTH 1013 0
DWIDTH 16 0
BBX 19 16 -1 -3
BITMAP
FFFFC0
7FFFE0
000300
000300
000300
3FFF00
060300
060300
040300
046300
067300
03FB00
00F100
001000
000800
000400
ENDCHAR
STARTCHAR uni0915094D09370930
ENCODING -1
SWIDTH 934 0
DWIDTH 15 0
BBX 15 16 1 -3
BITMAP
387C
7C7E
6418
6E18
3C18
38F8
7FF8
E3B8
C078
CCF8
DED8
7E38
1E18
0600
0300
0080
ENDCHAR
STARTCHAR uni0915094D0937094D
ENCODING -1
SWIDTH 536 0
DWIDTH 9 0
BBX 10 16 2 -3
BITMAP
3000
6C00
6C00
6C00
3C00
39C0
7FC0
E700
C000
9C00
DE00
7E00
3E00
0400
0200
0100
ENDCHAR
STARTCHAR uni0915094D0937094D092E
ENCODING -1
SWIDTH 1270 0
DWIDTH 20 0
BBX 21 16 1 -3
BITMAP
39FFF0
7DFFF8
6410C0
6E10C0
3C10C0
3810C0
7CFFC0
E7F0C0
C1F0C0
CC00C0
DE00C0
7E00C0
1E0040
040000
030000
008000
ENDCHAR
STARTCHAR uni0915094D0937094D092F
ENCODING -1
SWIDTH 1258 0
DWIDTH 20 0
BBX 21 16 1 -3
BITMAP
3BFFF0
7DFFF8
6410C0
6E18C0
3C18C0
3838C0
7C71C0
E7E3C0
C1FFC0
CC00C0
CE00C0
7E00C0
1E0040
060000
030000
008000
ENDCHAR
STARTCHAR uni0915094D0937094D0935
ENCODING -1
SWIDTH 1164 0
DWIDTH 19 0
BBX 19 16 1 -3
BITMAP
3BFFC0
7DFFE0
640100
6E0100
3C3100
387900
7C6100
E7E300
C1E700
CC3F00
DE0100
7E0300
1E0100
040000
030000
008000
ENDCHAR
STARTCHAR uni0915094D0938094D091F
ENCODING -1
SWIDTH 1791 0
DWIDTH 29 0
BBX 31 13 -1 0
BITMAP
FFFFFFFC
7FFFFFFE
00C100C0
00C180C0
0CF980C0
1EF787C0
18EF8600
18CFFE00
19C73C00
0FC20C00
00C18418
00C0C238
004021F0
ENDCHAR
STARTCHAR uni0915094D0938094D0921
ENCODING -1
SWIDTH 1805 0
DWIDTH 29 0
BBX 31 13 -1 0
BITMAP
FFFFFFFC
7FFFFFFE
00C10030
00C181F0
0CD987F0
1EF78E00
18EFFE00
18CFBBF0
19C701F8
0FC2000C
00C1881C
00C0C7F8
004021F0
ENDCHAR
STARTCHAR uni0915094D0938094D0924
ENCODING -1
SWIDTH 1795 0
DWIDTH 29 0
BBX 31 13 -1 0
BITMAP
FFFFFFFC
7FFFFFFE
00C10018
00C18018
0CF98018
1EF78018
18EF87F8
18CFFE18
19C73C18
0FC20C18
00C18618
00C0C138
00402098
ENDCHAR
STARTCHAR uni0915094D0938094D092A094D0932
ENCODING -1
SWIDTH 2210 0
DWIDTH 35 0
BBX 38 13 -1 0
BITMAP
FFFFFFFFF8
7FFFFFFFFC
00C1180060
00C1980060
0CFD987060
1EF798ECE0
18EF98C7E0
18CFFDC7E0
19C73FC660
0FC2002060
00C1801060
00C0C00060
0040200020
ENDCHAR
STARTCHAR khadeva_radeva
ENCODING -1
SWIDTH 1084 0
DWIDTH 17 0
BBX 21 14 -2 -1
BITMAP
FFFFF0
7FFFF8
0200C0
0300C0
030CC0
031EC0
1F38C0
1F10C0
0F19C0
060FC0
0307C0
008EC0
004C40
000800
ENDCHAR
STARTCHAR uni0916094D0916
ENCODING -1
SWIDTH 1920 0
DWIDTH 31 0
BBX 34 13 -2 0
BITMAP
FFFFFFFF80
7FFFFFFFC0
0200180300
0300180300
030C0C6300
031E0CF300
1F387CC300
1F3078C700
0F18F8C700
060F907F00
0300080300
0080040700
0040020300
ENDCHAR
STARTCHAR uni0916094D0928
ENCODING -1
SWIDTH 1504 0
DWIDTH 24 0
BBX 27 13 -2 0
BITMAP
FFFFFFC0
7FFFFFE0
02000180
03000180
030C0180
031E0180
1F38FF80
1F307980
0F18F180
060F8180
03000180
00800180
00400080
ENDCHAR
STARTCHAR uni0916094D092E
ENCODING -1
SWIDTH 1620 0
DWIDTH 26 0
BBX 29 13 -2 0
BITMAP
FFFFFFF0
7FFFFFF8
02001860
03001860
030C1860
031E1860
1F38FFE0
1F307860
0F18F060
060F8060
03000060
008000E0
00400060
ENDCHAR
STARTCHAR uni0916094D092F
ENCODING -1
SWIDTH 1568 0
DWIDTH 25 0
BBX 29 13 -2 0
BITMAP
FFFFFFE0
7FFFFFF8
020010C0
030018C0
030C18C0
031E38C0
1F3871C0
1F3063C0
0F18FFC0
060F80C0
030000C0
008000C0
00400040
ENDCHAR
STARTCHAR uni0916094D0930
ENCODING -1
SWIDTH 756 0
DWIDTH 12 0
BBX 18 13 -2 0
BITMAP
FFFF80
7FFFC0
020000
030000
030C00
031E00
1F3800
1F30C0
0F19C0
060F80
030700
008E00
004C00
ENDCHAR
STARTCHAR uni0916094D0936
ENCODING -1
SWIDTH 1587 0
DWIDTH 25 0
BBX 29 13 -2 0
BITMAP
FFFC63F0
7FFEF1F8
0200D8C0
030078C0
030C18C0
031E18C0
1F38F8C0
1F10F8C0
0F18F8C0
060F86C0
010000C0
008000C0
00400040
ENDCHAR
STARTCHAR gadeva_radeva
ENCODING -1
SWIDTH 768 0
DWIDTH 12 0
BBX 16 14 -2 -1
BITMAP
FFFE
7FFF
0318
0318
0318
0318
1F18
1F18
0E38
0078
00F8
01D8
0388
0100
ENDCHAR
STARTCHAR uni09170930092F
ENCODING -1
SWIDTH 1142 0
DWIDTH 18 0
BBX 22 14 -2 -1
BITMAP
FFFFF8
7FFFFC
030C60
030C60
030C60
031C60
1F3860
1F31E0
0E7FE0
00E060
01C060
038060
070020
020000
ENDCHAR
STARTCHAR uni0917094D0928
ENCODING -1
SWIDTH 768 0
DWIDTH 12 0
BBX 16 14 -2 -1
BITMAP
FFFE
7FFF
0318
0318
0318
0318
1F18
1F38
0E78
00D8
01D8
03D8
01C8
0040
ENDCHAR
STARTCHAR uni0917094D092D
ENCODING -1
SWIDTH 1133 0
DWIDTH 18 0
BBX 22 13 -2 0
BITMAP
FFE1F8
7FF9FC
030C60
030C60
030C60
030C60
1F7FE0
1F3C60
0E1860
000060
000060
000060
000020
ENDCHAR
STARTCHAR uni0917094D092D094D092F
ENCODING -1
SWIDTH 1537 0
DWIDTH 25 0
BBX 28 13 -2 0
BITMAP
FFE3FFE0
7FFBFFF0
030C3080
030C1080
030C3880
030C7080
1F7FF180
1F3C4380
0E183E80
00000080
00000080
00000180
00000080
ENDCHAR
STARTCHAR uni0917094D0930
ENCODING -1
SWIDTH 440 0
DWIDTH 7 0
BBX 13 14 -2 -1
BITMAP
FF80
7FC0
0300
0300
0300
0300
1F00
1F10
0E38
0070
00E0
01C0
0380
0100
ENDCHAR
STARTCHAR ghadeva_radeva
ENCODING -1
SWIDTH 854 0
DWIDTH 14 0
BBX 16 16 -1 -3
BITMAP
FFFE
FFFF
1E0C
380C
300C
180C
0F8C
0C0C
1C1C
0C3C
07EC
01FC
01CC
0380
0700
0200
ENDCHAR
STARTCHAR uni0918094D0930
ENCODING -1
SWIDTH 526 0
DWIDTH 8 0
BBX 14 16 -1 -3
BITMAP
FFF8
FFFC
1E00
3800
3000
1800
0F80
0C00
1C18
0C30
07E0
00E0
01C0
0380
0700
0200
ENDCHAR
STARTCHAR uni0919094D0915
ENCODING -1
SWIDTH 792 0
DWIDTH 13 0
BBX 17 21 -2 -8
BITMAP
FFFF00
7FFF80
003000
03F000
07F600
0E0600
05C200
23F000
113000
0C7000
07E000
00C000
1CF800
3CF400
30C600
30C700
11C700
0FDE00
00C000
00C000
004000
ENDCHAR
STARTCHAR uni0919094D09150930
ENCODING -1
SWIDTH 792 0
DWIDTH 13 0
BBX 17 21 -2 -8
BITMAP
FFFF00
7FFF80
003000
03F000
07F600
0E0600
05C200
23F000
113000
0C7000
07E000
00C000
1CF800
3CF400
30C600
30C700
11C600
0FDE00
07C000
0EC000
0C4000
ENDCHAR
STARTCHAR uni0919094D0915094D0937
ENCODING -1
SWIDTH 792 0
DWIDTH 13 0
BBX 17 24 -2 -11
BITMAP
FFFF00
7FFF80
003000
03F000
07F600
0E0600
04C200
23E000
113000
0C7000
07F000
783000
6C3000
6C7000
7FF000
39B000
703000
673000
273000
1FB000
073000
010000
00C000
004000
ENDCHAR
STARTCHAR uni0919094D0915094D0937.ss11
ENCODING -1
SWIDTH 792 0
DWIDTH 13 0
BBX 18 22 -3 -9
BITMAP
7FFF80
3FFFC0
001800
01F800
03FB00
070300
026100
11F000
089800
063800
03F800
001800
001800
FFF800
1C1800
181800
1B9800
0BD800
07D800
03D800
00D800
006000
ENDCHAR
STARTCHAR uni0919094D0916
ENCODING -1
SWIDTH 1142 0
DWIDTH 18 0
BBX 22 20 -2 -7
BITMAP
FFFFF8
7FFFFC
003060
03F060
07F660
0E0660
04C260
23F060
113060
0C7060
07E060
018260
00CF60
07DC60
07D860
038CE0
0107E0
0081E0
004060
003020
ENDCHAR
STARTCHAR uni0919094D0917
ENCODING -1
SWIDTH 792 0
DWIDTH 13 0
BBX 17 18 -2 -5
BITMAP
FFFF00
7FFF80
003000
03F000
07F600
0E0600
05C200
23F000
113000
0C7000
07F000
063000
063000
3E3000
1E3000
0C3000
003000
001000
ENDCHAR
STARTCHAR uni0919094D09170930
ENCODING -1
SWIDTH 792 0
DWIDTH 13 0
BBX 17 18 -2 -5
BITMAP
FFFF00
7FFF80
003000
03F000
07F600
0E0600
05C200
23F000
113000
0C7000
07F000
063000
063000
3E3000
1E7000
0CF000
01F000
019000
ENDCHAR
STARTCHAR uni0919094D0918
ENCODING -1
SWIDTH 868 0
DWIDTH 14 0
BBX 18 18 -2 -5
BITMAP
FFFF80
7FFFC0
001800
00F800
03F900
030100
036100
01F800
088C00
1E3800
3FF800
301800
101800
0F1800
0E1800
0C3800
06F800
03C800
ENDCHAR
STARTCHAR uni0919094D09180930
ENCODING -1
SWIDTH 868 0
DWIDTH 14 0
BBX 18 21 -2 -8
BITMAP
FFFF80
7FFFC0
001800
00F800
03F900
030100
036100
01F800
088C00
1E3800
3FF800
301800
101800
0F1800
0E1800
0C3800
06F800
03E800
01C000
038000
010000
ENDCHAR
STARTCHAR uni0919094D092E
ENCODING -1
SWIDTH 1114 0
DWIDTH 18 0
BBX 21 18 -2 -5
BITMAP
FFFFF0
7FFFF8
003060
03F060
07F660
0E0660
04C260
23E060
113060
0C7060
07F060
003060
003060
01FFE0
01FFE0
00E060
0000E0
000020
ENDCHAR
STARTCHAR uni0919094D092F
ENCODING -1
SWIDTH 1160 0
DWIDTH 19 0
BBX 22 13 -2 0
BITMAP
FFFFF8
7FFFFC
003020
03F020
07F620
0E0620
040220
07E060
01F0E0
101FE0
081BE0
07F860
03E020
ENDCHAR
STARTCHAR uni0919094D0930
ENCODING -1
SWIDTH 832 0
DWIDTH 13 0
BBX 18 21 -2 -8
BITMAP
FFFF80
7FFFC0
003000
03F000
07F600
0E0600
040200
07E000
01F000
101800
081800
07F800
03E000
00E000
019000
018800
010400
002000
001000
000800
000400
ENDCHAR
STARTCHAR cadeva_radeva
ENCODING -1
SWIDTH 838 0
DWIDTH 13 0
BBX 16 14 -1 -1
BITMAP
FFFE
FFFF
0018
0018
3F98
3FD8
0718
0318
0338
01F8
00F8
01D8
0188
0100
ENDCHAR
STARTCHAR uni091A094D091A
ENCODING -1
SWIDTH 1108 0
DWIDTH 18 0
BBX 20 13 -1 0
BITMAP
FFFFE0
FFFFF0
0000C0
0000C0
3FF8C0
3FFCC0
0630C0
0631C0
0671C0
03FFC0
0000C0
0001C0
0000C0
ENDCHAR
STARTCHAR uni091A094D091B
ENCODING -1
SWIDTH 1504 0
DWIDTH 24 0
BBX 27 13 -1 0
BITMAP
FFFFFFC0
FFFFFFE0
00000C00
000C0C00
3F1E0E00
3F981B00
06191900
060F9980
061E1B80
03FC0780
000C0700
00061E00
0001F800
ENDCHAR
STARTCHAR uni091A094D0928
ENCODING -1
SWIDTH 1168 0
DWIDTH 19 0
BBX 21 13 -1 0
BITMAP
FFFFF0
FFFFF8
000060
000060
3F0060
3F8060
063FE0
063C60
063C60
03F060
000060
0000E0
000060
ENDCHAR
STARTCHAR uni091A094D092E
ENCODING -1
SWIDTH 1284 0
DWIDTH 21 0
BBX 23 13 -1 0
BITMAP
FFFFFC
FFFFFE
000630
000630
3F0630
3F8630
063FF0
063C30
063C30
03F030
000030
000030
000010
ENDCHAR
STARTCHAR uni091A094D092F
ENCODING -1
SWIDTH 1232 0
DWIDTH 20 0
BBX 22 13 -1 0
BITMAP
FFFFF8
FFFFFC
000C30
000630
3F0E30
3F8E30
063C70
0610F0
063FF0
03F030
000030
000070
000030
ENDCHAR
STARTCHAR uni091A094D0930
ENCODING -1
SWIDTH 510 0
DWIDTH 8 0
BBX 13 13 -1 0
BITMAP
FFF0
FFF8
0000
0000
3F80
3FC0
0700
0318
0338
01F0
00E0
01C0
0180
ENDCHAR
STARTCHAR uni091B094D092F
ENCODING -1
SWIDTH 1412 0
DWIDTH 23 0
BBX 25 13 -1 0
BITMAP
FFFFFF00
FFFFFF80
000C0400
0C0C0400
1E1E0400
381B0400
191B0400
0F9B0400
0E1B8C00
0C0F1C00
0C07FC00
061EEC00
01F80400
ENDCHAR
STARTCHAR uni091B094D0930
ENCODING -1
SWIDTH 994 0
DWIDTH 16 0
BBX 19 21 -1 -8
BITMAP
FFFFC0
FFFFE0
000000
0C0000
1E1E00
381B00
191B00
0F9B00
0E1B80
0C0F00
0C0700
061E00
01F800
007000
006800
00E400
00C300
000800
000400
000200
000100
ENDCHAR
STARTCHAR jadeva_radeva
ENCODING -1
SWIDTH 828 0
DWIDTH 13 0
BBX 16 16 -1 -3
BITMAP
FFFE
7FFF
0018
0018
0018
0018
0FF8
0418
0218
0198
2198
1998
0FB8
0070
00E0
00C0
ENDCHAR
STARTCHAR uni091C094D0915
ENCODING -1
SWIDTH 1477 0
DWIDTH 24 0
BBX 26 13 -1 0
BITMAP
FFFFFF80
7FFFFFC0
00018000
00018000
0019F000
003DFC00
1FF1C600
0C318600
02338E00
031F9C00
41818000
33818000
0F008000
ENDCHAR
STARTCHAR uni091C094D091C
ENCODING -1
SWIDTH 1358 0
DWIDTH 22 0
BBX 24 13 -1 0
BITMAP
FFFFFE
7FFFFF
00000C
00000C
00000C
00000C
1FFFFC
0C020C
02010C
03008C
41A0CC
3399DC
0F078C
ENDCHAR
STARTCHAR uni091C094D091C094D091E
ENCODING -1
SWIDTH 1298 0
DWIDTH 21 0
BBX 23 15 -1 -2
BITMAP
FFFFFC
7FFFFE
000018
000018
000018
000018
1FFFF8
0C0418
020218
030118
41BF98
339FB8
0F0F18
000080
000060
ENDCHAR
STARTCHAR uni091C094D091C094D092F
ENCODING -1
SWIDTH 1632 0
DWIDTH 26 0
BBX 29 13 -1 0
BITMAP
FFFFFFF0
7FFFFFF8
000010C0
000018C0
000018C0
000038C0
1FFFF1C0
0C0463C0
02023FC0
030180C0
41A180C0
339980C0
0F0F8040
ENDCHAR
STARTCHAR uni091C094D091C094D0935
ENCODING -1
SWIDTH 1548 0
DWIDTH 25 0
BBX 27 13 -1 0
BITMAP
FFFFFFC0
7FFFFFE0
00000180
00000180
00003180
00007980
1FFFE180
0C046380
02026380
0301BF80
41A18180
33998380
0F0F8180
ENDCHAR
STARTCHAR uni091C094D091D
ENCODING -1
SWIDTH 1530 0
DWIDTH 24 0
BBX 27 17 -1 -4
BITMAP
FFFFFFC0
7FFFFFE0
00006300
0007E300
000FE300
001C0300
1FF80F00
040FFF00
0233A300
03303300
41983300
339FF300
0F07C100
00020000
00010000
0000C800
00007C00
ENDCHAR
STARTCHAR uni091C094D091D.ss11
ENCODING -1
SWIDTH 1558 0
DWIDTH 25 0
BBX 27 13 -1 0
BITMAP
FFE3FFC0
7FF1FFE0
00086000
000C6000
000C6000
000C6000
1FFFFE00
047C6300
02386180
03006180
41806180
33806180
0F002180
ENDCHAR
STARTCHAR uni091C094D091E
ENCODING -1
SWIDTH 758 0
DWIDTH 12 0
BBX 15 15 -1 -2
BITMAP
FFFC
7FFE
0030
0030
0030
0030
1FF0
0830
0430
0330
3F30
3F30
1F10
0080
0040
ENDCHAR
STARTCHAR uni091C094D091E094D
ENCODING -1
SWIDTH 430 0
DWIDTH 7 0
BBX 12 15 -1 -2
BITMAP
FFE0
7FF0
0000
0000
0000
0000
1FE0
0800
0400
0300
3F00
3F00
1F00
0080
0040
ENDCHAR
STARTCHAR uni091C094D091E094D092F
ENCODING -1
SWIDTH 1062 0
DWIDTH 17 0
BBX 19 15 -1 -2
BITMAP
FFFFC0
7FFFE0
002180
003180
003180
007180
1FE380
08C780
047F80
030180
3F0180
3F0180
1F0080
008000
004000
ENDCHAR
STARTCHAR uni091C094D091F
ENCODING -1
SWIDTH 1133 0
DWIDTH 18 0
BBX 21 13 -1 0
BITMAP
FFFFF0
7FFFF8
000300
000300
000300
001F00
1FF800
0C3000
023000
033000
41B060
3399C0
0F0780
ENDCHAR
STARTCHAR uni091C094D0921
ENCODING -1
SWIDTH 1212 0
DWIDTH 19 0
BBX 22 13 -1 0
BITMAP
FFFFF8
7FFFFC
000060
0007E0
000FE0
001C00
1FF800
040FC0
0203A0
030030
419030
338FF0
0F07C0
ENDCHAR
STARTCHAR uni091C094D0924
ENCODING -1
SWIDTH 1162 0
DWIDTH 19 0
BBX 21 13 -1 0
BITMAP
FFFFF0
7FFFF8
000040
000040
000040
000040
1FFFC0
0C3840
023040
033040
419840
3384C0
0F0240
ENDCHAR
STARTCHAR uni091C094D0926
ENCODING -1
SWIDTH 1118 0
DWIDTH 18 0
BBX 20 16 -1 -3
BITMAP
FFFFE0
7FFFF0
000300
000300
000300
001F00
1FF800
0C3000
023000
033380
4193C0
338FC0
0F07C0
000080
000040
000020
ENDCHAR
STARTCHAR uni091C094D0928
ENCODING -1
SWIDTH 1098 0
DWIDTH 18 0
BBX 20 13 -1 0
BITMAP
FFFFE0
7FFFF0
000080
000080
000080
000080
1FFF80
0C7980
023980
030180
418180
338180
0F0080
ENDCHAR
STARTCHAR uni091C094D092C
ENCODING -1
SWIDTH 1088 0
DWIDTH 17 0
BBX 20 13 -1 0
BITMAP
FFFFE0
7FFFF0
000180
000180
001980
003D80
1FF980
043580
023380
031F80
418180
338180
0F0080
ENDCHAR
STARTCHAR uni091C094D092E
ENCODING -1
SWIDTH 1214 0
DWIDTH 19 0
BBX 22 13 -1 0
BITMAP
FFFFF8
7FFFFC
000C60
000C60
000C60
000C60
1FFFE0
0C7860
023860
030060
418060
338060
0F0020
ENDCHAR
STARTCHAR uni091C094D092F
ENCODING -1
SWIDTH 1132 0
DWIDTH 18 0
BBX 21 13 -1 0
BITMAP
FFFFF0
7FFFF8
0010C0
0018C0
0018C0
0038C0
0FF1C0
0463C0
023FC0
0180C0
2180C0
1980C0
0F8040
ENDCHAR
STARTCHAR uni091C094D0930
ENCODING -1
SWIDTH 500 0
DWIDTH 8 0
BBX 13 16 -1 -3
BITMAP
FFF0
7FF8
0000
0000
0000
0000
0FF8
0400
0200
0180
2180
1990
0FB8
0070
00E0
00C0
ENDCHAR
STARTCHAR uni091C094D0935
ENCODING -1
SWIDTH 1088 0
DWIDTH 17 0
BBX 20 13 -1 0
BITMAP
FFFFE0
7FFFF0
000180
000180
001980
003D80
1FF180
0C3180
023380
031F80
418180
338180
0F0080
ENDCHAR
STARTCHAR jhadeva_radeva
ENCODING -1
SWIDTH 1030 0
DWIDTH 16 0
BBX 19 17 -1 -4
BITMAP
FFFFC0
7FFFE0
006300
07E300
0FE300
1C0300
080F00
0FFF00
33E300
303300
183300
1FF700
07DF00
023800
013000
00C800
007C00
ENDCHAR
STARTCHAR jhadeva_radeva.ss11
ENCODING -1
SWIDTH 1128 0
DWIDTH 18 0
BBX 19 14 0 -1
BITMAP
E3FFC0
F9FFE0
086000
0C6000
0C6000
0C6000
7FFE00
3C6300
38E180
01E180
03E180
076180
0E2180
040000
ENDCHAR
STARTCHAR uni091D094D0928
ENCODING -1
SWIDTH 1321 0
DWIDTH 21 0
BBX 24 17 -1 -4
BITMAP
FFFFFE
7FFFFF
006018
07E018
0FE018
1C0018
080FF8
0FFF98
33FB18
303018
183018
1FF018
07C008
020000
010000
00C800
007C00
ENDCHAR
STARTCHAR uni091D094D0928.ss11
ENCODING -1
SWIDTH 1128 0
DWIDTH 18 0
BBX 19 13 0 0
BITMAP
E3FFC0
F9FFE0
086000
0C6000
0C6000
0C6000
7FFE00
3CE300
39E180
036180
066180
0F6180
072180
ENDCHAR
STARTCHAR uni091D094D092E
ENCODING -1
SWIDTH 1437 0
DWIDTH 23 0
BBX 25 17 -1 -4
BITMAP
FFFFFF00
7FFFFF80
00618600
07E18600
0FE18600
1C018600
080FFE00
0FFF8600
33FB0600
30300600
18300600
1FF00E00
07C00200
02000000
01000000
00C80000
007C0000
ENDCHAR
STARTCHAR uni091D094D092E.ss11
ENCODING -1
SWIDTH 1362 0
DWIDTH 22 0
BBX 23 13 0 0
BITMAP
E3FFFC
F9FFFE
086018
0C6018
0C6018
7FFE18
3C6318
1867F8
006FF8
006718
006218
006038
002018
ENDCHAR
STARTCHAR uni091D094D092F
ENCODING -1
SWIDTH 1405 0
DWIDTH 22 0
BBX 25 17 -1 -4
BITMAP
FFFFFF00
7FFFFF80
00618C00
07E18C00
0FE1CC00
1C038C00
08070C00
0FFE1C00
33F9FC00
30300C00
18300C00
1FF00C00
07C00400
02000000
01000000
00C80000
007C0000
ENDCHAR
STARTCHAR uni091D094D092F.ss11
ENCODING -1
SWIDTH 1450 0
DWIDTH 23 0
BBX 25 13 0 0
BITMAP
E3FFFF00
F9FFFF80
08600C00
0C600C00
0C600C00
7FFE0C00
3C618C00
18618C00
00678C00
00671C00
0063FC00
0060EC00
00200400
ENDCHAR
STARTCHAR uni091D094D0930
ENCODING -1
SWIDTH 702 0
DWIDTH 11 0
BBX 16 17 -1 -4
BITMAP
FFFC
7FFE
0060
07E0
0FE0
0C03
080E
0FFC
33A0
3830
1832
1FF7
07CE
023C
0130
00C8
007C
ENDCHAR
STARTCHAR nyadeva_radeva
ENCODING -1
SWIDTH 798 0
DWIDTH 13 0
BBX 15 15 -1 -2
BITMAP
FFFC
7FFE
0018
0018
1E18
1B38
01F8
01F8
2398
1F38
0E78
00F8
01D8
0380
0300
ENDCHAR
STARTCHAR uni091E094D091A
ENCODING -1
SWIDTH 883 0
DWIDTH 14 0
BBX 15 17 1 -4
BITMAP
30FC
7CFE
0630
0630
4FF0
3CB0
0030
FE30
FF30
0C30
0C30
0C70
07F0
01B0
0030
0030
0010
ENDCHAR
STARTCHAR uni091E094D091A094D092F
ENCODING -1
SWIDTH 1632 0
DWIDTH 26 0
BBX 29 13 -1 0
BITMAP
FFFFFFF0
7FFFFFF8
000010C0
000018C0
0CFE18C0
3E7E38C0
131871C0
039863C0
2398FFC0
1FFFC0C0
040100C0
000000C0
00000040
ENDCHAR
STARTCHAR uni091E094D091B
ENCODING -1
SWIDTH 1446 0
DWIDTH 23 0
BBX 26 13 -1 0
BITMAP
FFFFFF80
7FFFFFC0
00001800
001C1800
0C3C1C00
3E303600
11323200
019F3300
239C1700
1FF80F00
04180E00
000C3C00
0003F000
ENDCHAR
STARTCHAR uni091E094D091C
ENCODING -1
SWIDTH 892 0
DWIDTH 14 0
BBX 15 13 1 0
BITMAP
38FC
7C7E
0630
0630
47F0
3EF0
0030
07F0
07F0
0630
8330
6730
1E10
ENDCHAR
STARTCHAR uni091E094D091C094D091E
ENCODING -1
SWIDTH 883 0
DWIDTH 14 0
BBX 14 18 2 -5
BITMAP
61F8
F9FC
0C60
0C60
9FE0
7960
0060
0060
7FE0
3FE0
1060
0860
EC60
FC60
7C60
3C60
0320
0100
ENDCHAR
STARTCHAR uni091E094D091C094D092F
ENCODING -1
SWIDTH 1229 0
DWIDTH 20 0
BBX 19 13 2 0
BITMAP
71FFC0
F9FFE0
0C6180
0C2180
8E7180
7DE180
13E380
078780
067D80
020180
830180
670380
1E0180
ENDCHAR
STARTCHAR uni091E094D0930
ENCODING -1
SWIDTH 470 0
DWIDTH 8 0
BBX 12 14 -1 -1
BITMAP
FFC0
7FE0
0000
0000
1E00
1B30
01F0
01E0
23B0
1F70
0EE0
01C0
0380
0300
ENDCHAR
STARTCHAR uni091E094D0936
ENCODING -1
SWIDTH 1199 0
DWIDTH 19 0
BBX 22 13 -1 0
BITMAP
FF71F8
7FE9FC
006C60
003C60
0C0C60
3F0C60
117C60
01FC60
23BC60
1F0260
040060
000060
000020
ENDCHAR
STARTCHAR uni091F094D091F
ENCODING -1
SWIDTH 708 0
DWIDTH 11 0
BBX 14 18 -1 -5
BITMAP
FFF8
7FFC
0180
0780
0F80
1C00
1800
1830
0C70
07E0
0180
0F80
1F80
1800
1800
1830
0CE0
03C0
ENDCHAR
STARTCHAR uni091F094D091F094D092F
ENCODING -1
SWIDTH 1421 0
DWIDTH 23 0
BBX 25 18 -1 -5
BITMAP
FFFFFF00
7FFFFF80
01800600
07FC0600
0FFF0600
1C008600
1801C600
18378E00
0C721E00
07E1F600
01800600
0F800E00
1F800600
18000000
18000000
18300000
0CE00000
03C00000
ENDCHAR
STARTCHAR uni091F094D0920
ENCODING -1
SWIDTH 708 0
DWIDTH 11 0
BBX 14 18 -1 -5
BITMAP
FFF8
7FFC
0180
0780
0F80
1C00
1800
1830
0C70
07E0
0180
07C0
1FB0
1830
1838
1830
0CF0
03C0
ENDCHAR
STARTCHAR uni091F094D0922
ENCODING -1
SWIDTH 708 0
DWIDTH 11 0
BBX 14 18 -1 -5
BITMAP
FFF8
7FFC
0180
0780
0F80
1C00
1800
1830
0C70
07E0
0180
0F80
1F80
19C0
19E0
09B0
07F0
01E0
ENDCHAR
STARTCHAR uni091F094D0928
ENCODING -1
SWIDTH 708 0
DWIDTH 11 0
BBX 14 18 -1 -5
BITMAP
FFF8
7FFC
0180
0780
0F80
1C00
1800
1830
0C70
07E0
0060
0060
1FE0
1FE0
0E60
0460
0060
0020
ENDCHAR
STARTCHAR uni091F094D092E
ENCODING -1
SWIDTH 990 0
DWIDTH 16 0
BBX 18 18 -1 -5
BITMAP
FFFF80
7FFFC0
018300
078300
0F8300
1C0300
180300
183300
0C7300
07E300
018300
018300
018300
0FFF00
0FFF00
070300
000700
000100
ENDCHAR
STARTCHAR uni091F094D092F
ENCODING -1
SWIDTH 1431 0
DWIDTH 23 0
BBX 25 13 -1 0
BITMAP
FFFFFF00
7FFFFF80
01800600
01800600
01800600
0FFF0600
1C008600
1801C600
1807CE00
18021E00
1831FE00
0CF00E00
03C00600
ENDCHAR
STARTCHAR uni091F094D0930
ENCODING -1
SWIDTH 698 0
DWIDTH 11 0
BBX 14 21 -1 -8
BITMAP
FFF8
7FFC
0180
0180
0180
0F80
1C00
1800
1800
1800
1830
0CF0
03C0
0380
0360
0730
0608
0040
0020
0010
0008
ENDCHAR
STARTCHAR uni091F094D0935
ENCODING -1
SWIDTH 708 0
DWIDTH 11 0
BBX 14 20 -1 -7
BITMAP
FFF8
7FFC
0180
0780
0F80
1C00
1800
1830
0C70
07E0
0060
0E60
1C60
1860
18E0
0FE0
03E0
0060
0060
0020
ENDCHAR
STARTCHAR uni0920094D0920
ENCODING -1
SWIDTH 804 0
DWIDTH 13 0
BBX 15 18 -1 -5
BITMAP
FFFC
7FFE
0180
0780
0FE0
1C30
1838
1838
0870
07E0
0180
07C0
1FA0
1830
1838
1830
0CF0
03C0
ENDCHAR
STARTCHAR uni0920094D0920094D092F
ENCODING -1
SWIDTH 1437 0
DWIDTH 23 0
BBX 25 18 -1 -5
BITMAP
FFFFFF00
7FFFFF80
01800600
07FC0600
0FFF8600
1C30C600
1839C600
183FCE00
08731E00
07E1FE00
01800600
07C00600
1FA00200
18300000
18380000
18300000
0CF00000
03C00000
ENDCHAR
STARTCHAR uni0920094D0928
ENCODING -1
SWIDTH 804 0
DWIDTH 13 0
BBX 15 18 -1 -5
BITMAP
FFFC
7FFE
0180
0780
0FE0
1C30
1830
1830
0870
07E0
0060
0060
1FE0
1FE0
0E60
0460
0060
0020
ENDCHAR
STARTCHAR uni0920094D092E
ENCODING -1
SWIDTH 1016 0
DWIDTH 16 0
BBX 19 18 -1 -5
BITMAP
FFFFC0
7FFFE0
018300
078300
0FE300
1C3300
183B00
183B00
087300
07E300
018300
018300
018300
07FF00
07FF00
038300
000300
000100
ENDCHAR
STARTCHAR uni0920094D092F
ENCODING -1
SWIDTH 1467 0
DWIDTH 23 0
BBX 26 13 -1 0
BITMAP
FFFFFF80
7FFFFFC0
01800600
01800600
01FC0600
0FFF8600
1C20C600
1830C600
1833C600
18330E00
1830FE00
0C700600
03C00200
ENDCHAR
STARTCHAR uni0920094D0930
ENCODING -1
SWIDTH 814 0
DWIDTH 13 0
BBX 15 21 -1 -8
BITMAP
FFFC
7FFE
0180
0180
0180
0FC0
1C20
1830
1830
1830
1830
0C70
03E0
0380
0360
0730
0608
0040
0020
0010
0008
ENDCHAR
STARTCHAR uni0921094D0915
ENCODING -1
SWIDTH 712 0
DWIDTH 11 0
BBX 16 21 -2 -8
BITMAP
FFFC
7FFE
0030
03F0
07F0
0E00
05C0
03F0
1130
0C70
07E0
00C0
0CF8
3CF6
30C2
30C3
11C7
0FDE
00C0
00C0
0040
ENDCHAR
STARTCHAR uni0921094D0918
ENCODING -1
SWIDTH 712 0
DWIDTH 11 0
BBX 15 18 -2 -5
BITMAP
FFFC
7FFE
0030
03F0
07F0
0E00
05C0
23F0
1130
3C70
7FF0
6030
6030
1E30
1C30
1870
19F0
0790
ENDCHAR
STARTCHAR uni0921094D091F
ENCODING -1
SWIDTH 712 0
DWIDTH 11 0
BBX 15 19 -2 -6
BITMAP
FFFC
7FFE
0030
03F0
07F0
0E00
05C0
23F0
1130
0C70
07E0
00C0
03C0
0FC0
0C00
0C00
0C18
0678
03E0
ENDCHAR
STARTCHAR uni0921094D0920
ENCODING -1
SWIDTH 712 0
DWIDTH 11 0
BBX 15 19 -2 -6
BITMAP
FFFC
7FFE
0030
03F0
07F0
0E00
05C0
23F0
1130
0C70
07E0
00C0
03C0
0FF0
0C18
0C18
0C18
0638
03F0
ENDCHAR
STARTCHAR uni0921094D0921
ENCODING -1
SWIDTH 712 0
DWIDTH 11 0
BBX 15 18 -2 -5
BITMAP
FFFC
7FFE
0030
03F0
07F0
0E00
05C0
23F0
1130
0C70
07E0
0700
0400
07E0
23B0
1830
07F0
03C0
ENDCHAR
STARTCHAR uni0921094D0921094D092F
ENCODING -1
SWIDTH 952 0
DWIDTH 15 0
BBX 19 18 -2 -5
BITMAP
FFFFC0
7FFFE0
003300
03F300
07F300
0E0300
05C300
23F300
113300
0C7300
07E300
070300
040F00
07FF00
23B300
183300
07F300
03C100
ENDCHAR
STARTCHAR uni0921094D0922
ENCODING -1
SWIDTH 712 0
DWIDTH 11 0
BBX 15 19 -2 -6
BITMAP
FFFC
7FFE
0030
03F0
07F0
0E00
05C0
23F0
1130
0C70
07E0
00C0
03C0
0FC0
0C40
0CF0
0CD8
06F8
01F0
ENDCHAR
STARTCHAR uni0921094D0928
ENCODING -1
SWIDTH 712 0
DWIDTH 11 0
BBX 15 18 -2 -5
BITMAP
FFFC
7FFE
0030
03F0
07F0
0E00
05C0
23F0
1130
0C70
07F0
0030
0030
1FF0
1FF0
0E30
0470
0010
ENDCHAR
STARTCHAR uni0921094D092E
ENCODING -1
SWIDTH 994 0
DWIDTH 16 0
BBX 19 18 -2 -5
BITMAP
FFFFC0
7FFFE0
003180
03F180
07F180
0E0180
04C180
23F180
113180
0C7180
07E180
00C180
00C180
07FF80
03FF80
03C180
000180
000080
ENDCHAR
STARTCHAR uni0921094D092F
ENCODING -1
SWIDTH 1395 0
DWIDTH 22 0
BBX 26 13 -2 0
BITMAP
FFFFFF80
7FFFFFC0
00300600
03FE0600
07FF8600
0E00C600
0401C600
07E3CE00
01F31E00
1018FE00
08180600
07F80600
03E00200
ENDCHAR
STARTCHAR uni0921094D0930
ENCODING -1
SWIDTH 712 0
DWIDTH 11 0
BBX 15 21 -2 -8
BITMAP
FFFC
7FFE
0030
03F0
07F0
0E00
0400
07E0
01F0
1018
0818
07F8
03E0
00E0
0190
0188
0104
0020
0010
0008
0004
ENDCHAR
STARTCHAR uni0921094D0935
ENCODING -1
SWIDTH 712 0
DWIDTH 11 0
BBX 15 21 -2 -8
BITMAP
FFFC
7FFE
0030
03F0
07F0
0E00
04C0
23F0
1130
0C70
07F0
0030
0730
0E30
0C30
0C70
06F0
03F0
0030
0030
0010
ENDCHAR
STARTCHAR uni0922094D0922
ENCODING -1
SWIDTH 698 0
DWIDTH 11 0
BBX 14 18 -1 -5
BITMAP
FFF8
7FFC
0180
0780
1F80
1800
19E0
19B0
0DF0
03E0
0180
0F80
1F80
18C0
19E0
09B0
07F0
01E0
ENDCHAR
STARTCHAR uni0922094D0922094D092F
ENCODING -1
SWIDTH 1461 0
DWIDTH 23 0
BBX 26 18 -1 -5
BITMAP
FFFFFF80
7FFFFFC0
01800600
07FE0600
1FFF8600
1800C600
19E1C600
19B3CE00
0DF31E00
03E0FE00
01800600
0F800600
1F800200
18C00000
19E00000
09B00000
07F00000
01E00000
ENDCHAR
STARTCHAR uni0922094D0926
ENCODING -1
SWIDTH 698 0
DWIDTH 11 0
BBX 14 21 -1 -8
BITMAP
FFF8
7FFC
0180
0780
1F80
1800
19E0
19B0
0DF0
03E0
0180
0F80
1F80
1800
19C0
19E0
0FE0
03E0
0040
0030
0010
ENDCHAR
STARTCHAR uni0922094D0928
ENCODING -1
SWIDTH 698 0
DWIDTH 11 0
BBX 14 18 -1 -5
BITMAP
FFF8
7FFC
0180
0780
1F80
1800
19E0
19B0
0DF0
03E0
0060
0060
1FE0
1FE0
0E60
0460
0060
0020
ENDCHAR
STARTCHAR uni0922094D092E
ENCODING -1
SWIDTH 980 0
DWIDTH 16 0
BBX 18 18 -1 -5
BITMAP
FFFF80
7FFFC0
018300
078300
1F8300
180300
19E300
19B300
0DF300
03E300
018300
018300
018300
0FFF00
0FFF00
070300
000700
000300
ENDCHAR
STARTCHAR uni0922094D092F
ENCODING -1
SWIDTH 1351 0
DWIDTH 22 0
BBX 24 13 -1 0
BITMAP
FFFFFE
7FFFFF
01800C
01800C
01800C
0FFE0C
1C030C
18030C
19CF1C
19A43C
09B3EC
0EF01C
03E00C
ENDCHAR
STARTCHAR uni0922094D0930
ENCODING -1
SWIDTH 698 0
DWIDTH 11 0
BBX 14 21 -1 -8
BITMAP
FFF8
7FFC
0180
0180
0180
0F80
1C00
1800
19C0
19A0
09B0
0EF0
03E0
01C0
03A0
0310
0308
0000
0030
0018
0004
ENDCHAR
STARTCHAR nnadeva_radeva
ENCODING -1
SWIDTH 889 0
DWIDTH 14 0
BBX 17 14 -1 -1
BITMAP
FFFF00
7FFF80
30CC00
30CC00
30CC00
30CC00
118C00
1B8C00
0F1C00
003C00
007C00
00EC00
01C400
008000
ENDCHAR
STARTCHAR nnadeva_radeva.ss11
ENCODING -1
SWIDTH 1030 0
DWIDTH 16 0
BBX 20 17 -2 -4
BITMAP
FFFFE0
7FFFF0
033180
033180
0B3180
1F3180
0F3180
063180
023380
011780
008F80
004580
003080
000800
000400
000200
000100
ENDCHAR
STARTCHAR uni0923094D0921
ENCODING -1
SWIDTH 1253 0
DWIDTH 20 0
BBX 23 13 -1 0
BITMAP
FFFFFC
7FFFFE
30C060
30C3E0
30CFE0
30CC00
118C00
1987E0
0F03F0
000018
001838
0007F0
0003E0
ENDCHAR
STARTCHAR uni0923094D0921.ss11
ENCODING -1
SWIDTH 1287 0
DWIDTH 21 0
BBX 24 17 -2 -4
BITMAP
FFFFFE
7FFFFF
033018
0330F8
0B33F8
1F3300
0F3300
063178
0230FC
011004
00840C
0043FC
0031F0
000800
000400
000200
000100
ENDCHAR
STARTCHAR uni0923094D0930
ENCODING -1
SWIDTH 601 0
DWIDTH 10 0
BBX 14 14 -1 -1
BITMAP
FFE0
7FF0
30C0
30C0
30C0
30C0
1180
1B88
0F1C
0038
0070
00E0
01C0
0080
ENDCHAR
STARTCHAR tadeva_radeva
ENCODING -1
SWIDTH 705 0
DWIDTH 11 0
BBX 14 13 -1 0
BITMAP
FFF8
FFFC
0060
0060
0C60
3F60
30E0
03E0
0760
0E60
0060
0060
0020
ENDCHAR
STARTCHAR uni09240930092F
ENCODING -1
SWIDTH 1079 0
DWIDTH 17 0
BBX 20 13 -1 0
BITMAP
FFFFE0
FFFFF0
003180
003180
0C3180
3F7180
30E180
03C780
073F80
0E0180
000180
000180
000080
ENDCHAR
STARTCHAR uni0924094D0915
ENCODING -1
SWIDTH 1291 0
DWIDTH 21 0
BBX 23 13 -1 0
BITMAP
FFFFFC
7FFFFE
000C00
000C00
00CF80
01EFE0
1F8E30
398C30
319C70
30FCE0
180C00
040C00
020400
ENDCHAR
STARTCHAR uni0924094D09150930
ENCODING -1
SWIDTH 1301 0
DWIDTH 21 0
BBX 23 13 -1 0
BITMAP
FFFFFC
7FFFFE
000400
000400
00C580
01E7E0
1F8630
398E30
318C30
30FCF0
183400
046C00
02C400
ENDCHAR
STARTCHAR uni0924094D0915094D092F
ENCODING -1
SWIDTH 1549 0
DWIDTH 25 0
BBX 27 13 -1 0
BITMAP
FFFFFFC0
7FFFFFE0
000C0180
000C0180
00CF8180
01EFE180
1F8E3180
398C3180
319C7380
30FCE780
180C7F80
040C3B80
02040180
ENDCHAR
STARTCHAR uni0924094D0915094D0935
ENCODING -1
SWIDTH 1559 0
DWIDTH 25 0
BBX 27 13 -1 0
BITMAP
FFFFFFC0
7FFFFFE0
000C0180
000C0180
00CFD180
01EF7980
1F8E6180
398C6180
319C2380
30FC1F80
180C0180
040C0380
02040180
ENDCHAR
STARTCHAR uni0924094D0916
ENCODING -1
SWIDTH 1338 0
DWIDTH 21 0
BBX 24 13 -1 0
BITMAP
FFFFFE
7FFFFF
006018
006018
006198
0063D8
1FE718
3BE318
31E338
30C1F8
182018
041018
020808
ENDCHAR
STARTCHAR uni0924094D09160930
ENCODING -1
SWIDTH 1338 0
DWIDTH 21 0
BBX 24 14 -1 -1
BITMAP
FFFFFE
7FFFFF
006018
006018
006198
0063D8
1FE718
3BE318
31E338
30C1F8
1820F8
0411D8
020988
000100
ENDCHAR
STARTCHAR uni0924094D0916094D0928
ENCODING -1
SWIDTH 1708 0
DWIDTH 27 0
BBX 30 13 -1 0
BITMAP
FFFFFFF8
7FFFFFFC
00600060
00600060
00618060
0063C060
1FE71FE0
3BE31E60
31E33C60
30C1F060
18200060
04100060
02080020
ENDCHAR
STARTCHAR uni0924094D0924
ENCODING -1
SWIDTH 816 0
DWIDTH 13 0
BBX 16 13 -1 0
BITMAP
FFFC
7FFF
0018
0018
0018
0018
3FF8
0718
0618
0618
0218
0118
0088
ENDCHAR
STARTCHAR uni0924094D0924094D
ENCODING -1
SWIDTH 488 0
DWIDTH 8 0
BBX 13 13 -1 0
BITMAP
FFF0
7FF8
0000
0000
0000
0000
3FF0
0700
0600
0600
0200
0100
0080
ENDCHAR
STARTCHAR uni0924094D0924094D092F
ENCODING -1
SWIDTH 1150 0
DWIDTH 18 0
BBX 21 13 -1 0
BITMAP
FFFFF0
7FFFF8
0018C0
0018C0
0018C0
0038C0
3FF0C0
0763C0
061FC0
0600C0
0200C0
0100C0
008040
ENDCHAR
STARTCHAR uni0924094D0924094D0935
ENCODING -1
SWIDTH 1056 0
DWIDTH 17 0
BBX 19 13 -1 0
BITMAP
FFFFC0
7FFFE0
000180
000180
001180
007980
3FE180
076180
062380
061F80
020180
010380
008180
ENDCHAR
STARTCHAR uni0924094D0925
ENCODING -1
SWIDTH 1056 0
DWIDTH 17 0
BBX 19 13 -1 0
BITMAP
FFC7C0
7FA7E0
033180
013180
01F180
007180
1FE180
398380
30C780
307F80
180180
040380
020180
ENDCHAR
STARTCHAR uni0924094D0926094D092F
ENCODING -1
SWIDTH 1108 0
DWIDTH 18 0
BBX 20 15 -1 -2
BITMAP
FFFFE0
7FFFF0
0010C0
01F0C0
03F0C0
0380C0
1F30C0
39B8C0
30F8C0
30D1C0
18C7C0
047EC0
0200C0
0001C0
000040
ENDCHAR
STARTCHAR uni0924094D0928
ENCODING -1
SWIDTH 890 0
DWIDTH 14 0
BBX 17 13 -1 0
BITMAP
FFFF00
7FFF80
000C00
000C00
000C00
000C00
1FFC00
380C00
300C00
33FC00
19EC00
04CC00
020400
ENDCHAR
STARTCHAR uni0924094D0928094D092F
ENCODING -1
SWIDTH 1206 0
DWIDTH 19 0
BBX 22 13 -1 0
BITMAP
FFFFF8
7FFFFC
000C60
000C60
000C60
1FFC60
3FF8E0
3031E0
33FFE0
19E060
08C060
060060
000020
ENDCHAR
STARTCHAR uni0924094D092A
ENCODING -1
SWIDTH 902 0
DWIDTH 14 0
BBX 17 13 -1 0
BITMAP
FFFF00
7FFF80
030C00
030C00
030C00
030C00
1F0C00
399C00
307C00
300C00
180C00
040C00
020400
ENDCHAR
STARTCHAR uni0924094D092A0930
ENCODING -1
SWIDTH 1017 0
DWIDTH 16 0
BBX 19 13 -1 0
BITMAP
FFFFC0
7FFFE0
00C300
00C300
00C300
00C300
1FC300
386700
301F00
301B00
183300
046300
026100
ENDCHAR
STARTCHAR uni0924094D092A094D0932
ENCODING -1
SWIDTH 1411 0
DWIDTH 23 0
BBX 25 13 -1 0
BITMAP
FFFFFF00
7FFFFF80
03000400
03000400
03070400
030F9C00
1F18FC00
3998F400
307C4400
30060400
18030400
04000C00
02000400
ENDCHAR
STARTCHAR uni0924094D092B
ENCODING -1
SWIDTH 1292 0
DWIDTH 21 0
BBX 23 13 -1 0
BITMAP
FFFFFC
7FFFFE
030C00
030C00
030D80
030FE0
1F0E30
399C30
307C30
300CF0
180C00
040C00
020400
ENDCHAR
STARTCHAR uni0924094D092E
ENCODING -1
SWIDTH 1038 0
DWIDTH 17 0
BBX 19 13 -1 0
BITMAP
FFFFC0
7FFFE0
006180
006180
006180
006180
1FFF80
3BE180
31C180
300180
180180
040380
020180
ENDCHAR
STARTCHAR uni0924094D092E094D092F
ENCODING -1
SWIDTH 1362 0
DWIDTH 22 0
BBX 24 13 -1 0
BITMAP
FFFFFE
7FFFFF
00610C
00618C
00618C
00638C
1FFF1C
3BE43C
31C3FC
30000C
18000C
04001C
02000C
ENDCHAR
STARTCHAR uni0924094D092F
ENCODING -1
SWIDTH 996 0
DWIDTH 16 0
BBX 18 13 -1 0
BITMAP
FFFF80
7FFFC0
004300
006300
006300
00E300
1FC700
398F00
30FF00
300300
180300
040700
020300
ENDCHAR
STARTCHAR uni0924094D0930
ENCODING -1
SWIDTH 377 0
DWIDTH 6 0
BBX 11 10 -1 3
BITMAP
FFC0
FFE0
0000
0000
0C00
3F40
30E0
03C0
0700
0E00
ENDCHAR
STARTCHAR uni0924094D0932
ENCODING -1
SWIDTH 1121 0
DWIDTH 18 0
BBX 20 13 -1 0
BITMAP
FFFFE0
7FFFF0
0000C0
0000C0
00E0C0
01D9C0
1F8FC0
399EC0
308CC0
3040C0
1820C0
0401C0
0200C0
ENDCHAR
STARTCHAR uni0924094D0935
ENCODING -1
SWIDTH 902 0
DWIDTH 14 0
BBX 17 13 -1 0
BITMAP
FFFF00
7FFF80
000C00
000C00
00CC00
01EC00
1F8C00
398C00
319C00
30FC00
180C00
040C00
020400
ENDCHAR
STARTCHAR uni0924094D0938
ENCODING -1
SWIDTH 1078 0
DWIDTH 17 0
BBX 20 13 -1 0
BITMAP
FFFFE0
7FFFF0
006180
006180
006180
006180
1FFF80
3BEF80
31E180
30C180
182180
041180
020880
ENDCHAR
STARTCHAR uni0924094D0938094D0928
ENCODING -1
SWIDTH 1378 0
DWIDTH 22 0
BBX 24 13 -1 0
BITMAP
FFFFFE
7FFFFF
00400C
00600C
00600C
00600C
1FE7FC
3BFFCC
31EF8C
30C00C
18200C
04100C
020804
ENDCHAR
STARTCHAR uni0924094D0938094D092F
ENCODING -1
SWIDTH 1472 0
DWIDTH 24 0
BBX 26 13 -1 0
BITMAP
FFFFFF80
7FFFFFC0
0060C200
0060C200
0060E200
0061C200
1FE3C600
3BFF0E00
31EFFA00
30C00200
18200200
04100600
02080200
ENDCHAR
STARTCHAR uni0924094D0938094D0935
ENCODING -1
SWIDTH 1398 0
DWIDTH 22 0
BBX 25 13 -1 0
BITMAP
FFFFFF00
7FFFFF80
00600C00
00600C00
0060CC00
0061EC00
1FFF8C00
3BEF0C00
31E19C00
30C0FC00
18200C00
04100C00
02080400
ENDCHAR
STARTCHAR thadeva_radeva
ENCODING -1
SWIDTH 782 0
DWIDTH 13 0
BBX 13 13 1 0
BITMAP
73F0
F9F8
C8C0
CCC0
7CC0
1CC0
38C0
F0C0
61C0
3FC0
07C0
0EC0
0C40
ENDCHAR
STARTCHAR uni0925094D0928
ENCODING -1
SWIDTH 782 0
DWIDTH 13 0
BBX 13 14 1 -1
BITMAP
73F0
F9F8
C8C0
CCC0
7CC0
1CC0
38C0
F0C0
61C0
3FC0
07C0
0EC0
0E40
0E00
ENDCHAR
STARTCHAR uni0925094D092F
ENCODING -1
SWIDTH 1186 0
DWIDTH 19 0
BBX 19 13 1 0
BITMAP
77FFC0
FBFFE0
C82180
CC3180
7C3180
1C7180
39E380
F0C780
61FF80
3F0180
000180
000180
000180
ENDCHAR
STARTCHAR uni0925094D0930
ENCODING -1
SWIDTH 454 0
DWIDTH 7 0
BBX 10 13 1 0
BITMAP
7000
F800
C800
CC00
7C00
1C00
3800
F0C0
6180
3F00
0600
0E00
0C00
ENDCHAR
STARTCHAR uni0925094D0935
ENCODING -1
SWIDTH 1102 0
DWIDTH 18 0
BBX 18 13 1 0
BITMAP
77FF80
FBFFC0
C80300
CC0300
7C6300
1CF300
38C300
F0C700
61CF00
3F7F00
000300
000700
000300
ENDCHAR
STARTCHAR dadeva_radeva
ENCODING -1
SWIDTH 678 0
DWIDTH 11 0
BBX 14 17 -1 -4
BITMAP
FFF0
7FF8
0180
0180
0180
0F80
1C00
1800
1800
1980
09E0
07E0
03E0
00E0
0190
0188
0104
ENDCHAR
STARTCHAR uni09260930092F
ENCODING -1
SWIDTH 854 0
DWIDTH 14 0
BBX 16 15 -1 -2
BITMAP
FFFE
FFFF
010C
1F0C
3F0C
300C
370C
1B8C
0F8C
1D1C
3C7C
67EC
000C
001C
000C
ENDCHAR
STARTCHAR dadeva_uuvowelsigndeva
ENCODING -1
SWIDTH 678 0
DWIDTH 11 0
BBX 16 21 -1 -8
BITMAP
FFF0
7FF8
0180
0180
0180
0F80
1C00
1800
1800
1980
09E0
07E0
03E0
0040
0020
0070
01FC
0186
0181
0090
0070
ENDCHAR
STARTCHAR dadeva_rvocalicvowelsigndeva
ENCODING -1
SWIDTH 558 0
DWIDTH 9 0
BBX 11 17 -1 -4
BITMAP
FFC0
FFE0
0180
0180
0180
0F80
1800
3800
1000
1000
1800
0F80
0700
0600
0600
0260
01E0
ENDCHAR
STARTCHAR uni0926094D0917
ENCODING -1
SWIDTH 678 0
DWIDTH 11 0
BBX 13 17 -1 -4
BITMAP
FFF0
7FF8
0180
0180
0180
0F80
1C00
1800
1800
1980
19E0
1FE0
1BE0
1840
F820
F810
7000
ENDCHAR
STARTCHAR uni0926094D09170930
ENCODING -1
SWIDTH 678 0
DWIDTH 11 0
BBX 14 17 -1 -4
BITMAP
FFF0
7FF8
0180
0180
0180
0F80
1C00
1800
1800
1980
19E0
1FE0
1BE0
18E0
F990
7988
3104
ENDCHAR
STARTCHAR uni0926094D0918
ENCODING -1
SWIDTH 872 0
DWIDTH 14 0
BBX 17 14 -1 -1
BITMAP
FFFF00
7FFF80
001800
007800
1DF800
3B8000
331800
1B1C00
0FDE00
0E7E00
0C3C00
047200
03E100
00C000
ENDCHAR
STARTCHAR uni0926094D0926
ENCODING -1
SWIDTH 634 0
DWIDTH 10 0
BBX 13 18 -1 -5
BITMAP
FFF0
7FF8
0180
0180
1F80
1C00
1800
1800
0F80
0C00
1800
1800
08E0
04F0
03F0
0060
0030
0018
ENDCHAR
STARTCHAR uni0926094D0926094D092F
ENCODING -1
SWIDTH 984 0
DWIDTH 16 0
BBX 18 18 -1 -5
BITMAP
FFFF80
7FFFC0
018300
0F8300
1F8300
180300
180300
0F8300
0F8300
1C0300
19C300
09E300
07E300
01E700
018F00
00FF00
000700
000300
ENDCHAR
STARTCHAR uni0926094D0927
ENCODING -1
SWIDTH 882 0
DWIDTH 14 0
BBX 17 14 -1 -1
BITMAP
FFFF00
7FFF80
003000
20F000
31F000
330000
131800
1F3C00
0FBC00
0C7C00
0C3800
0C7400
07E300
018000
ENDCHAR
STARTCHAR uni0926094D09270943
ENCODING -1
SWIDTH 882 0
DWIDTH 14 0
BBX 18 18 -1 -5
BITMAP
FFFF00
7FFF80
003000
20F000
31F000
330000
131800
0F3C00
0FFC00
0C7C00
0C3800
0C7400
07E700
018F00
000C00
000C00
0004C0
0003C0
ENDCHAR
STARTCHAR uni0926094D0927094D092F
ENCODING -1
SWIDTH 1064 0
DWIDTH 17 0
BBX 19 15 -1 -2
BITMAP
FFFFC0
7FFFE0
003180
31F180
33F180
1F0180
1F6180
1B7180
19F180
0FB380
068F80
007D80
000180
000180
000080
ENDCHAR
STARTCHAR uni0926094D0928
ENCODING -1
SWIDTH 678 0
DWIDTH 11 0
BBX 13 18 -1 -5
BITMAP
FFF0
7FF8
0180
0780
1F80
1800
1980
19C0
0DE0
03E0
01C0
01A0
3F90
3F80
3980
1980
0180
0080
ENDCHAR
STARTCHAR uni0926094D0928.ss12
ENCODING -1
SWIDTH 788 0
DWIDTH 13 0
BBX 16 14 -2 -1
BITMAP
FFFE
7FFF
0008
0008
0008
0008
1FF8
1E38
0E78
00E8
01C8
01D8
01C8
0040
ENDCHAR
STARTCHAR uni0926094D092C
ENCODING -1
SWIDTH 678 0
DWIDTH 11 0
BBX 13 15 -1 -2
BITMAP
FFF0
7FF8
0180
0780
1F80
1800
1980
19C0
0DE0
1FE0
1C40
1A60
19F0
0FC0
0300
ENDCHAR
STARTCHAR uni0926094D092C0930
ENCODING -1
SWIDTH 678 0
DWIDTH 11 0
BBX 13 17 -1 -4
BITMAP
FFF0
7FF8
0180
0780
1F80
1800
1980
19C0
0DE0
1FE0
1C40
1A60
19F0
0FC0
0380
0700
0600
ENDCHAR
STARTCHAR uni0926094D092D
ENCODING -1
SWIDTH 848 0
DWIDTH 14 0
BBX 16 16 -1 -3
BITMAP
FFFE
7FFF
0030
00F0
03F0
0700
0630
0238
01BC
00FC
3EE8
13C4
0382
0380
0380
0180
ENDCHAR
STARTCHAR uni0926094D092D0930
ENCODING -1
SWIDTH 848 0
DWIDTH 14 0
BBX 16 17 -1 -4
BITMAP
FFFE
7FFF
0030
00F0
03F0
0700
0630
0238
01BC
00FC
3EE8
13C4
0386
038E
039C
01B8
0010
ENDCHAR
STARTCHAR uni0926094D092D094D092F
ENCODING -1
SWIDTH 1054 0
DWIDTH 17 0
BBX 20 15 -2 -2
BITMAP
FFFFE0
7FFFF0
0018C0
01F8C0
01F8C0
0380C0
01B0C0
39B8C0
3CF8C0
03D1C0
03C7C0
073EC0
0700C0
0300C0
000040
ENDCHAR
STARTCHAR uni0926094D092E
ENCODING -1
SWIDTH 934 0
DWIDTH 15 0
BBX 17 15 -1 -2
BITMAP
FFFF00
7FFF80
018600
0F8600
1F8600
300600
100600
0FC600
01C600
00C600
07FE00
03C600
018600
000600
000200
ENDCHAR
STARTCHAR uni0926094D092F
ENCODING -1
SWIDTH 854 0
DWIDTH 14 0
BBX 16 15 -1 -2
BITMAP
FFFE
FFFF
010C
1F0C
3F0C
380C
370C
1B8C
0F8C
0F1C
0C7C
07EC
000C
001C
000C
ENDCHAR
STARTCHAR uni0926094D0930
ENCODING -1
SWIDTH 678 0
DWIDTH 11 0
BBX 14 21 -1 -8
BITMAP
FFF0
7FF8
0180
0180
0180
0F80
1C00
1800
1800
1980
09E0
07E0
03E0
01C0
03A0
0310
0308
0000
0020
0018
0004
ENDCHAR
STARTCHAR uni0926094D0935
ENCODING -1
SWIDTH 758 0
DWIDTH 12 0
BBX 15 14 -1 -1
BITMAP
FFFC
7FFE
00C0
03C0
07C0
0C00
0C60
0CF0
3EF0
31F0
30E0
31D0
1F8C
0600
ENDCHAR
STARTCHAR uni0926094D09350930
ENCODING -1
SWIDTH 758 0
DWIDTH 12 0
BBX 15 16 -1 -3
BITMAP
FFFC
7FFE
00C0
03C0
07C0
0C00
0C60
0CF0
3FF0
31F0
30E0
31D8
1F8C
0700
0E00
0400
ENDCHAR
STARTCHAR uni0926094D0935094D092F
ENCODING -1
SWIDTH 1104 0
DWIDTH 18 0
BBX 20 15 -1 -2
BITMAP
FFFFE0
7FFFF0
0010C0
01F0C0
1FF0C0
1F00C0
3370C0
31B8C0
19F8C0
0FD3C0
00C7C0
007EC0
0000C0
0001C0
0000C0
ENDCHAR
STARTCHAR dhadeva_radeva
ENCODING -1
SWIDTH 852 0
DWIDTH 14 0
BBX 13 14 2 0
BITMAP
7800
EFF0
CDF8
DC60
4060
3C60
3860
30E0
31E0
13E0
0F60
0E60
1CE0
1860
ENDCHAR
STARTCHAR uni0927094D0928
ENCODING -1
SWIDTH 1202 0
DWIDTH 19 0
BBX 19 14 2 0
BITMAP
780000
EDFFC0
CDFFE0
DC0300
400300
3C0300
380300
31FF00
31F300
13E300
0F0300
000300
000300
000100
ENDCHAR
STARTCHAR uni0927094D0928094D092F
ENCODING -1
SWIDTH 1606 0
DWIDTH 26 0
BBX 25 14 2 0
BITMAP
78000000
EDFFFF00
CDFFFF80
DC018600
40008600
3C01C600
38018600
31FF8E00
31F21E00
13E1FE00
0F000600
00000600
00000E00
00000600
ENDCHAR
STARTCHAR uni0927094D092F
ENCODING -1
SWIDTH 1196 0
DWIDTH 19 0
BBX 19 14 2 0
BITMAP
780000
EFFFC0
CFFFE0
DC4300
406300
386300
7CE300
E1C700
618F00
63FF00
3F0300
000300
000300
000100
ENDCHAR
STARTCHAR uni0927094D0930
ENCODING -1
SWIDTH 524 0
DWIDTH 8 0
BBX 10 14 2 0
BITMAP
7800
EC00
CC00
DC00
4000
3C00
3800
30C0
31C0
1380
0F00
0E00
1C00
1800
ENDCHAR
STARTCHAR uni0927094D0935
ENCODING -1
SWIDTH 1112 0
DWIDTH 18 0
BBX 17 14 2 0
BITMAP
780000
EFFF00
DFFF80
DC0600
400600
384600
71E600
E18600
618E00
638E00
3FFE00
000600
000E00
000600
ENDCHAR
STARTCHAR uni0927094D09350930
ENCODING -1
SWIDTH 1112 0
DWIDTH 18 0
BBX 17 14 2 0
BITMAP
780000
EFFF00
DFFF80
DC0600
400600
384600
79E600
E18600
618E00
638E00
3FFE00
003600
006E00
00C600
ENDCHAR
STARTCHAR nadeva_radeva
ENCODING -1
SWIDTH 678 0
DWIDTH 11 0
BBX 14 13 -2 0
BITMAP
FFF8
7FFC
0030
0030
1FF0
1FF0
0E70
04F0
01F0
03B0
0730
0670
0030
ENDCHAR
STARTCHAR uni0928094D0915
ENCODING -1
SWIDTH 1367 0
DWIDTH 22 0
BBX 25 13 -2 0
BITMAP
FFFFFF00
7FFFFF80
00010000
00010000
00316000
0079F800
1FE18C00
1E638C00
0E630C00
003F3C00
00010000
00030000
00010000
ENDCHAR
STARTCHAR uni0928094D0915094D0938
ENCODING -1
SWIDTH 1771 0
DWIDTH 28 0
BBX 32 13 -2 0
BITMAP
FFFFFFFE
7FFFFFFF
00010618
00010618
00317618
0079FE18
1FE1BFF8
1E639EF8
0E631E18
003F0C18
00010218
00030118
00010088
ENDCHAR
STARTCHAR uni0928094D091A
ENCODING -1
SWIDTH 821 0
DWIDTH 13 0
BBX 17 15 -2 -2
BITMAP
FFFE00
7FFF80
000C00
1F8C00
1FCC00
0E3C00
041C00
018C00
030C00
070C00
0D1C00
1CFC00
082C00
000C00
000400
ENDCHAR
STARTCHAR uni0928094D0921
ENCODING -1
SWIDTH 1042 0
DWIDTH 17 0
BBX 20 13 -2 0
BITMAP
FFFFE0
7FFFF0
000180
000F80
1FFF80
1FF000
0E3000
041780
000EC0
000040
0040C0
003FC0
001F00
ENDCHAR
STARTCHAR uni0928094D0924
ENCODING -1
SWIDTH 1012 0
DWIDTH 16 0
BBX 20 13 -2 0
BITMAP
FFFFE0
7FFFF0
000180
000180
000180
000180
1FFF80
1E7180
0E6180
006180
002180
001180
000880
ENDCHAR
STARTCHAR uni0928094D09240930
ENCODING -1
SWIDTH 1001 0
DWIDTH 16 0
BBX 19 15 -2 -2
BITMAP
FFFFC0
7FFFE0
000180
1F8180
1FC180
0E3180
043980
00FD80
01C780
008F80
003D80
003180
000180
000180
000080
ENDCHAR
STARTCHAR uni0928094D0924094D092F
ENCODING -1
SWIDTH 1346 0
DWIDTH 22 0
BBX 25 13 -2 0
BITMAP
FFFFFF00
7FFFFF80
00018C00
00018C00
0001CC00
00038C00
1FFF0C00
1E721C00
0E61FC00
00600C00
00200C00
00100C00
000C0400
ENDCHAR
STARTCHAR uni0928094D0924094D0938
ENCODING -1
SWIDTH 1428 0
DWIDTH 23 0
BBX 26 13 -2 0
BITMAP
FFFFFF80
7FFFFFC0
00018300
0000C300
0000C300
0000C700
1FFFFF00
1E77DF00
0E638300
00610300
00208300
00104700
000C3300
ENDCHAR
STARTCHAR uni0928094D0925
ENCODING -1
SWIDTH 1112 0
DWIDTH 18 0
BBX 21 13 -2 0
BITMAP
FFF1F0
7FE9F8
00CC60
00CC60
007C60
001C60
1FF860
1E60E0
0E31E0
001FE0
000060
0000E0
000060
ENDCHAR
STARTCHAR uni0928094D0925094D092F
ENCODING -1
SWIDTH 1516 0
DWIDTH 24 0
BBX 28 13 -2 0
BITMAP
FFF7FFE0
7FEBFFF0
00CC3180
00CC3180
007C3180
001C7180
1FF8E180
1E61C780
0E3FFF80
00060180
00000180
00000180
00000080
ENDCHAR
STARTCHAR uni0928094D0925094D0935
ENCODING -1
SWIDTH 1432 0
DWIDTH 23 0
BBX 26 13 -2 0
BITMAP
FFF3FF80
7FEBFFC0
00CC0300
00CC0300
007C2300
001CF300
1FF8C300
1E61C300
0E3FC700
00067F00
00000B00
00000300
00000300
ENDCHAR
STARTCHAR uni0928094D0926
ENCODING -1
SWIDTH 1008 0
DWIDTH 16 0
BBX 20 16 -2 -3
BITMAP
FFFFE0
7FFFF0
000600
000600
000600
003E00
1FF000
1E6000
0E6000
006700
002780
001F80
000F80
000100
0000C0
000060
ENDCHAR
STARTCHAR uni0928094D09260930
ENCODING -1
SWIDTH 1008 0
DWIDTH 16 0
BBX 20 17 -2 -4
BITMAP
FFFFE0
7FFFF0
000600
000600
000600
003E00
1FF000
1E6000
0E6000
006300
002780
001F80
000F80
000380
000740
000620
000610
ENDCHAR
STARTCHAR uni0928094D0926094D0935
ENCODING -1
SWIDTH 1038 0
DWIDTH 17 0
BBX 20 14 -2 -1
BITMAP
FFFFE0
7FFFF0
000300
000F00
1FFF00
1FF000
0E6300
042380
00FBC0
01CFC0
01C780
00CE40
007C20
001800
ENDCHAR
STARTCHAR uni0928094D0927
ENCODING -1
SWIDTH 1072 0
DWIDTH 17 0
BBX 21 14 -2 0
BITMAP
00F000
FFCBF0
7F9FF8
0098C0
00C0C0
0078C0
0038C0
1FE0C0
1E61C0
0E37C0
000EC0
0000C0
0000C0
000040
ENDCHAR
STARTCHAR uni0928094D09270930
ENCODING -1
SWIDTH 1072 0
DWIDTH 17 0
BBX 21 14 -2 0
BITMAP
00F000
FFCBF0
7F9FF8
0098C0
00C0C0
0078C0
0038C0
1FE0C0
1E61C0
0E37C0
000FC0
000EC0
001CC0
001840
ENDCHAR
STARTCHAR uni0928094D0927094D092F
ENCODING -1
SWIDTH 1496 0
DWIDTH 24 0
BBX 27 14 -2 0
BITMAP
007C0000
FF67FFC0
7FFFFFE0
006C2180
00603180
003C3180
003C7180
1FF1E380
1E60C780
0E31FF80
001F8180
00000180
00000380
00000180
ENDCHAR
STARTCHAR uni0928094D0927094D0935
ENCODING -1
SWIDTH 1412 0
DWIDTH 23 0
BBX 26 14 -2 0
BITMAP
007C0000
FF67FF80
7FFFFFC0
006C0200
00600200
003C6200
0038F200
1FF0C200
1E60C600
0E31CE00
001FFE00
00000200
00000600
00000200
ENDCHAR
STARTCHAR uni0928094D0928
ENCODING -1
SWIDTH 788 0
DWIDTH 13 0
BBX 16 14 -2 -1
BITMAP
FFFE
7FFF
0008
0008
0008
0008
1FF8
1E38
0E78
00E8
01C8
01D8
01C8
0040
ENDCHAR
STARTCHAR uni0928094D0928094D092F
ENCODING -1
SWIDTH 1072 0
DWIDTH 17 0
BBX 21 14 -2 -1
BITMAP
FFFFF0
7FFFF8
0010C0
0018C0
0018C0
0038C0
1FF1C0
1E63C0
0E7FC0
00E0C0
01C0C0
01C0C0
01C040
004000
ENDCHAR
STARTCHAR uni0928094D092A
ENCODING -1
SWIDTH 978 0
DWIDTH 16 0
BBX 19 13 -2 0
BITMAP
FFFFC0
7FFFE0
006180
006180
006180
006180
1FE380
1E2780
0E1F80
000180
000180
000380
000180
ENDCHAR
STARTCHAR uni0928094D092A0930
ENCODING -1
SWIDTH 978 0
DWIDTH 16 0
BBX 19 13 -2 0
BITMAP
FFFFC0
7FFFE0
006180
006180
006180
006180
1FE380
1E2780
0E1F80
001D80
003980
007380
006180
ENDCHAR
STARTCHAR uni0928094D092B
ENCODING -1
SWIDTH 1368 0
DWIDTH 22 0
BBX 25 13 -2 0
BITMAP
FFFFFF00
7FFFFF80
00618000
00618000
0061F000
0061F800
1FE38C00
1E278C00
0E1F8C00
0001BC00
00018000
00038000
00018000
ENDCHAR
STARTCHAR uni0928094D092D
ENCODING -1
SWIDTH 1073 0
DWIDTH 17 0
BBX 21 13 -2 0
BITMAP
FFC3F0
7FF3F8
0018C0
0018C0
0018C0
0018C0
1FFFC0
1E78C0
0E30C0
0000C0
0000C0
0000C0
000040
ENDCHAR
STARTCHAR uni0928094D092E
ENCODING -1
SWIDTH 1114 0
DWIDTH 18 0
BBX 21 13 -2 0
BITMAP
FFFFF0
7FFFF8
001860
001860
001860
001860
1FFFE0
1E7860
0E7060
000060
000060
0000E0
000060
ENDCHAR
STARTCHAR uni0928094D092E094D092F
ENCODING -1
SWIDTH 1438 0
DWIDTH 23 0
BBX 26 13 -2 0
BITMAP
FFFFFF80
7FFFFFC0
00184300
00186300
00186300
0018E300
1FFFC700
1E798F00
0E70FF00
00000300
00000300
00000300
00000100
ENDCHAR
STARTCHAR uni0928094D092F
ENCODING -1
SWIDTH 1032 0
DWIDTH 17 0
BBX 20 13 -2 0
BITMAP
FFFFE0
7FFFF0
003180
003180
003180
007180
1FE180
1E4380
0E3F80
000180
000180
000180
000080
ENDCHAR
STARTCHAR uni0928094D0930
ENCODING -1
SWIDTH 350 0
DWIDTH 6 0
BBX 11 12 -2 1
BITMAP
FFC0
7FE0
0000
0000
1FE0
1FE0
0E60
04E0
01C0
0380
0700
0600
ENDCHAR
STARTCHAR uni0928094D0932
ENCODING -1
SWIDTH 1197 0
DWIDTH 19 0
BBX 23 13 -2 0
BITMAP
FFFFFC
7FFFFE
000030
000030
003830
007670
1FE3F0
1E63B0
0E2330
001030
000830
000030
000010
ENDCHAR
STARTCHAR uni0928094D0935
ENCODING -1
SWIDTH 978 0
DWIDTH 16 0
BBX 19 13 -2 0
BITMAP
FFFFC0
7FFFE0
000180
000180
003180
007980
1FE180
1E6380
0E6380
003F80
000180
000380
000180
ENDCHAR
STARTCHAR uni0928094D0938094D091F
ENCODING -1
SWIDTH 1519 0
DWIDTH 24 0
BBX 28 13 -2 0
BITMAP
FFFFFFE0
7FFFFFF0
00180600
00180600
000C0E00
000C3E00
1FFC7000
1E7FE000
0E39E000
00106000
000860C0
000431C0
00020F00
ENDCHAR
STARTCHAR uni0928094D0939094D092F
ENCODING -1
SWIDTH 1361 0
DWIDTH 22 0
BBX 25 17 -2 -4
BITMAP
FFFFFF00
7FFFFF80
00018600
00018600
003F8600
003F8600
1FE00600
1E300600
0E1E0600
00318600
00318600
00318E00
00318E00
0008FE00
00043600
00020600
00010600
ENDCHAR
STARTCHAR uni0929094D0930
ENCODING -1
SWIDTH 350 0
DWIDTH 6 0
BBX 11 17 -2 -4
BITMAP
FFC0
7FE0
0000
0000
1FE0
1FE0
0E60
04E0
01C0
0380
0700
0600
0000
0000
0100
0180
0180
ENDCHAR
STARTCHAR padeva_radeva
ENCODING -1
SWIDTH 648 0
DWIDTH 10 0
BBX 13 13 -1 0
BITMAP
FFF0
7FF8
30C0
30C0
30C0
30C0
10C0
19C0
07C0
06C0
0EC0
1CC0
1840
ENDCHAR
STARTCHAR uni092A094D091F
ENCODING -1
SWIDTH 678 0
DWIDTH 11 0
BBX 13 14 -1 -1
BITMAP
FFF0
7FF8
1860
1860
1860
1860
1860
0FE0
0F80
1C00
1800
1820
0870
07E0
ENDCHAR
STARTCHAR uni092A094D0920
ENCODING -1
SWIDTH 678 0
DWIDTH 11 0
BBX 13 14 -1 -1
BITMAP
FFF0
7FF8
1860
1860
1860
1860
1860
0FE0
0FC0
1C20
3830
1830
1870
07E0
ENDCHAR
STARTCHAR uni092A094D0924
ENCODING -1
SWIDTH 740 0
DWIDTH 12 0
BBX 14 15 -1 -2
BITMAP
FFF8
7FFC
0C30
0C30
0C30
0C30
0C70
0CF0
1FF0
3830
3030
1070
0830
0400
0200
ENDCHAR
STARTCHAR uni092A094D0924094D092F
ENCODING -1
SWIDTH 1094 0
DWIDTH 18 0
BBX 20 15 -1 -2
BITMAP
FFFFE0
7FFFF0
0C3180
0C3180
0C3980
0C7180
0CE180
0CC380
1FFF80
380180
300180
100180
080080
040000
020000
ENDCHAR
STARTCHAR uni092A094D0928
ENCODING -1
SWIDTH 928 0
DWIDTH 15 0
BBX 17 13 -1 0
BITMAP
FFFF00
7FFF80
300600
300600
300600
300600
13FE00
19C600
07C600
000600
000600
000E00
000600
ENDCHAR
STARTCHAR uni092A094D092E
ENCODING -1
SWIDTH 1044 0
DWIDTH 17 0
BBX 19 13 -1 0
BITMAP
FFFFC0
7FFFE0
306180
306180
306180
306180
13FF80
19E180
07C180
000180
000180
000380
000180
ENDCHAR
STARTCHAR uni092A094D092F
ENCODING -1
SWIDTH 1002 0
DWIDTH 16 0
BBX 18 13 -1 0
BITMAP
FFFF80
7FFFC0
304300
306300
306300
30E300
13C700
198F00
07FF00
000300
000300
000300
000100
ENDCHAR
STARTCHAR uni092A094D0930
ENCODING -1
SWIDTH 320 0
DWIDTH 5 0
BBX 10 13 -1 0
BITMAP
FF80
7FC0
3000
3000
3000
3080
10C0
1980
0700
0600
0C00
1C00
1800
ENDCHAR
STARTCHAR uni092A094D0930092A
ENCODING -1
SWIDTH 1018 0
DWIDTH 16 0
BBX 19 13 -1 0
BITMAP
FFFFC0
7FFFE0
30C300
30C300
30C300
30C300
10C300
19E700
071F00
060300
0C0300
1C0300
180100
ENDCHAR
STARTCHAR uni092A094D0932
ENCODING -1
SWIDTH 1157 0
DWIDTH 19 0
BBX 21 13 -1 0
BITMAP
FFFFF0
7FFFF8
3000C0
3000C0
3070C0
31F9C0
118FC0
198FC0
07CCC0
0040C0
0030C0
0000C0
000040
ENDCHAR
STARTCHAR uni092A094D0935
ENCODING -1
SWIDTH 938 0
DWIDTH 15 0
BBX 17 13 -1 0
BITMAP
FFFF00
7FFF80
300600
300600
306600
31E600
118600
198600
078E00
007E00
000600
000600
000200
ENDCHAR
STARTCHAR uni092A094D0938
ENCODING -1
SWIDTH 1084 0
DWIDTH 17 0
BBX 20 13 -1 0
BITMAP
FFFFE0
7FFFF0
306180
306180
306180
307180
13FF80
19EF80
07E180
004180
002180
001180
000880
ENDCHAR
STARTCHAR uni092B0930
ENCODING -1
SWIDTH 1038 0
DWIDTH 17 0
BBX 19 13 -1 0
BITMAP
FFFFC0
7FFFE0
30C000
30C000
30F800
30F600
10E300
19C300
07C700
06CE00
0EC000
1CC000
184000
ENDCHAR
STARTCHAR uni092B094D092F
ENCODING -1
SWIDTH 1296 0
DWIDTH 21 0
BBX 23 13 -1 0
BITMAP
FFFFFC
7FFFFE
30C018
30C018
30F818
30F618
10E318
19C318
07C738
00CE78
00C7F8
00C3B8
004018
ENDCHAR
STARTCHAR uni092B094D0930
ENCODING -1
SWIDTH 628 0
DWIDTH 10 0
BBX 15 13 -1 0
BITMAP
FFFC
7FFE
30C0
30C0
30FC
30F6
10E0
19C0
07C0
06C0
0EC0
1CC0
1840
ENDCHAR
STARTCHAR uni092C0930
ENCODING -1
SWIDTH 648 0
DWIDTH 10 0
BBX 13 14 -1 -1
BITMAP
FFF0
7FF8
00C0
00C0
0CC0
1EC0
3CC0
12C0
19C0
0FC0
07C0
0EC0
0C40
0800
ENDCHAR
STARTCHAR uni092C094D091C
ENCODING -1
SWIDTH 1124 0
DWIDTH 18 0
BBX 20 13 -1 0
BITMAP
FFFFE0
7FFFF0
0000C0
1C00C0
3C00C0
3400C0
327FC0
11E0C0
0F90C0
0008C0
030CC0
008CC0
007840
ENDCHAR
STARTCHAR uni092C094D091C094D092F
ENCODING -1
SWIDTH 1428 0
DWIDTH 23 0
BBX 25 13 -1 0
BITMAP
FFFFFF00
7FFFFF80
00008600
1C00C600
3C00C600
3401C600
327F8E00
11E31E00
0F91FE00
00080600
030C0600
008C0E00
00780600
ENDCHAR
STARTCHAR uni092C094D0926
ENCODING -1
SWIDTH 1058 0
DWIDTH 17 0
BBX 19 16 -1 -3
BITMAP
FFFFC0
7FFFE0
000600
000600
0C0600
1E3E00
3C7000
126000
19E000
0FE700
002780
001F80
000F80
000100
000080
000060
ENDCHAR
STARTCHAR uni092C094D0927
ENCODING -1
SWIDTH 1124 0
DWIDTH 18 0
BBX 20 14 -1 0
BITMAP
00F000
FFDBE0
7F9FF0
0198C0
00C0C0
0C78C0
1E78C0
3C60C0
3261C0
19F7C0
0F8EC0
0000C0
0000C0
0000C0
ENDCHAR
STARTCHAR uni092C094D0927094D0935
ENCODING -1
SWIDTH 1464 0
DWIDTH 23 0
BBX 26 14 -1 0
BITMAP
00780000
FE67FF80
7FFFFFC0
004C0600
00600600
0C3C6600
1E78F600
3C61C600
1260C600
19E1CE00
0F9F7E00
00000600
00000600
00000200
ENDCHAR
STARTCHAR uni092C094D092D
ENCODING -1
SWIDTH 1143 0
DWIDTH 18 0
BBX 21 13 -1 0
BITMAP
FFC3F0
7FF3F8
0018C0
0018C0
0C18C0
1E18C0
3C7FC0
1A78C0
19F8C0
0FC0C0
0000C0
0000C0
000040
ENDCHAR
STARTCHAR uni092C094D092D0930
ENCODING -1
SWIDTH 1143 0
DWIDTH 18 0
BBX 21 13 -1 0
BITMAP
FFC3F0
7FF3F8
0018C0
0018C0
0C18C0
1E18C0
3C7FC0
1A78C0
19F9C0
0FC3C0
0007C0
000EC0
000C40
ENDCHAR
STARTCHAR uni092C094D092F
ENCODING -1
SWIDTH 1132 0
DWIDTH 18 0
BBX 21 13 -1 0
BITMAP
FFFFF0
7FFFF8
0010C0
0018C0
0C18C0
1E38C0
3C71C0
1263C0
19FFC0
0FC0C0
0000C0
0000C0
000040
ENDCHAR
STARTCHAR uni092C094D0930
ENCODING -1
SWIDTH 320 0
DWIDTH 5 0
BBX 10 13 -1 0
BITMAP
FF80
7FC0
0000
0000
0C00
1E00
3C00
12C0
19C0
0F80
0700
0E00
0C00
ENDCHAR
STARTCHAR uni092C094D0936
ENCODING -1
SWIDTH 1151 0
DWIDTH 18 0
BBX 21 13 -1 0
BITMAP
FC63F0
7EF1F8
00D8C0
0078C0
0C18C0
1E18C0
3CF8C0
12F8C0
19F8C0
0F86C0
0000C0
0000C0
000040
ENDCHAR
STARTCHAR uni092C094D0938
ENCODING -1
SWIDTH 1174 0
DWIDTH 19 0
BBX 21 13 -1 0
BITMAP
FFFFF0
7FFFF8
003060
001860
0C1860
1E18E0
3CFFE0
1AFBE0
19F060
0FA060
001060
0008E0
000660
ENDCHAR
STARTCHAR uni092C094D095B
ENCODING -1
SWIDTH 1118 0
DWIDTH 18 0
BBX 20 13 -1 0
BITMAP
FFFFE0
7FFFF0
0000C0
1C00C0
3C00C0
3400C0
327FC0
11E0C0
0F90C0
0008C0
030CC0
188CC0
187840
ENDCHAR
STARTCHAR bhadeva_radeva
ENCODING -1
SWIDTH 758 0
DWIDTH 12 0
BBX 13 13 1 0
BITMAP
E3F0
D3F8
D8C0
78C0
18C0
18C0
FFC0
78C0
31C0
03C0
07C0
0EC0
0C40
ENDCHAR
STARTCHAR uni092D0930092F
ENCODING -1
SWIDTH 1162 0
DWIDTH 19 0
BBX 19 14 1 -1
BITMAP
E7FFC0
D7FFE0
D86100
782100
187100
18E100
FFE300
788700
31FD00
038100
070100
0E0300
1C0100
080000
ENDCHAR
STARTCHAR uni092D094D0928
ENCODING -1
SWIDTH 1068 0
DWIDTH 17 0
BBX 18 13 1 0
BITMAP
E7FF00
D3FFC0
D80600
780600
180600
180600
FFFE00
79E600
31C600
000600
000600
000600
000200
ENDCHAR
STARTCHAR uni092D094D092F
ENCODING -1
SWIDTH 1162 0
DWIDTH 19 0
BBX 19 13 1 0
BITMAP
E7FFC0
D7FFE0
D86100
782100
187100
18E100
FFE300
788700
307D00
000100
000100
000300
000100
ENDCHAR
STARTCHAR uni092D094D0930
ENCODING -1
SWIDTH 430 0
DWIDTH 7 0
BBX 10 13 1 0
BITMAP
E000
D000
D800
7800
1800
1800
FF80
7880
31C0
0380
0700
0E00
0C00
ENDCHAR
STARTCHAR madeva_radeva
ENCODING -1
SWIDTH 784 0
DWIDTH 13 0
BBX 16 13 -2 0
BITMAP
FFFE
7FFF
0308
0308
0308
0308
1FF8
1E18
0E38
0078
00E8
01D8
0188
ENDCHAR
STARTCHAR uni092E094D0926
ENCODING -1
SWIDTH 1020 0
DWIDTH 16 0
BBX 20 16 -2 -3
BITMAP
FFFFE0
7FFFF0
030300
030300
030300
033F00
1FF000
1E6000
0E6000
006300
002380
001FC0
000780
000180
000040
000020
ENDCHAR
STARTCHAR uni092E094D092C
ENCODING -1
SWIDTH 1024 0
DWIDTH 16 0
BBX 20 13 -2 0
BITMAP
FFFFE0
7FFFF0
030180
030180
031980
033D80
1FF980
1E3580
0E3380
001F80
000180
000180
000080
ENDCHAR
STARTCHAR uni092E094D092C0930
ENCODING -1
SWIDTH 1024 0
DWIDTH 16 0
BBX 20 14 -2 -1
BITMAP
FFFFE0
7FFFF0
030180
030180
031980
033D80
1FF980
1E3580
0E3380
001F80
000F80
001D80
001880
001000
ENDCHAR
STARTCHAR uni092E094D092C094D092F
ENCODING -1
SWIDTH 1478 0
DWIDTH 24 0
BBX 27 13 -2 0
BITMAP
FFFFFFC0
7FFFFFE0
03006180
03003180
03187180
033C6180
1FF9E380
1E358780
0E33FF80
001F0180
00000180
00000380
00000180
ENDCHAR
STARTCHAR uni092E094D092D
ENCODING -1
SWIDTH 1069 0
DWIDTH 17 0
BBX 21 13 -2 0
BITMAP
FFC3F0
7FF3F8
0318C0
0318C0
0318C0
0318C0
1FFFC0
1E78C0
0E30C0
0000C0
0000C0
0000C0
000040
ENDCHAR
STARTCHAR uni092E094D092D0930
ENCODING -1
SWIDTH 1069 0
DWIDTH 17 0
BBX 21 13 -2 0
BITMAP
FFC3F0
7FF3F8
0318C0
0318C0
0318C0
0318C0
1FFFC0
1E78C0
0E31C0
0003C0
0006C0
000CC0
000840
ENDCHAR
STARTCHAR uni092E094D092F
ENCODING -1
SWIDTH 1108 0
DWIDTH 18 0
BBX 21 13 -2 0
BITMAP
FFFFF0
7FFFF8
030860
030C60
031C60
031C60
1FF8E0
1E21E0
0E1FE0
000060
000060
0000E0
000060
ENDCHAR
STARTCHAR uni092E094D0930
ENCODING -1
SWIDTH 436 0
DWIDTH 7 0
BBX 13 13 -2 0
BITMAP
FFF0
7FF8
0300
0300
0300
0300
1FF0
1E10
0E38
0070
00E0
01C0
0180
ENDCHAR
STARTCHAR uni092E094D0932
ENCODING -1
SWIDTH 1243 0
DWIDTH 20 0
BBX 23 13 -2 0
BITMAP
FFFFFC
7FFFFE
030018
030018
031C18
033F38
1FF1F8
1E33D8
0E3198
000818
000418
000038
000018
ENDCHAR
STARTCHAR uni092E094D0935
ENCODING -1
SWIDTH 1024 0
DWIDTH 16 0
BBX 20 13 -2 0
BITMAP
FFFFE0
7FFFF0
030180
030180
031980
033D80
1FF180
1E3180
0E3380
001F80
000180
000180
000080
ENDCHAR
STARTCHAR uni092E094D0936
ENCODING -1
SWIDTH 1165 0
DWIDTH 19 0
BBX 22 13 -2 0
BITMAP
FFB9F8
7FFCFC
036430
033C30
030E30
030630
1FFC30
1E3C30
0E3E30
000130
000030
000070
000030
ENDCHAR
STARTCHAR uni092E094D0938
ENCODING -1
SWIDTH 1200 0
DWIDTH 19 0
BBX 23 13 -2 0
BITMAP
FFFFFC
7FFFFE
030830
030C30
030C30
030C30
1FFFF0
1E7DF0
0E3C30
001830
000430
000230
000110
ENDCHAR
STARTCHAR uni092E094D0939
ENCODING -1
SWIDTH 934 0
DWIDTH 15 0
BBX 18 17 -2 -4
BITMAP
FFFF80
7FFFC0
030600
030600
033E00
033800
1FF000
1E3000
0E3E00
007100
006180
006380
003300
001000
000C00
000200
000100
ENDCHAR
STARTCHAR uni092F0930
ENCODING -1
SWIDTH 732 0
DWIDTH 12 0
BBX 14 13 -1 0
BITMAP
FFF8
FFFC
0C30
0630
0E30
0E30
3C70
10F0
0FF0
03B0
0730
0E70
0C30
ENDCHAR
STARTCHAR uni092F094D0928
ENCODING -1
SWIDTH 732 0
DWIDTH 12 0
BBX 14 15 -1 -2
BITMAP
FFF8
FFFC
0C30
0630
0E30
0E30
3C70
10F0
0FF0
03B0
0730
0E70
1E30
0E00
0600
ENDCHAR
STARTCHAR uni092F094D092F
ENCODING -1
SWIDTH 1098 0
DWIDTH 18 0
BBX 20 13 -1 0
BITMAP
FFFFE0
FFFFF0
043080
063080
063880
0E7080
3CF180
18C380
0FFE80
000080
000080
000180
000080
ENDCHAR
STARTCHAR uni092F094D0930
ENCODING -1
SWIDTH 404 0
DWIDTH 6 0
BBX 12 14 -1 -1
BITMAP
FFE0
FFF0
0C00
0600
0E00
0E00
3C60
10E0
0FC0
0380
0700
0E00
1C00
0800
ENDCHAR
STARTCHAR radeva_uvowelsigndeva
ENCODING -1
SWIDTH 832 0
DWIDTH 13 0
BBX 16 13 -2 0
BITMAP
FFFE
7FFF
0200
0300
03E0
03F8
1F88
1F0C
0F1C
0678
0300
0080
0040
ENDCHAR
STARTCHAR radeva_uuvowelsigndeva
ENCODING -1
SWIDTH 446 0
DWIDTH 7 0
BBX 12 17 -2 -4
BITMAP
FF80
7FE0
0200
0300
0300
0300
1F00
1F00
0F00
0600
0100
0780
0FC0
0C20
0810
0800
0780
ENDCHAR
STARTCHAR radeva_viramadeva
ENCODING -1
SWIDTH 446 0
DWIDTH 7 0
BBX 11 17 -2 -4
BITMAP
FF80
7FE0
0200
0300
0300
0300
1F00
1F00
0F00
0600
0300
0080
0040
0400
0200
0100
0080
ENDCHAR
STARTCHAR uni0931094D092F
ENCODING -1
SWIDTH 1108 0
DWIDTH 18 0
BBX 21 14 -2 -1
BITMAP
FFFFF0
7FFFF8
000860
000C60
001C60
001C60
1078E0
0FE1E0
039FE0
000060
000060
0000E0
030060
030000
ENDCHAR
STARTCHAR uni0931094D0939
ENCODING -1
SWIDTH 924 0
DWIDTH 15 0
BBX 18 17 -2 -4
BITMAP
FFFF80
7FFFC0
000600
000600
003E00
007800
106000
0FF000
03BE00
007300
006180
006380
032300
031000
000800
000600
000300
ENDCHAR
STARTCHAR uni09320930
ENCODING -1
SWIDTH 867 0
DWIDTH 14 0
BBX 16 15 -1 -2
BITMAP
FFFE
7FFF
000C
000C
0E0C
1D9C
18FC
19EC
188C
041C
023C
007C
00EC
01C0
0080
ENDCHAR
STARTCHAR uni09320962.loclMAR
ENCODING -1
SWIDTH 919 0
DWIDTH 15 0
BBX 17 14 -1 -1
BITMAP
FFFF00
7FFF80
003000
003000
0E7000
1DF800
198C00
180C00
081C00
043800
027000
006000
002600
001E00
ENDCHAR
STARTCHAR uni09320963.loclMAR
ENCODING -1
SWIDTH 919 0
DWIDTH 15 0
BBX 17 16 -1 -3
BITMAP
FFFF00
7FFF80
003000
003000
0E7000
1DF800
198C00
180C00
081C00
043800
027000
002000
003800
007000
006200
003E00
ENDCHAR
STARTCHAR uni0932094D091A094D092F
ENCODING -1
SWIDTH 1406 0
DWIDTH 23 0
BBX 25 15 -1 -2
BITMAP
FFFFFF00
7FFFFF80
00018C00
00018C00
0E71CC00
1DEB8C00
18C70C00
18C21C00
0801FC00
04FD8C00
021CCC00
0038CC00
0010C400
0019C000
000F8000
ENDCHAR
STARTCHAR uni0932094D0921
ENCODING -1
SWIDTH 1261 0
DWIDTH 20 0
BBX 23 13 -1 0
BITMAP
FFFFFC
7FFFFE
000030
0003F0
0E77F0
1DEE00
18C400
18C7E0
1801F0
041018
020838
0007F0
0003E0
ENDCHAR
STARTCHAR uni0932094D0925
ENCODING -1
SWIDTH 1421 0
DWIDTH 23 0
BBX 25 13 -1 0
BITMAP
FFF73F00
7FFE9F80
000CC600
000CC600
0E67C600
1FF1C600
18C98600
18CF0E00
18061E00
0401FE00
02000600
00000E00
00000600
ENDCHAR
STARTCHAR uni0932094D0925094D092F
ENCODING -1
SWIDTH 1825 0
DWIDTH 29 0
BBX 32 13 -1 0
BITMAP
FFF77FFE
7FFFBFFF
000CC218
000CC318
0E67C318
1FF1C718
18CF8E38
18C61C78
1803FFF8
04000018
02000018
00000018
00000008
ENDCHAR
STARTCHAR uni0932094D09260930
ENCODING -1
SWIDTH 1257 0
DWIDTH 20 0
BBX 23 17 -1 -4
BITMAP
FFFFFC
7FFFFE
0000C0
0000C0
0E70C0
1DEFC0
18CE00
18CC00
180C00
040C60
0204F0
0003F0
0000F0
000070
0000E8
0000C4
0000C2
ENDCHAR
STARTCHAR uni0932094D092D
ENCODING -1
SWIDTH 1322 0
DWIDTH 21 0
BBX 24 13 -1 0
BITMAP
FFF87E
7FFE7F
000318
000318
0E7318
1DEB18
18DFF8
18CF18
180618
040018
020018
000018
000008
ENDCHAR
STARTCHAR uni0932094D0930
ENCODING -1
SWIDTH 539 0
DWIDTH 9 0
BBX 13 15 -1 -2
BITMAP
FFF0
7FF8
0000
0000
0E00
1D98
18F8
19E0
1880
0418
0230
0070
00E0
01C0
0080
ENDCHAR
STARTCHAR uni0932094D0935094D0921
ENCODING -1
SWIDTH 1611 0
DWIDTH 26 0
BBX 28 13 -1 0
BITMAP
FFFFFFE0
7FFFFFF0
00000180
00000F80
0E733F80
1DEF3000
18CC3000
18CC3F80
08047EC0
0403E040
020040E0
00003FC0
00000F00
ENDCHAR
STARTCHAR uni0932094D0939094D092F
ENCODING -1
SWIDTH 1610 0
DWIDTH 26 0
BBX 28 17 -1 -4
BITMAP
FFFFFFE0
7FFFFFF0
000030C0
000030C0
0E77F0C0
1DEFF0C0
18CE00C0
18C600C0
1803C0C0
040630C0
020630C0
000639C0
000231C0
00011FC0
000086C0
000040C0
000020C0
ENDCHAR
STARTCHAR uni0932094D095B
ENCODING -1
SWIDTH 1317 0
DWIDTH 21 0
BBX 24 14 -1 -1
BITMAP
FFFFFE
7FFFFF
00000C
00000C
0E700C
1DE80C
18CFFC
18C20C
18010C
04008C
0220CC
0019DC
18078C
180000
ENDCHAR
STARTCHAR lladeva_radeva
ENCODING -1
SWIDTH 1037 0
DWIDTH 17 0
BBX 19 16 -1 -3
BITMAP
FFFFC0
7FFFE0
001800
001800
0E3800
1F7E00
386300
18C300
19C700
0F9E00
000000
000000
007000
006800
00C400
00C300
ENDCHAR
STARTCHAR uni0933094D0930
ENCODING -1
SWIDTH 1037 0
DWIDTH 17 0
BBX 19 20 -1 -7
BITMAP
FFFFC0
7FFFE0
000000
000000
0E3800
1F7E00
186300
18C300
19C700
0F9E00
000000
000000
007000
006800
00C400
00C300
000800
000400
000200
000100
ENDCHAR
STARTCHAR uni0934094D0930
ENCODING -1
SWIDTH 1037 0
DWIDTH 17 0
BBX 19 20 -1 -7
BITMAP
FFFFC0
7FFFE0
000000
000000
0E3800
1F7E00
186300
18C300
19C700
0F9E00
000000
000000
00F000
00E800
00C400
00C300
000800
000400
000200
000100
ENDCHAR
STARTCHAR vadeva_radeva
ENCODING -1
SWIDTH 648 0
DWIDTH 10 0
BBX 13 14 -1 -1
BITMAP
FFF0
7FF8
00C0
00C0
0CC0
1EC0
38C0
10C0
19C0
0FC0
07C0
0EC0
0C40
0800
ENDCHAR
STARTCHAR uni0935094D0928
ENCODING -1
SWIDTH 648 0
DWIDTH 10 0
BBX 13 15 -1 -2
BITMAP
FFF0
7FF8
00C0
00C0
0CC0
1EC0
38C0
30C0
19C0
0FC0
07C0
0EC0
1E40
0E00
0600
ENDCHAR
STARTCHAR uni0935094D092F
ENCODING -1
SWIDTH 1132 0
DWIDTH 18 0
BBX 21 13 -1 0
BITMAP
FFFFF0
7FFFF8
0010C0
0018C0
0C18C0
1E38C0
3871C0
3063C0
18FFC0
0F80C0
0000C0
0000C0
000040
ENDCHAR
STARTCHAR uni0935094D0930
ENCODING -1
SWIDTH 320 0
DWIDTH 5 0
BBX 10 13 -1 0
BITMAP
FF80
7FC0
0000
0000
0C00
1E00
3800
30C0
19C0
0F80
0700
0E00
0C00
ENDCHAR
STARTCHAR uni0935094D0939
ENCODING -1
SWIDTH 921 0
DWIDTH 15 0
BBX 17 17 -1 -4
BITMAP
FFFF00
7FFF80
000C00
000C00
0C7C00
1EF000
38C000
306000
18FC00
0FE600
00C300
00C700
004600
002000
001000
000800
000600
ENDCHAR
STARTCHAR shadeva_radeva
ENCODING -1
SWIDTH 755 0
DWIDTH 12 0
BBX 13 14 1 -1
BITMAP
73E0
EBF8
CCC0
CCC0
6CC0
3CC0
1CC0
3BC0
71C0
E3C0
47C0
0EC0
1C40
0800
ENDCHAR
STARTCHAR uni0936094D0915
ENCODING -1
SWIDTH 1477 0
DWIDTH 24 0
BBX 24 13 1 0
BITMAP
77FFFE
6BFFFF
CC0600
4C0600
6C67C0
3CF7F0
1FC718
38C618
70CE38
E07E70
400600
000600
000200
ENDCHAR
STARTCHAR uni0936094D091A
ENCODING -1
SWIDTH 838 0
DWIDTH 13 0
BBX 13 17 2 -4
BITMAP
67F0
DFF8
D8C0
C8C0
CDC0
7FC0
3FC0
30C0
60C0
C8C0
98C0
38C0
78C0
F9C0
CFC0
03C0
0040
ENDCHAR
STARTCHAR uni0936094D091B
ENCODING -1
SWIDTH 1410 0
DWIDTH 23 0
BBX 23 13 1 0
BITMAP
77FFFC
EFFFFE
CC0060
4CE060
6DF0E0
3D81D0
1F9998
387D98
7060F8
E06078
406038
0021F0
001FC0
ENDCHAR
STARTCHAR uni0936094D091F
ENCODING -1
SWIDTH 1118 0
DWIDTH 18 0
BBX 18 13 1 0
BITMAP
77FF80
6FFFC0
CC0C00
4C0C00
6C0C00
3C7C00
1FE000
39C000
718000
E08000
40C100
006700
003E00
ENDCHAR
STARTCHAR uni0936094D0924
ENCODING -1
SWIDTH 1072 0
DWIDTH 17 0
BBX 18 13 1 0
BITMAP
77FF80
FFFFC0
C80600
CC0600
6C0600
3C0600
1FFE00
31C600
718600
E18600
C08600
004600
002200
ENDCHAR
STARTCHAR uni0936094D0928
ENCODING -1
SWIDTH 1088 0
DWIDTH 17 0
BBX 18 13 1 0
BITMAP
73FF80
FBFFC0
C80600
CC0600
6C0600
3C0600
1FFE00
39E600
70C600
E00600
C00600
000600
000200
ENDCHAR
STARTCHAR uni0936094D092E
ENCODING -1
SWIDTH 1194 0
DWIDTH 19 0
BBX 20 13 1 0
BITMAP
7FFFE0
FFFFF0
C86180
CC6180
6C6180
3C6180
1FFF80
39E180
70E180
E00180
C00180
000180
000080
ENDCHAR
STARTCHAR uni0936094D092F
ENCODING -1
SWIDTH 1182 0
DWIDTH 19 0
BBX 19 13 1 0
BITMAP
77FFC0
6BFFE0
CC2180
4C3180
6C3180
3C7180
1FE380
38C780
707F80
E00180
400180
000380
000180
ENDCHAR
STARTCHAR uni0936094D0930
ENCODING -1
SWIDTH 427 0
DWIDTH 7 0
BBX 10 14 1 -1
BITMAP
7000
E800
CC00
CC00
6C00
3C00
1C00
3B80
71C0
E380
4700
0E00
1C00
0800
ENDCHAR
STARTCHAR uni0936094D0930092F
ENCODING -1
SWIDTH 1182 0
DWIDTH 19 0
BBX 19 13 1 0
BITMAP
77FFC0
6BFFE0
CC2180
4C3180
6C3180
3C7180
1FE380
39C780
73FF80
E70180
4E0180
1C0380
180180
ENDCHAR
STARTCHAR uni0936094D0932
ENCODING -1
SWIDTH 1307 0
DWIDTH 21 0
BBX 21 13 1 0
BITMAP
77FFF0
6BFFF8
CC0060
6C0060
6C7060
3CECE0
1FC7E0
38CF60
704660
E02060
401060
0000E0
000060
ENDCHAR
STARTCHAR uni0936094D0935
ENCODING -1
SWIDTH 1088 0
DWIDTH 17 0
BBX 18 13 1 0
BITMAP
77FF80
6BFFC0
CC0600
6C0600
6C6600
3CF600
1FC600
38C600
70CE00
E07E00
400600
000600
000200
ENDCHAR
STARTCHAR uni0936094D0936
ENCODING -1
SWIDTH 1219 0
DWIDTH 20 0
BBX 20 13 1 0
BITMAP
70C7E0
F9E3F0
C9B180
CCF180
6C3180
3C3180
1FF180
38F180
70F980
E00580
C00180
000180
000080
ENDCHAR
STARTCHAR uni0936094D0958
ENCODING -1
SWIDTH 1477 0
DWIDTH 24 0
BBX 24 14 1 -1
BITMAP
77FFFE
6BFFFF
CC0600
4C0600
6C67C0
3CF7F0
1FC718
38C618
70CE38
E07E70
400600
000600
00C200
00C000
ENDCHAR
STARTCHAR ssadeva_radeva
ENCODING -1
SWIDTH 648 0
DWIDTH 10 0
BBX 13 14 -1 -1
BITMAP
FFF0
7FF8
38C0
34C0
32C0
31C0
10C0
19C0
07C0
03C0
07C0
0EC0
0C40
0800
ENDCHAR
STARTCHAR uni0937094D09150930
ENCODING -1
SWIDTH 1327 0
DWIDTH 21 0
BBX 23 14 -1 -1
BITMAP
FFFFFC
7FFFFE
380600
340600
3267C0
31E7E0
118710
198618
078E38
007EF0
003E00
007600
00E200
004000
ENDCHAR
STARTCHAR uni0937094D091F
ENCODING -1
SWIDTH 678 0
DWIDTH 11 0
BBX 13 14 -1 -1
BITMAP
FFF0
7FF8
1860
1C60
1B60
18E0
1860
0FE0
0F80
1C00
1800
1820
0870
07E0
ENDCHAR
STARTCHAR uni0937094D091F094D092F
ENCODING -1
SWIDTH 1056 0
DWIDTH 17 0
BBX 19 14 -1 -1
BITMAP
FFFFC0
7FFFE0
186180
1C6180
1B6180
18E780
187F80
0FFD80
0F8180
1C0180
180180
182380
087180
07E000
ENDCHAR
STARTCHAR uni0937094D091F094D0935
ENCODING -1
SWIDTH 678 0
DWIDTH 11 0
BBX 13 18 -1 -5
BITMAP
FFF0
7FF8
1860
1E60
1B60
18E0
1860
0FE0
0F80
1C00
1800
1820
7870
67E0
6180
6300
3E00
0C00
ENDCHAR
STARTCHAR uni0937094D0920
ENCODING -1
SWIDTH 678 0
DWIDTH 11 0
BBX 13 14 -1 -1
BITMAP
FFF0
7FF8
1860
1C60
1B60
18E0
1860
0FE0
0FC0
1C20
3830
1830
1870
07E0
ENDCHAR
STARTCHAR uni0937094D0920094D092F
ENCODING -1
SWIDTH 1046 0
DWIDTH 17 0
BBX 19 14 -1 -1
BITMAP
FFFFC0
7FFFE0
186180
1C6180
1B6180
18E780
187F80
0FFD80
0FC180
1C2180
383180
183380
187180
07E000
ENDCHAR
STARTCHAR uni0937094D092A0930
ENCODING -1
SWIDTH 1018 0
DWIDTH 16 0
BBX 19 13 -1 0
BITMAP
FFFFC0
7FFFE0
38C300
34C300
32C300
31C300
10C300
19E700
071F00
001B00
003300
006300
006100
ENDCHAR
STARTCHAR uni0937094D092E
ENCODING -1
SWIDTH 1044 0
DWIDTH 17 0
BBX 19 13 -1 0
BITMAP
FFFFC0
7FFFE0
386180
346180
326180
316180
13FF80
19E180
07C180
000180
000180
000380
000180
ENDCHAR
STARTCHAR uni0937094D092E094D092F
ENCODING -1
SWIDTH 1368 0
DWIDTH 22 0
BBX 24 13 -1 0
BITMAP
FFFFFE
7FFFFF
38610C
34618C
32618C
31638C
13FF1C
19E63C
07C3FC
00000C
00000C
00001C
00000C
ENDCHAR
STARTCHAR uni0937094D092F
ENCODING -1
SWIDTH 1002 0
DWIDTH 16 0
BBX 18 13 -1 0
BITMAP
FFFF80
7FFFC0
384300
346300
326300
31E300
13C700
198F00
07FF00
000300
000300
000300
000100
ENDCHAR
STARTCHAR uni0937094D0930
ENCODING -1
SWIDTH 320 0
DWIDTH 5 0
BBX 10 13 -1 0
BITMAP
FF80
7FC0
3800
3400
3200
3180
10C0
1980
0700
0600
0C00
1C00
1800
ENDCHAR
STARTCHAR sadeva_radeva
ENCODING -1
SWIDTH 962 0
DWIDTH 15 0
BBX 19 13 -2 0
BITMAP
FFFFC0
7FFFE0
020300
030300
032300
03FB00
1FC700
1F0F00
0F3B00
047300
030300
008300
004100
ENDCHAR
STARTCHAR uni0938094D0915
ENCODING -1
SWIDTH 1548 0
DWIDTH 25 0
BBX 28 13 -2 0
BITMAP
FFFFFFE0
7FFFFFF0
02006000
03006000
03066C00
030F7F00
1F0C7180
1FFC6180
0F7CE180
0607E780
03006000
00806000
00402000
ENDCHAR
STARTCHAR uni0938094D09150930
ENCODING -1
SWIDTH 1533 0
DWIDTH 25 0
BBX 27 13 -2 0
BITMAP
FFFFFFC0
7FFFFFE0
02006000
03006000
03067C00
030F7F00
1F1C7180
1FFC6180
0F7CE380
0607E700
0303E000
00876000
00462000
ENDCHAR
STARTCHAR uni0938094D0915094D0935
ENCODING -1
SWIDTH 1801 0
DWIDTH 29 0
BBX 32 13 -2 0
BITMAP
FFFFFFFE
7FFFFFFF
0200600C
0300600C
03067D8C
030F7FCC
1F1C730C
1FFC631C
0F7CE31C
0607E1FC
0300600C
0080601C
0040200C
ENDCHAR
STARTCHAR uni0938094D0916
ENCODING -1
SWIDTH 1540 0
DWIDTH 25 0
BBX 28 13 -2 0
BITMAP
FFFFFFE0
7FFFFFF0
020600C0
030600C0
030618C0
03073CC0
1F3F30C0
1FFE31C0
0F7E31C0
06041FC0
030200C0
008101C0
004080C0
ENDCHAR
STARTCHAR uni0938094D091B
ENCODING -1
SWIDTH 1473 0
DWIDTH 24 0
BBX 27 13 -2 0
BITMAP
FFFFFFC0
7FFFFFE0
02000600
030E0600
031F0E00
03180D00
1F099980
1F0FD980
0FFE0D80
067E0780
03060380
00820F00
0041FC00
ENDCHAR
STARTCHAR uni0938094D091C
ENCODING -1
SWIDTH 1166 0
DWIDTH 19 0
BBX 22 13 -2 0
BITMAP
FFFFF8
7FFFFC
020030
030030
033F30
03F0F0
1FC030
1F07F0
0F07F0
064330
033330
009F70
004030
ENDCHAR
STARTCHAR uni0938094D091F
ENCODING -1
SWIDTH 1179 0
DWIDTH 19 0
BBX 22 13 -2 0
BITMAP
FFFFF8
7FFFFC
0200C0
0300C0
0300C0
0307C0
1F0E00
1FFC00
0F7800
060800
030C10
008670
0043E0
ENDCHAR
STARTCHAR uni0938094D0924
ENCODING -1
SWIDTH 1178 0
DWIDTH 19 0
BBX 22 13 -2 0
BITMAP
FFFFF8
7FFFFC
020030
030030
030030
030030
1F0FF0
1FFE30
0F7C30
060C30
030430
008270
004130
ENDCHAR
STARTCHAR uni0938094D09240930
ENCODING -1
SWIDTH 1005 0
DWIDTH 16 0
BBX 20 13 -2 0
BITMAP
FFFFC0
7FFFF0
020180
033D80
037F80
03E780
1F8F80
1F3D80
0F7380
062780
030F80
008D80
004080
ENDCHAR
STARTCHAR uni0938094D0924094D092F
ENCODING -1
SWIDTH 1512 0
DWIDTH 24 0
BBX 28 13 -2 0
BITMAP
FFFFFFE0
7FFFFFF0
02003180
03003180
03003180
03007180
1F0FE380
1FFEC780
0F7C7F80
060C0180
03040180
00820180
00410080
ENDCHAR
STARTCHAR uni0938094D0924094D0930
ENCODING -1
SWIDTH 843 0
DWIDTH 13 0
BBX 19 13 -2 0
BITMAP
FFFFC0
7FFFE0
020000
030000
030200
030F80
1FF840
1F71E0
0F0380
060700
030000
008000
004000
ENDCHAR
STARTCHAR uni0938094D0924094D0930.loclMAR
ENCODING -1
SWIDTH 1054 0
DWIDTH 17 0
BBX 24 13 -2 0
BITMAP
FFFFFE
7FFFFF
020000
030000
030000
030000
1F0F84
1FFE7E
0F7C38
060C00
030400
008200
004100
ENDCHAR
STARTCHAR uni0938094D0924094D0935
ENCODING -1
SWIDTH 1418 0
DWIDTH 23 0
BBX 26 13 -2 0
BITMAP
FFFFFF80
7FFFFFC0
02000300
03000300
03002300
0300F300
1F0FC300
1FFEC700
0F7CC700
060C7F00
03040300
00820700
00410300
ENDCHAR
STARTCHAR uni0938094D0925
ENCODING -1
SWIDTH 1288 0
DWIDTH 21 0
BBX 24 13 -2 0
BITMAP
FFFE7E
7FFF3F
02190C
03198C
030F8C
03038C
1F1F0C
1FF81C
0F7C3C
0603FC
03000C
00801C
00400C
ENDCHAR
STARTCHAR uni0938094D0925094D092F
ENCODING -1
SWIDTH 1692 0
DWIDTH 27 0
BBX 31 13 -2 0
BITMAP
FFFEFFF8
7FFF7FFE
02190430
03198630
030F8630
03038E30
1F1F1C70
1FFC38F0
0F7FFFF0
06008030
03000030
00800030
00400010
ENDCHAR
STARTCHAR uni0938094D0926
ENCODING -1
SWIDTH 1174 0
DWIDTH 19 0
BBX 22 16 -2 -3
BITMAP
FFFFF8
7FFFFC
0200C0
0300C0
0300C0
0307C0
1F0E00
1FFC00
0F7C00
060CC0
0304E0
0087F0
0041F0
000020
000010
000008
ENDCHAR
STARTCHAR uni0938094D0928
ENCODING -1
SWIDTH 966 0
DWIDTH 15 0
BBX 19 13 -2 0
BITMAP
FFFFC0
7FFFE0
020300
030300
032300
03FB00
1FC700
1F1F00
0F3B00
047B00
033B00
009B00
004100
ENDCHAR
STARTCHAR uni0938094D092A0930
ENCODING -1
SWIDTH 1159 0
DWIDTH 19 0
BBX 22 13 -2 0
BITMAP
FFFFF8
7FFFFC
020C20
030C20
030C20
030C20
1F0C60
1FFCE0
0F73E0
0603A0
030720
008E60
004C20
ENDCHAR
STARTCHAR uni0938094D092B
ENCODING -1
SWIDTH 1549 0
DWIDTH 25 0
BBX 28 13 -2 0
BITMAP
FFFFFFE0
7FFFFFF0
020C2000
030C2000
030C2C00
030C3F00
1F0C7180
1FFCF180
0F73E180
06002780
03002000
00806000
00402000
ENDCHAR
STARTCHAR uni0938094D092C
ENCODING -1
SWIDTH 1144 0
DWIDTH 18 0
BBX 22 13 -2 0
BITMAP
FFFFF8
7FFFFC
020060
030060
030660
030F60
1F1E60
1FF960
0F7CE0
0607E0
030160
008060
004020
ENDCHAR
STARTCHAR uni0938094D092E
ENCODING -1
SWIDTH 1240 0
DWIDTH 20 0
BBX 23 13 -2 0
BITMAP
FFFFFC
7FFFFE
020618
030618
030618
030618
1F3FF8
1FFE18
0F7C18
060018
030018
008038
004018
ENDCHAR
STARTCHAR uni0938094D092E094D092F
ENCODING -1
SWIDTH 1564 0
DWIDTH 25 0
BBX 29 13 -2 0
BITMAP
FFFFFFE0
7FFFFFF8
020610C0
030618C0
030618C0
030638C0
1F3FF1C0
1FFE63C0
0F7C3FC0
060000C0
030000C0
008000C0
00400040
ENDCHAR
STARTCHAR uni0938094D092F
ENCODING -1
SWIDTH 1218 0
DWIDTH 19 0
BBX 23 13 -2 0
BITMAP
FFFFFC
7FFFFE
020630
030630
030630
030E30
1F1C30
1FF870
0F7FF0
060030
030030
008030
004010
ENDCHAR
STARTCHAR uni0938094D0930
ENCODING -1
SWIDTH 638 0
DWIDTH 10 0
BBX 16 13 -2 0
BITMAP
FFFE
7FFF
0200
0300
0320
03FA
1FC7
1F0E
0F38
0670
0300
0080
0040
ENDCHAR
STARTCHAR uni0938094D0932
ENCODING -1
SWIDTH 1363 0
DWIDTH 22 0
BBX 25 13 -2 0
BITMAP
FFFFFF00
7FFFFF80
02000600
03000600
03070600
030F8E00
1F1C7E00
1FFCF600
0F7C4600
06020600
03010600
00800E00
00400600
ENDCHAR
STARTCHAR uni0938094D0935
ENCODING -1
SWIDTH 1144 0
DWIDTH 18 0
BBX 22 13 -2 0
BITMAP
FFFFF8
7FFFFC
020060
030060
030660
030F60
1FFC60
1F7860
0F0CE0
0607E0
030160
008060
004020
ENDCHAR
STARTCHAR uni0938094D0938
ENCODING -1
SWIDTH 1220 0
DWIDTH 20 0
BBX 23 13 -2 0
BITMAP
FFFFFC
7FFFFE
020C10
030C10
030610
030630
1F7FF0
1FFDD0
0FFC10
060810
030410
008230
004110
ENDCHAR
STARTCHAR hadeva_radeva
ENCODING -1
SWIDTH 849 0
DWIDTH 14 0
BBX 15 17 0 -4
BITMAP
FFFC
7FFE
0060
0060
3FE0
3800
3000
3000
3FE0
30F0
3190
3310
1010
0810
0410
0310
0090
ENDCHAR
STARTCHAR hadeva_uvowelsigndeva
ENCODING -1
SWIDTH 578 0
DWIDTH 9 0
BBX 11 22 0 -9
BITMAP
FFC0
7FE0
0200
0200
1E00
3800
3000
1000
3E00
3100
7180
6180
3180
0800
0400
0200
0D00
0F00
8180
4180
2380
1F00
ENDCHAR
STARTCHAR hadeva_uuvowelsigndeva
ENCODING -1
SWIDTH 578 0
DWIDTH 9 0
BBX 11 20 0 -7
BITMAP
FFC0
7FE0
0200
0200
1E00
3800
3000
1000
3E00
3100
6180
6180
3180
0800
7C00
E600
C100
C080
7800
3800
ENDCHAR
STARTCHAR hadeva_rvocalicvowelsigndeva
ENCODING -1
SWIDTH 748 0
DWIDTH 12 0
BBX 13 17 0 -4
BITMAP
FFF0
7FF8
0300
0300
3F00
3800
3000
3000
1FE0
3390
3300
3300
1130
08F0
0400
0200
0100
ENDCHAR
STARTCHAR uni0939094D0923
ENCODING -1
SWIDTH 929 0
DWIDTH 15 0
BBX 16 17 0 -4
BITMAP
FFFE
7FFF
0030
0030
3FF0
3800
3000
3000
3FF0
3648
364C
33CC
108C
080C
040C
030C
008C
ENDCHAR
STARTCHAR uni0939094D0923.ss11
ENCODING -1
SWIDTH 1113 0
DWIDTH 18 0
BBX 19 17 0 -4
BITMAP
FFFFC0
7FFFE0
000600
000600
3FFE00
380000
300000
300000
3FFE00
30C900
37C980
37C980
139980
091980
04C180
032180
009180
ENDCHAR
STARTCHAR uni0939094D0928
ENCODING -1
SWIDTH 849 0
DWIDTH 14 0
BBX 15 17 0 -4
BITMAP
FFFC
7FFE
0060
0060
3FE0
3800
3000
3000
3FE0
31F0
3390
3790
1390
0990
0410
0310
0090
ENDCHAR
STARTCHAR uni0939094D092E
ENCODING -1
SWIDTH 950 0
DWIDTH 15 0
BBX 17 17 0 -4
BITMAP
FFFF00
7FFF80
018C00
018C00
3F8C00
380C00
300C00
300C00
1F0C00
318C00
37FC00
37FC00
138C00
090C00
040400
020000
010000
ENDCHAR
STARTCHAR uni0939094D092E094D092F
ENCODING -1
SWIDTH 1253 0
DWIDTH 20 0
BBX 21 17 0 -4
BITMAP
FFFFF0
7FFFF8
020860
020C60
1E0C60
381C60
3078E0
1031E0
3E7FE0
31E060
71C060
63C0E0
33C060
09C000
040000
020000
010000
ENDCHAR
STARTCHAR uni0939094D092F
ENCODING -1
SWIDTH 991 0
DWIDTH 16 0
BBX 17 17 0 -4
BITMAP
FFFF00
7FFF80
018600
018600
3F8600
3F8600
300600
300600
1F0600
318600
318600
31CE00
118E00
08FE00
043600
020600
010600
ENDCHAR
STARTCHAR uni0939094D0930
ENCODING -1
SWIDTH 498 0
DWIDTH 8 0
BBX 11 17 0 -4
BITMAP
FF80
7FC0
0300
0300
3F00
3800
3000
3000
3FE0
31C0
3380
3700
1200
0800
0400
0300
0080
ENDCHAR
STARTCHAR uni0939094D0932
ENCODING -1
SWIDTH 979 0
DWIDTH 16 0
BBX 17 17 0 -4
BITMAP
FFFF00
7FFF80
001000
001000
3FF000
380000
300000
300000
3FF000
301000
33FC00
336600
132600
091E00
048C00
034000
008000
ENDCHAR
STARTCHAR uni0939094D0935
ENCODING -1
SWIDTH 896 0
DWIDTH 14 0
BBX 16 17 0 -4
BITMAP
FFFE
7FFF
0030
0030
3FF0
3800
3000
3000
3FF0
3018
3398
3318
1338
09F8
04F8
0318
0098
ENDCHAR
STARTCHAR qadeva_radeva
ENCODING -1
SWIDTH 1037 0
DWIDTH 17 0
BBX 19 17 -1 -4
BITMAP
FFFFC0
7FFFE0
00C000
00C000
0CF800
1EFE00
18E300
18C300
19C700
0FCE00
07C000
0EC000
0C4000
000000
000000
018000
018000
ENDCHAR
STARTCHAR uni0958094D0924
ENCODING -1
SWIDTH 1319 0
DWIDTH 21 0
BBX 24 14 -1 -1
BITMAP
FFFFFE
7FFFFF
00C018
00C018
0CF818
1EF618
18E7F8
18C718
19C618
0FC618
00C218
00C118
184088
180000
ENDCHAR
STARTCHAR uni0958094D092B
ENCODING -1
SWIDTH 1705 0
DWIDTH 27 0
BBX 29 14 -1 -1
BITMAP
FFFFFFF0
7FFFFFF8
00C61800
00C61800
0CFE1F00
1EF61EC0
18E63C40
18C37860
19C1F8E0
0FC01BC0
00C01800
00C01800
18C00800
18000000
ENDCHAR
STARTCHAR uni0958094D092C
ENCODING -1
SWIDTH 1335 0
DWIDTH 21 0
BBX 24 14 -1 -1
BITMAP
FFFFFE
7FFFFF
00C018
00C018
0CFD98
1EF7D8
18E798
18C658
19C338
0FC1F8
00C018
00C018
184008
180000
ENDCHAR
STARTCHAR uni0958094D092E
ENCODING -1
SWIDTH 1411 0
DWIDTH 23 0
BBX 25 14 -1 -1
BITMAP
FFFFFF00
7FFFFF80
00C18C00
00C18C00
0CF98C00
1EF78C00
18EFFC00
18CF0400
19C70400
0FC00400
00C00400
00C00C00
18400400
18000000
ENDCHAR
STARTCHAR uni0958094D0930
ENCODING -1
SWIDTH 627 0
DWIDTH 10 0
BBX 15 17 -1 -4
BITMAP
FFFC
7FFE
00C0
00C0
0CF8
1EFE
38E0
18C0
19C0
0FC0
07C0
0EC0
0C40
0000
0000
0180
0180
ENDCHAR
STARTCHAR uni0958094D0958
ENCODING -1
SWIDTH 1724 0
DWIDTH 28 0
BBX 30 14 -1 -1
BITMAP
FFFFFFF8
7FFFFFFC
00C01800
00C01800
0CF99F00
1EF7DEC0
18E31C60
18C31860
19C338E0
0FC1F9C0
00C01800
00C01800
18430800
18030000
ENDCHAR
STARTCHAR uni0958094D095E
ENCODING -1
SWIDTH 1705 0
DWIDTH 27 0
BBX 29 14 -1 -1
BITMAP
FFFFFFF0
7FFFFFF8
00C61800
00C61800
0CFE1F00
1EF61EC0
18E63C40
18C37860
19C1F8E0
0FC01BC0
00C01800
00C31800
18C30800
18010000
ENDCHAR
STARTCHAR khhadeva_radeva
ENCODING -1
SWIDTH 1084 0
DWIDTH 17 0
BBX 21 14 -2 -1
BITMAP
FFFFF0
7FFFF8
0200C0
0300C0
030CC0
031EC0
1F38C0
1F10C0
0F19C0
060FC0
0307C0
008EC0
184C40
180800
ENDCHAR
STARTCHAR uni0959094D0924
ENCODING -1
SWIDTH 1443 0
DWIDTH 23 0
BBX 27 16 -2 -3
BITMAP
FFFFFF80
7FFFFFE0
02000300
03000300
030C0300
031E0300
1F38FF00
1F30E300
0F19C300
060FC300
03004300
00802300
00401100
00000000
06000000
06000000
ENDCHAR
STARTCHAR uni0959094D092E
ENCODING -1
SWIDTH 1570 0
DWIDTH 25 0
BBX 29 16 -2 -3
BITMAP
FFFFFFF0
7FFFFFF8
020030C0
030030C0
030C30C0
031E30C0
1F38FFC0
1F30F0C0
0F19F0C0
060F80C0
030000C0
008000C0
00400040
00000000
06000000
06000000
ENDCHAR
STARTCHAR uni0959094D092F
ENCODING -1
SWIDTH 1538 0
DWIDTH 25 0
BBX 28 16 -2 -3
BITMAP
FFFFFFE0
7FFFFFF0
020030C0
030010C0
030C38C0
031E70C0
1F38F1C0
1F10C3C0
0F19FFC0
060F80C0
030000C0
008001C0
004000C0
00000000
06000000
06000000
ENDCHAR
STARTCHAR uni0959094D0935
ENCODING -1
SWIDTH 1454 0
DWIDTH 23 0
BBX 27 16 -2 -3
BITMAP
FFFFFFC0
7FFFFFE0
02000300
03000300
030C3300
031E7B00
1F38E300
1F30C300
0F19E700
060FBF00
03000300
00800300
00400100
00000000
06000000
06000000
ENDCHAR
STARTCHAR uni0959094D0936
ENCODING -1
SWIDTH 1587 0
DWIDTH 25 0
BBX 29 14 -2 -1
BITMAP
FFFC63F0
7FFEF1F8
0200D8C0
030078C0
030C18C0
031E18C0
1F38F8C0
1F10F8C0
0F18F8C0
060F86C0
010000C0
008000C0
0C400040
0C000000
ENDCHAR
STARTCHAR uni0959094D0938
ENCODING -1
SWIDTH 1610 0
DWIDTH 26 0
BBX 29 16 -2 -3
BITMAP
FFFFFFF0
7FFFFFF8
02003060
03001060
030C1860
031E18E0
1F38FFE0
1F10FBE0
0F19F060
060FA060
03001060
008008E0
00400660
00000000
06000000
06000000
ENDCHAR
STARTCHAR ghhadeva_radeva
ENCODING -1
SWIDTH 768 0
DWIDTH 12 0
BBX 16 17 -2 -4
BITMAP
FFFE
7FFF
0318
0318
0318
0318
1F18
1F18
0E38
0078
00F8
01D8
0388
0100
0020
0030
0030
ENDCHAR
STARTCHAR zadeva_radeva
ENCODING -1
SWIDTH 828 0
DWIDTH 13 0
BBX 16 18 -1 -5
BITMAP
FFFE
7FFF
0018
0018
0018
0018
0FF8
0418
0218
0198
2198
1998
0FB8
0070
00E0
06C0
0600
0200
ENDCHAR
STARTCHAR uni095B094D092F
ENCODING -1
SWIDTH 1132 0
DWIDTH 18 0
BBX 21 18 -1 -5
BITMAP
FFFFF0
7FFFF8
0010C0
0018C0
0018C0
0038C0
0FF1C0
0463C0
023FC0
0180C0
2180C0
1980C0
0F8040
000000
000000
060000
060000
020000
ENDCHAR
STARTCHAR uni095B094D095B
ENCODING -1
SWIDTH 1328 0
DWIDTH 21 0
BBX 24 18 -1 -5
BITMAP
FFFFFE
7FFFFF
000018
000018
000018
000018
1FFFF8
0C0418
020218
030198
41A198
339998
0F0F88
000000
000000
040600
060600
060200
ENDCHAR
STARTCHAR fadeva_radeva
ENCODING -1
SWIDTH 1038 0
DWIDTH 17 0
BBX 19 16 -1 -3
BITMAP
FFFFC0
7FFFE0
30C000
30C000
30F800
30F600
10E300
19C300
07C700
06CE00
0EC000
1CC000
184000
000000
020000
020000
ENDCHAR
STARTCHAR uni095E094D0924
ENCODING -1
SWIDTH 1290 0
DWIDTH 21 0
BBX 23 14 -1 -1
BITMAP
FFFFFC
7FFFFE
30C018
30C018
30FC18
30F618
10E7F8
19CE18
07CC18
00CC18
00C618
08C138
0C4098
040000
ENDCHAR
STARTCHAR uni095E094D0938
ENCODING -1
SWIDTH 1452 0
DWIDTH 23 0
BBX 26 14 -1 -1
BITMAP
FFFFFF80
7FFFFFC0
30C18600
30C18600
30DD8600
30F78600
10EFFE00
19CFBE00
07C78600
00C30600
00C08600
08C04600
0C402200
0C000000
ENDCHAR
STARTCHAR uni095E094D095B
ENCODING -1
SWIDTH 1506 0
DWIDTH 24 0
BBX 27 18 -1 -5
BITMAP
FFFFFFC0
7FFFFFE0
30C00300
30C00300
30FC0300
30F60300
10E1FF00
19C08300
07C04300
00C03300
00C43300
08C23300
0C41E100
04000000
00000000
0000C000
0000C000
00004000
ENDCHAR
STARTCHAR uni095E094D095E
ENCODING -1
SWIDTH 1746 0
DWIDTH 28 0
BBX 30 14 -1 -1
BITMAP
FFFFFFF8
7FFFFFFC
30C30C00
30C30C00
30FF0F80
30F70FC0
10E31C60
19C13C60
07C0FC60
00C00DE0
00C00C00
0CC19C00
0C418C00
04008000
ENDCHAR
STARTCHAR yyadeva_radeva
ENCODING -1
SWIDTH 732 0
DWIDTH 12 0
BBX 14 17 -1 -4
BITMAP
FFF8
FFFC
0C30
0630
0E30
0E30
3C70
10F0
0FF0
03B0
0730
0E70
0C30
0000
0100
0180
0180
ENDCHAR
STARTCHAR uni0915094D
ENCODING -1
SWIDTH 627 0
DWIDTH 10 0
BBX 15 13 -1 0
BITMAP
FFFC
7FFE
00C0
00C0
0CF8
1EF6
38E0
18C0
19C0
0FC0
00C0
00C0
0040
ENDCHAR
STARTCHAR uni0916094D
ENCODING -1
SWIDTH 756 0
DWIDTH 12 0
BBX 18 13 -2 0
BITMAP
FFFF80
7FFFC0
020000
030000
030C00
031E00
1F3800
1F30C0
0F19C0
060F80
030000
008000
004000
ENDCHAR
STARTCHAR uni0917094D
ENCODING -1
SWIDTH 440 0
DWIDTH 7 0
BBX 10 9 -2 4
BITMAP
FF80
7FC0
0300
0300
0300
0300
1F00
1F00
0E00
ENDCHAR
STARTCHAR uni0918094D
ENCODING -1
SWIDTH 526 0
DWIDTH 8 0
BBX 14 12 -1 1
BITMAP
FFF8
FFFC
1E00
3800
3000
1800
0F80
0C00
1C18
0C30
07F0
01C0
ENDCHAR
STARTCHAR uni0919094D
ENCODING -1
SWIDTH 832 0
DWIDTH 13 0
BBX 18 18 -2 -5
BITMAP
FFFF80
7FFFC0
003000
03F000
07F600
0E0600
040200
07E000
01F000
101800
081800
07F800
03E000
000000
000400
000200
000100
000080
ENDCHAR
STARTCHAR uni091A094D
ENCODING -1
SWIDTH 510 0
DWIDTH 8 0
BBX 13 10 -1 3
BITMAP
FFF0
FFF8
0000
0000
3F80
3FC0
0700
0318
0338
01F0
ENDCHAR
STARTCHAR uni091B094D
ENCODING -1
SWIDTH 994 0
DWIDTH 16 0
BBX 19 13 -1 0
BITMAP
FFFFC0
FFFFE0
000000
0C0000
1E1E00
381B00
191B00
0F9B00
0E1B80
0C0F00
0C0700
061E00
01F800
ENDCHAR
STARTCHAR uni091C094D
ENCODING -1
SWIDTH 500 0
DWIDTH 8 0
BBX 13 13 -1 0
BITMAP
FFF0
7FF8
0000
0000
0000
0000
0FF8
0400
0200
0180
2180
1980
0F80
ENDCHAR
STARTCHAR uni091D094D
ENCODING -1
SWIDTH 702 0
DWIDTH 11 0
BBX 16 17 -1 -4
BITMAP
FFFC
7FFE
0060
07E0
0FE0
1C03
080E
0FFC
33A0
3030
1830
1FF0
07C0
0200
0100
00C8
007C
ENDCHAR
STARTCHAR uni091D094D.ss11
ENCODING -1
SWIDTH 769 0
DWIDTH 12 0
BBX 17 13 0 0
BITMAP
E3FE00
F9FF80
086000
0C6000
0C6000
0C6000
7FFE00
3C6300
386000
006000
006000
006000
002000
ENDCHAR
STARTCHAR uni091E094D
ENCODING -1
SWIDTH 470 0
DWIDTH 8 0
BBX 12 11 -1 2
BITMAP
FFC0
7FE0
0000
0000
1E00
1B30
01F0
01E0
2380
1F00
0E00
ENDCHAR
STARTCHAR uni091F094D
ENCODING -1
SWIDTH 698 0
DWIDTH 11 0
BBX 17 18 -1 -5
BITMAP
FFF800
7FFC00
018000
018000
018000
0F8000
1C0000
180000
180000
180000
183000
0CF000
03C000
000000
000800
000400
000300
000180
ENDCHAR
STARTCHAR uni0920094D
ENCODING -1
SWIDTH 814 0
DWIDTH 13 0
BBX 17 16 -1 -3
BITMAP
FFFC00
7FFE00
018000
018000
018000
0FC000
1C2000
183000
183000
183000
183000
0C7000
03C000
000400
000300
000080
ENDCHAR
STARTCHAR uni0921094D
ENCODING -1
SWIDTH 712 0
DWIDTH 11 0
BBX 17 18 -2 -5
BITMAP
FFFC00
7FFE00
003000
03F000
07F000
0E0000
040000
07E000
01F000
101800
081800
07F800
03E000
000000
000400
000200
000100
000080
ENDCHAR
STARTCHAR uni0922094D
ENCODING -1
SWIDTH 698 0
DWIDTH 11 0
BBX 17 18 -1 -5
BITMAP
FFF800
7FFC00
018000
018000
018000
0F8000
1C0000
180000
19C000
19A000
09B000
0EF000
03E000
000000
000800
000600
000300
000080
ENDCHAR
STARTCHAR uni0923094D
ENCODING -1
SWIDTH 601 0
DWIDTH 10 0
BBX 12 9 -1 4
BITMAP
FFE0
7FF0
30C0
30C0
30C0
30C0
1180
1B80
0F00
ENDCHAR
STARTCHAR uni0923094D.ss11
ENCODING -1
SWIDTH 615 0
DWIDTH 10 0
BBX 16 17 -2 -4
BITMAP
FFFC
7FFE
0330
0330
0B30
1F30
0F30
0630
0230
0110
0080
0040
0030
0018
0004
0002
0001
ENDCHAR
STARTCHAR uni0924094D
ENCODING -1
SWIDTH 334 0
DWIDTH 5 0
BBX 10 13 -1 0
BITMAP
FF80
7FC0
0000
0000
0000
0000
1FC0
3800
3000
3000
1800
0400
0200
ENDCHAR
STARTCHAR uni0925094D
ENCODING -1
SWIDTH 454 0
DWIDTH 7 0
BBX 10 10 1 3
BITMAP
7000
F800
C800
CC00
7C00
1C00
3800
F0C0
6180
3F00
ENDCHAR
STARTCHAR uni0926094D
ENCODING -1
SWIDTH 678 0
DWIDTH 11 0
BBX 13 19 -1 -6
BITMAP
FFF0
7FF8
0180
0180
0180
0F80
1C00
1800
1800
1980
09E0
07E0
03E0
0040
0020
0310
0080
0040
0020
ENDCHAR
STARTCHAR uni0927094D
ENCODING -1
SWIDTH 524 0
DWIDTH 8 0
BBX 10 11 2 3
BITMAP
7800
EC00
CC00
DC00
4000
3C00
3800
30C0
31C0
1380
0F00
ENDCHAR
STARTCHAR uni0928094D
ENCODING -1
SWIDTH 340 0
DWIDTH 5 0
BBX 11 9 -2 4
BITMAP
FFC0
7FE0
0000
0000
0000
0000
1FE0
1E00
0E00
ENDCHAR
STARTCHAR uni0929094D
ENCODING -1
SWIDTH 340 0
DWIDTH 5 0
BBX 11 14 -2 -1
BITMAP
FFC0
7FE0
0000
0000
0000
0000
1FE0
1E00
0E00
0000
0000
0000
0600
0600
ENDCHAR
STARTCHAR uni092A094D
ENCODING -1
SWIDTH 320 0
DWIDTH 5 0
BBX 10 9 -1 4
BITMAP
FF80
7FC0
3000
3000
3000
3080
10C0
1980
0700
ENDCHAR
STARTCHAR uni092B094D
ENCODING -1
SWIDTH 628 0
DWIDTH 10 0
BBX 15 13 -1 0
BITMAP
FFFC
7FFE
30C0
30C0
30FC
30F6
10E0
19C0
07C0
00C0
00C0
00C0
0040
ENDCHAR
STARTCHAR uni092C094D
ENCODING -1
SWIDTH 320 0
DWIDTH 5 0
BBX 10 10 -1 3
BITMAP
FF80
7FC0
0000
0000
0C00
1E00
3C00
12C0
19C0
0F80
ENDCHAR
STARTCHAR uni092D094D
ENCODING -1
SWIDTH 430 0
DWIDTH 7 0
BBX 9 9 1 4
BITMAP
E000
D000
D800
7800
1800
1800
FF80
7800
3000
ENDCHAR
STARTCHAR uni092D094D.init
ENCODING -1
SWIDTH 430 0
DWIDTH 7 0
BBX 9 9 1 4
BITMAP
E000
D000
D800
7800
1800
1800
FF80
7800
3000
ENDCHAR
STARTCHAR uni092E094D
ENCODING -1
SWIDTH 436 0
DWIDTH 7 0
BBX 13 9 -2 4
BITMAP
FFF0
7FF8
0300
0300
0300
0300
1FF0
1E00
0E00
ENDCHAR
STARTCHAR uni092F094D
ENCODING -1
SWIDTH 404 0
DWIDTH 6 0
BBX 12 9 -1 4
BITMAP
FFE0
FFF0
0C00
0600
0E00
0E00
3C60
10E0
0FC0
ENDCHAR
STARTCHAR uni0931094D
ENCODING -1
SWIDTH 396 0
DWIDTH 6 0
BBX 12 14 -2 -1
BITMAP
FFE0
7FF0
0000
0000
0000
0000
1040
0FE0
0380
0000
0000
0000
0300
0300
ENDCHAR
STARTCHAR uni0932094D
ENCODING -1
SWIDTH 579 0
DWIDTH 9 0
BBX 13 11 -1 2
BITMAP
FFF0
7FF8
0000
0000
0E70
1DE8
18C0
18C0
1800
0400
0200
ENDCHAR
STARTCHAR uni0932094D.halfform
ENCODING -1
SWIDTH 539 0
DWIDTH 9 0
BBX 13 11 -1 2
BITMAP
FFF0
7FF8
0000
0000
0E00
1D98
18F8
19E0
1880
0400
0200
ENDCHAR
STARTCHAR uni0932094D.loclMAR
ENCODING -1
SWIDTH 566 0
DWIDTH 9 0
BBX 13 11 -1 2
BITMAP
FFF0
7FF8
0000
0000
0E70
1DF8
1980
1800
0800
0400
0200
ENDCHAR
STARTCHAR uni0933094D
ENCODING -1
SWIDTH 1037 0
DWIDTH 17 0
BBX 19 10 -1 3
BITMAP
FFFFC0
7FFFE0
000000
000000
0E3800
1F7E00
186300
18C300
19C700
0F9E00
ENDCHAR
STARTCHAR uni0934094D
ENCODING -1
SWIDTH 1037 0
DWIDTH 17 0
BBX 19 16 -1 -3
BITMAP
FFFFC0
7FFFE0
000000
000000
0E3800
1F7E00
186300
18C300
19C700
0F9E00
000000
000000
00E000
00D800
000C00
000200
ENDCHAR
STARTCHAR uni0935094D
ENCODING -1
SWIDTH 320 0
DWIDTH 5 0
BBX 10 10 -1 3
BITMAP
FF80
7FC0
0000
0000
0C00
1E00
3800
30C0
19C0
0F80
ENDCHAR
STARTCHAR uni0936094D
ENCODING -1
SWIDTH 440 0
DWIDTH 7 0
BBX 10 11 1 2
BITMAP
7000
F800
C800
CC00
4C00
3C00
1FC0
3800
7000
E000
C000
ENDCHAR
STARTCHAR uni0936094D.loclMAR
ENCODING -1
SWIDTH 520 0
DWIDTH 8 0
BBX 12 15 -1 -2
BITMAP
FFE0
7FF0
0400
0400
1E00
1B00
1B00
1B00
0700
0300
1F00
0F00
06C0
0060
0010
ENDCHAR
STARTCHAR uni0937094D
ENCODING -1
SWIDTH 320 0
DWIDTH 5 0
BBX 10 9 -1 4
BITMAP
FF80
7FC0
3800
3400
3200
3180
10C0
1980
0700
ENDCHAR
STARTCHAR uni0938094D
ENCODING -1
SWIDTH 481 0
DWIDTH 8 0
BBX 15 13 -2 0
BITMAP
FFFC
7FFE
0200
0300
0300
0300
1F08
1FF8
0F70
0600
0300
0080
0040
ENDCHAR
STARTCHAR uni0939094D
ENCODING -1
SWIDTH 578 0
DWIDTH 9 0
BBX 11 19 0 -6
BITMAP
FFC0
7FE0
0200
0200
1E00
3800
3000
1000
3E00
3100
7180
6180
3180
0800
0400
0200
3100
0800
0400
ENDCHAR
STARTCHAR uni0958094D
ENCODING -1
SWIDTH 627 0
DWIDTH 10 0
BBX 15 14 -1 -1
BITMAP
FFFC
7FFE
00C0
00C0
0CF8
1EF6
38E0
18C0
19C0
0FC0
00C0
00C0
1840
1800
ENDCHAR
STARTCHAR uni0959094D
ENCODING -1
SWIDTH 756 0
DWIDTH 12 0
BBX 18 16 -2 -3
BITMAP
FFFF80
7FFFC0
020000
030000
030C00
031E00
1F3800
1F30C0
0F19C0
060F80
030000
008000
004000
000000
060000
060000
ENDCHAR
STARTCHAR uni095A094D
ENCODING -1
SWIDTH 440 0
DWIDTH 7 0
BBX 10 14 -2 -1
BITMAP
FF80
7FC0
0300
0300
0300
0300
1F00
1F00
0E00
0000
0000
0000
0600
0600
ENDCHAR
STARTCHAR uni095B094D
ENCODING -1
SWIDTH 500 0
DWIDTH 8 0
BBX 13 18 -1 -5
BITMAP
FFF0
7FF8
0000
0000
0000
0000
0FF8
0400
0200
0180
2180
1980
0F80
0000
0000
0600
0600
0200
ENDCHAR
STARTCHAR uni095E094D
ENCODING -1
SWIDTH 628 0
DWIDTH 10 0
BBX 15 14 -1 -1
BITMAP
FFFC
7FFE
30C0
30C0
30FC
30F6
10E0
19C0
07C0
00C0
00C0
08C0
0C40
0C00
ENDCHAR
STARTCHAR uni095F094D
ENCODING -1
SWIDTH 404 0
DWIDTH 6 0
BBX 12 14 -1 -1
BITMAP
FFE0
FFF0
0C00
0600
0E00
0E00
3C60
10E0
0FC0
0000
0000
0800
0C00
0C00
ENDCHAR
STARTCHAR zero.dnom
ENCODING -1
SWIDTH 629 0
DWIDTH 10 0
BBX 8 6 1 -1
BITMAP
3E
43
C3
C3
C2
7C
ENDCHAR
STARTCHAR one.dnom
ENCODING -1
SWIDTH 393 0
DWIDTH 6 0
BBX 4 6 1 -1
BITMAP
F0
60
60
60
60
F0
ENDCHAR
STARTCHAR two.dnom
ENCODING -1
SWIDTH 491 0
DWIDTH 8 0
BBX 6 6 1 -1
BITMAP
78
08
08
10
64
FC
ENDCHAR
STARTCHAR three.dnom
ENCODING -1
SWIDTH 467 0
DWIDTH 7 0
BBX 5 9 1 -4
BITMAP
F0
18
10
30
38
08
08
30
C0
ENDCHAR
STARTCHAR four.dnom
ENCODING -1
SWIDTH 569 0
DWIDTH 9 0
BBX 8 9 0 -4
BITMAP
06
0E
16
26
46
FF
06
06
04
ENDCHAR
STARTCHAR five.dnom
ENCODING -1
SWIDTH 536 0
DWIDTH 9 0
BBX 6 9 1 -4
BITMAP
78
80
C0
70
18
0C
08
10
C0
ENDCHAR
STARTCHAR six.dnom
ENCODING -1
SWIDTH 617 0
DWIDTH 10 0
BBX 8 10 1 -1
BITMAP
02
0C
10
20
6C
46
C3
C3
62
7C
ENDCHAR
STARTCHAR seven.dnom
ENCODING -1
SWIDTH 552 0
DWIDTH 9 0
BBX 7 9 1 -4
BITMAP
FE
84
04
08
08
10
20
20
40
ENDCHAR
STARTCHAR eight.dnom
ENCODING -1
SWIDTH 613 0
DWIDTH 10 0
BBX 8 10 1 -1
BITMAP
18
26
46
66
3C
3C
46
C3
C2
7C
ENDCHAR
STARTCHAR nine.dnom
ENCODING -1
SWIDTH 607 0
DWIDTH 10 0
BBX 7 9 1 -4
BITMAP
3C
46
C2
C2
62
36
0C
18
60
ENDCHAR
STARTCHAR zero.numr
ENCODING -1
SWIDTH 629 0
DWIDTH 10 0
BBX 8 6 1 7
BITMAP
3E
47
C3
C3
C2
7C
ENDCHAR
STARTCHAR one.numr
ENCODING -1
SWIDTH 427 0
DWIDTH 7 0
BBX 4 6 1 7
BITMAP
F0
20
20
20
20
70
ENDCHAR
STARTCHAR two.numr
ENCODING -1
SWIDTH 491 0
DWIDTH 8 0
BBX 6 6 1 7
BITMAP
78
98
08
10
24
FC
ENDCHAR
STARTCHAR three.numr
ENCODING -1
SWIDTH 467 0
DWIDTH 7 0
BBX 5 9 1 4
BITMAP
F0
18
10
30
38
08
08
10
C0
ENDCHAR
STARTCHAR four.numr
ENCODING -1
SWIDTH 569 0
DWIDTH 9 0
BBX 8 9 0 4
BITMAP
06
0E
16
26
66
FF
06
06
04
ENDCHAR
STARTCHAR five.numr
ENCODING -1
SWIDTH 536 0
DWIDTH 9 0
BBX 6 9 1 4
BITMAP
78
80
C0
70
18
0C
08
10
C0
ENDCHAR
STARTCHAR six.numr
ENCODING -1
SWIDTH 617 0
DWIDTH 10 0
BBX 8 9 1 7
BITMAP
0C
18
20
68
46
C3
C3
62
7C
ENDCHAR
STARTCHAR seven.numr
ENCODING -1
SWIDTH 552 0
DWIDTH 9 0
BBX 7 9 1 4
BITMAP
FE
84
04
08
08
10
20
20
40
ENDCHAR
STARTCHAR eight.numr
ENCODING -1
SWIDTH 613 0
DWIDTH 10 0
BBX 8 10 1 7
BITMAP
08
2E
46
66
34
3C
46
C3
C2
74
ENDCHAR
STARTCHAR nine.numr
ENCODING -1
SWIDTH 607 0
DWIDTH 10 0
BBX 7 9 1 4
BITMAP
3C
46
C2
C2
62
36
0C
18
60
ENDCHAR
STARTCHAR fivedeva.loclMAR
ENCODING -1
SWIDTH 904 0
DWIDTH 14 0
BBX 13 15 0 -1
BITMAP
0C00
0E00
8F00
4F00
3C00
0200
0100
0080
0040
0020
0030
0010
0018
0008
0008
ENDCHAR
STARTCHAR eightdeva.loclMAR
ENCODING -1
SWIDTH 870 0
DWIDTH 14 0
BBX 12 13 1 0
BITMAP
0040
00E0
01C0
0380
0700
1C00
3800
F000
F000
3000
3000
10F0
0FE0
ENDCHAR
STARTCHAR ninedeva.loclMAR
ENCODING -1
SWIDTH 704 0
DWIDTH 11 0
BBX 9 15 1 -1
BITMAP
7800
EC00
CC00
CC00
5C00
3800
3000
1800
0800
0400
0200
0300
0100
0180
0180
ENDCHAR
STARTCHAR onedeva.ss11
ENCODING -1
SWIDTH 550 0
DWIDTH 9 0
BBX 6 14 1 -1
BITMAP
70
F8
C8
CC
7C
1C
1C
38
60
30
18
0C
1C
08
ENDCHAR
STARTCHAR periodcentered.case
ENCODING -1
SWIDTH 339 0
DWIDTH 5 0
BBX 3 2 1 5
BITMAP
60
E0
ENDCHAR
STARTCHAR bullet.case
ENCODING -1
SWIDTH 508 0
DWIDTH 8 0
BBX 6 6 1 3
BITMAP
10
78
7C
F8
78
30
ENDCHAR
STARTCHAR exclamdown.case
ENCODING -1
SWIDTH 349 0
DWIDTH 6 0
BBX 2 13 2 0
BITMAP
C0
C0
C0
00
00
80
C0
C0
C0
C0
C0
C0
C0
ENDCHAR
STARTCHAR numbersign.case
ENCODING -1
SWIDTH 780 0
DWIDTH 12 0
BBX 11 8 1 2
BITMAP
0400
0480
3FE0
0100
1200
FF80
2400
4000
ENDCHAR
STARTCHAR questiondown.case
ENCODING -1
SWIDTH 414 0
DWIDTH 7 0
BBX 6 13 0 0
BITMAP
18
38
10
00
00
38
18
10
20
40
C0
60
3C
ENDCHAR
STARTCHAR periodcentered.deva
ENCODING -1
SWIDTH 339 0
DWIDTH 5 0
BBX 2 2 2 5
BITMAP
C0
C0
ENDCHAR
STARTCHAR colon.deva
ENCODING -1
SWIDTH 327 0
DWIDTH 5 0
BBX 2 8 2 0
BITMAP
C0
C0
00
00
00
00
C0
C0
ENDCHAR
STARTCHAR comma.deva
ENCODING -1
SWIDTH 300 0
DWIDTH 5 0
BBX 3 6 1 -4
BITMAP
40
60
60
40
C0
80
ENDCHAR
STARTCHAR ellipsis.deva
ENCODING -1
SWIDTH 1269 0
DWIDTH 20 0
BBX 15 3 3 0
BITMAP
4100
C386
C106
ENDCHAR
STARTCHAR exclam.deva
ENCODING -1
SWIDTH 443 0
DWIDTH 7 0
BBX 3 13 3 0
BITMAP
80
C0
E0
C0
C0
C0
40
40
40
00
40
E0
C0
ENDCHAR
STARTCHAR period.deva
ENCODING -1
SWIDTH 327 0
DWIDTH 5 0
BBX 2 2 2 0
BITMAP
C0
C0
ENDCHAR
STARTCHAR question.deva
ENCODING -1
SWIDTH 664 0
DWIDTH 11 0
BBX 7 13 3 0
BITMAP
30
FC
C4
06
0C
38
30
30
10
00
10
30
30
ENDCHAR
STARTCHAR quotedbl.deva
ENCODING -1
SWIDTH 658 0
DWIDTH 11 0
BBX 6 6 3 7
BITMAP
80
CC
CC
CC
CC
48
ENDCHAR
STARTCHAR quotesingle.deva
ENCODING -1
SWIDTH 438 0
DWIDTH 7 0
BBX 2 6 3 7
BITMAP
80
C0
C0
C0
C0
40
ENDCHAR
ENDFONT
